<svg xmlns="http://www.w3.org/2000/svg" width="60.505" height="60.5" viewBox="0 0 60.505 60.5">
  <g id="_10-percent-sticker" data-name="10-percent-sticker" transform="translate(-0.002 -0.002)">
    <path id="Path_7345" data-name="Path 7345" d="M57.588,31.728a3.575,3.575,0,0,1,0-2.955l2.256-4.964a7.351,7.351,0,0,0-4.112-9.928l-5.1-1.916a3.555,3.555,0,0,1-2.09-2.09l-1.916-5.1A7.351,7.351,0,0,0,36.695.66L31.731,2.916a3.555,3.555,0,0,1-2.955,0L23.809.66a7.359,7.359,0,0,0-9.928,4.112l-1.916,5.1a3.55,3.55,0,0,1-2.09,2.09l-5.1,1.916A7.351,7.351,0,0,0,.66,23.809l2.256,4.964a3.575,3.575,0,0,1,0,2.955L.66,36.692a7.351,7.351,0,0,0,4.112,9.928l5.1,1.916a3.557,3.557,0,0,1,2.09,2.09l1.916,5.1a7.354,7.354,0,0,0,9.928,4.112l4.964-2.256a3.555,3.555,0,0,1,2.955,0l4.964,2.256a7.351,7.351,0,0,0,9.928-4.112l1.916-5.1a3.555,3.555,0,0,1,2.09-2.09l5.1-1.916a7.351,7.351,0,0,0,4.112-9.928l-2.254-4.964Z" transform="translate(0 0)" fill="#f44336"/>
    <path id="Path_7346" data-name="Path 7346" d="M20.782,19.249a5.042,5.042,0,1,0-7.13,7.13l4.457,4.457a5.042,5.042,0,0,0,7.13-7.13l-4.457-4.457Zm1.782,8.912a1.261,1.261,0,0,1-1.782,0L16.324,23.7a1.261,1.261,0,1,1,1.785-1.782l4.457,4.457A1.261,1.261,0,0,1,22.564,28.161ZM10.531,25.043a1.891,1.891,0,0,0-2.675,0L6.073,26.825A1.891,1.891,0,1,0,8.748,29.5l.446-.446,7.579,7.579a1.891,1.891,0,1,0,2.672-2.675l-8.915-8.915Zm12.034-7.1a3.151,3.151,0,1,0-3.088-2.54A3.135,3.135,0,0,0,22.564,17.943Zm10.254-3.6a3.152,3.152,0,1,0,4.457,0,3.157,3.157,0,0,0-4.457,0ZM27.7,5.781a1.891,1.891,0,0,0-1.669,2.09l1.782,16.045A1.888,1.888,0,0,0,29.692,25.6l.212-.013A1.891,1.891,0,0,0,31.572,23.5L29.79,7.453A1.891,1.891,0,0,0,27.7,5.781Z" transform="translate(8.392 8.773)" fill="#fafafa"/>
    <path id="Path_7347" data-name="Path 7347" d="M21.764,25.962l-1.782,1.782,2.1,2.1a1.261,1.261,0,0,0,1.785-1.782Zm14.582-4.551a3.14,3.14,0,1,1,2.229-.92A3.135,3.135,0,0,1,36.347,21.412ZM43.065,4.661,31.844,15.883l1.034,9.3a1.891,1.891,0,0,1-1.669,2.088L31,27.283A1.888,1.888,0,0,1,29.121,25.6l-.7-6.3-3.981,3.981,2.1,2.1a5.042,5.042,0,0,1-7.13,7.13l-2.1-2.1-.892.892,4.331,4.331a1.891,1.891,0,1,1-2.673,2.675l-4.331-4.332L4.663,43.069a3.473,3.473,0,0,1,.217.471l1.916,5.1a7.354,7.354,0,0,0,9.928,4.112L21.688,50.5a3.572,3.572,0,0,1,2.955,0l4.964,2.256a7.353,7.353,0,0,0,9.931-4.112l1.916-5.1a3.555,3.555,0,0,1,2.09-2.09l5.1-1.916a7.351,7.351,0,0,0,4.112-9.928L50.5,24.641a3.575,3.575,0,0,1,0-2.955l2.256-4.964a7.351,7.351,0,0,0-4.112-9.928l-5.1-1.916a3.184,3.184,0,0,1-.479-.217Z" transform="translate(7.09 7.087)" fill="#d43a2f"/>
    <path id="Path_7348" data-name="Path 7348" d="M18.963,17.363l-2.675,2.675,2.1,2.1a1.261,1.261,0,0,1-1.785,1.782l-2.1-2.1L11.828,24.5l2.1,2.1a5.042,5.042,0,0,0,7.13-7.13l-2.1-2.105Zm-8.025,8.022L8.263,28.061l4.331,4.331a1.891,1.891,0,0,0,2.672-2.675l-4.329-4.331Zm15.43-15.43L22.944,13.38l.7,6.3a1.888,1.888,0,0,0,1.876,1.682l.212-.013A1.891,1.891,0,0,0,27.4,19.257l-1.031-9.3Zm6.941.383-4.435,4.435a3.152,3.152,0,0,0,4.435-4.435ZM20.829,8.557l-4.435,4.435a3.152,3.152,0,0,0,4.435-4.435Z" transform="translate(12.566 13.013)" fill="#dadada"/>
  </g>
</svg>
