<svg xmlns="http://www.w3.org/2000/svg" xmlns:xlink="http://www.w3.org/1999/xlink" width="60" height="58.726" viewBox="0 0 60 58.726">
  <defs>
    <linearGradient id="linear-gradient" y1="0.5" x2="1" y2="0.5" gradientUnits="objectBoundingBox">
      <stop offset="0" stop-color="#ffa68d"/>
      <stop offset="1" stop-color="#fd3a84"/>
    </linearGradient>
  </defs>
  <path id="_15" data-name="15" d="M61.235,40.172c.589-2.014,2.807-3.825,2.764-6.214.043-2.389-2.186-4.189-2.764-6.214-.375-2.079.857-4.746-.2-6.8-.986-2.154-3.8-2.818-5.2-4.393-1.221-1.714-1.275-4.639-3.128-6.043-1.779-1.5-4.65-.889-6.589-1.714C44.275,7.772,43,5.19,40.675,4.708,38.436,4.14,36.1,5.94,34,6.026c-2.111-.086-4.436-1.9-6.675-1.318-2.336.482-3.6,3.064-5.443,4.082-1.939.825-4.811.214-6.589,1.714-1.854,1.4-1.9,4.339-3.128,6.032-1.4,1.586-4.211,2.25-5.2,4.4-1.061,2.057.171,4.725-.2,6.8C6.176,29.768,3.958,31.568,4,33.958c-.043,2.389,2.186,4.189,2.764,6.214.375,2.079-.857,4.746.2,6.8.986,2.154,3.8,2.818,5.2,4.4,1.221,1.7,1.275,4.628,3.128,6.032,1.779,1.5,4.65.889,6.589,1.714,1.843,1.018,3.118,3.6,5.443,4.082,2.25.579,4.564-1.232,6.675-1.318,1.8.054,3.857,1.468,5.753,1.425,2.807.1,4.318-3.021,6.364-4.189,1.939-.825,4.811-.214,6.589-1.714,1.854-1.4,1.9-4.339,3.128-6.032,1.4-1.586,4.211-2.25,5.2-4.4C62.092,44.918,60.86,42.25,61.235,40.172ZM17.286,43.6a1.071,1.071,0,0,1-2.143,0V26.9l-2.025,2.036A1.076,1.076,0,0,1,11.6,27.411l3.857-3.857a1.074,1.074,0,0,1,1.168-.225,1.058,1.058,0,0,1,.664.986Zm8.946-13.3a7.189,7.189,0,1,1-6.782,8.528,1.068,1.068,0,1,1,2.1-.386,4.854,4.854,0,0,0,4.682,4.082,5.049,5.049,0,0,0,0-10.082A4.624,4.624,0,0,0,22.6,34.225a1.074,1.074,0,0,1-1.907-.771l.9-9.246a1.071,1.071,0,0,1,1.071-.964h9.407a1.071,1.071,0,0,1,0,2.143H23.629l-.546,5.7a6.628,6.628,0,0,1,3.15-.782ZM39.25,34.065A3.964,3.964,0,1,1,43.214,30.1a3.964,3.964,0,0,1-3.964,3.964Zm2.882,10.018a1.051,1.051,0,0,1-.954.589,1,1,0,0,1-.482-.118,1.063,1.063,0,0,1-.471-1.436l9.643-19.285a1.069,1.069,0,0,1,1.907.964Zm10.618-2.3a3.964,3.964,0,1,1,3.964-3.964,3.964,3.964,0,0,1-3.964,3.964ZM41.071,30.1a1.82,1.82,0,1,1-.533-1.288,1.821,1.821,0,0,1,.533,1.288Zm13.5,7.714a1.82,1.82,0,1,1-.533-1.288,1.821,1.821,0,0,1,.533,1.288Z" transform="translate(-4 -4.594)" fill="url(#linear-gradient)"/>
</svg>
