<svg xmlns="http://www.w3.org/2000/svg" width="24.5" height="24.448" viewBox="0 0 24.5 24.448">
  <g id="_18-plus_1_" data-name="18-plus (1)" transform="translate(0 0)">
    <path id="Path_7364" data-name="Path 7364" d="M22.863,10.246l-.469.156a.191.191,0,0,0-.156.052.887.887,0,0,1-.365.052h-.156c-.156,0-.365.052-.521.052a5.006,5.006,0,0,1-5-5,1.773,1.773,0,0,1,.052-.521V4.877c0-.156.052-.261.052-.365a.191.191,0,0,1,.052-.156l.156-.469A10.616,10.616,0,0,0,12.124,3,11.6,11.6,0,1,0,23.7,14.572,11.031,11.031,0,0,0,22.863,10.246ZM9.935,19.212H7.85v-7.35H7.8L6.026,12.7,5.661,11.08l2.45-1.147H9.935Zm5.056.156c-2.346,0-3.44-1.355-3.44-2.606a2.5,2.5,0,0,1,1.668-2.346v-.052a2.288,2.288,0,0,1-1.355-2.033c0-1.564,1.407-2.606,3.284-2.606,2.189,0,3.076,1.251,3.076,2.4a2.253,2.253,0,0,1-1.355,2.033v.052a2.49,2.49,0,0,1,1.72,2.294C18.536,18.273,17.129,19.368,14.991,19.368Z" transform="translate(-0.5 -1.749)"/>
    <path id="Path_7365" data-name="Path 7365" d="M27.36,12.433a1.283,1.283,0,0,0,.938-1.2A1.147,1.147,0,0,0,26,11.182C26.056,11.807,26.63,12.224,27.36,12.433Zm-.313,1.616A1.434,1.434,0,0,0,25.9,15.456a1.29,1.29,0,0,0,1.3,1.3,1.153,1.153,0,0,0,1.251-1.147C28.506,14.779,27.881,14.257,27.047,14.049Zm6.307-5.838a3.805,3.805,0,0,0,0-7.611,3.7,3.7,0,0,0-3.388,2.085h0a2.554,2.554,0,0,0-.417,1.251c0,.156-.052.313-.052.469A3.838,3.838,0,0,0,33.354,8.211ZM30.8,3.78h1.929V1.851h1.147V3.78h1.981v1.2H33.928V6.907h-1.2V4.979H30.8Z" transform="translate(-12.66 -0.6)"/>
  </g>
</svg>
