<svg xmlns="http://www.w3.org/2000/svg" width="83.015" height="54.795" viewBox="0 0 83.015 54.795">
  <path id="twenty-percentage-discount" d="M77.08,65.227a22.974,22.974,0,0,1,2.36-8.166,39.637,39.637,0,0,1,6.113-8.131,46.986,46.986,0,0,0,5.968-7.655,15.779,15.779,0,0,0,2.106-6.153q.308-2.779-.465-3.724a2.516,2.516,0,0,0-2.5-.681q-3.514.535-3.987,4.8l-.513,4.634-6.41.98.465-4.2a14.659,14.659,0,0,1,3.483-8.46,12.775,12.775,0,0,1,7.831-3.959q4.93-.753,7.207,1.663t1.694,7.667A20.918,20.918,0,0,1,97.7,41.851a55.293,55.293,0,0,1-7.46,9.644,38.232,38.232,0,0,0-4.648,5.842,11.209,11.209,0,0,0-1.524,4.453l-.1.927L96.842,60.75l-.685,6.179-19.6,2.993Zm33.984.032q-4.993.763-7.326-1.675t-1.76-7.627L104.5,33.218a14.5,14.5,0,0,1,3.54-8.437A13.056,13.056,0,0,1,116,20.771q4.993-.763,7.326,1.675t1.76,7.627l-2.523,22.739a14.5,14.5,0,0,1-3.54,8.437A13.056,13.056,0,0,1,111.064,65.259ZM152.6,15.788l4.314-.66-21.5,45.8-4.314.658ZM151,59.159q-3.206.489-4.67-1.048t-1.1-4.875l1.2-10.813a9.285,9.285,0,0,1,2.233-5.382,8.29,8.29,0,0,1,5.068-2.536q3.2-.489,4.67,1.048t1.1,4.875l-1.2,10.813a9.265,9.265,0,0,1-2.233,5.382A8.282,8.282,0,0,1,151,59.159Zm-39.25-.079q3.512-.535,3.985-4.8l2.619-23.6q.473-4.265-3.041-3.727t-3.985,4.8l-2.619,23.6Q108.236,59.618,111.75,59.08Zm39.681-3.814q2.22-.338,2.52-3.058l1.269-11.432q.3-2.719-1.918-2.38t-2.52,3.058l-1.267,11.432Q149.214,55.606,151.431,55.266ZM134.279,42.214q-3.2.491-4.67-1.048t-1.094-4.874l1.2-10.813a9.276,9.276,0,0,1,2.233-5.384,8.306,8.306,0,0,1,5.067-2.536q3.206-.489,4.671,1.049t1.094,4.874l-1.2,10.813a9.267,9.267,0,0,1-2.233,5.382A8.29,8.29,0,0,1,134.279,42.214Zm.433-3.892q2.218-.338,2.52-3.058l1.269-11.43q.3-2.719-1.918-2.38t-2.52,3.056l-1.269,11.432Q132.493,38.661,134.712,38.321Z" transform="translate(-76.559 -15.128)" fill="#c701b8"/>
</svg>
