<svg xmlns="http://www.w3.org/2000/svg" viewBox="0 0 24 24"><path fill="#27b2ac" d="M22 14.998V18c0 2.206-1.794 4-4 4H6c-2.206 0-4-1.794-4-4v-3.002c0-1.577.925-2.931 2.254-3.582 1.227 3.081 4.233 5.266 7.746 5.266s6.519-2.186 7.746-5.266c1.329.651 2.254 2.005 2.254 3.582zm-3.659-6.657c0 3.497-2.844 6.341-6.341 6.341s-6.341-2.845-6.341-6.341S8.503 2 12 2s6.341 2.845 6.341 6.341zm-2.816-.105a1 1 0 0 0-1-1H13V5.711a1 1 0 0 0-2 0v1.525H9.475a1 1 0 0 0 0 2H11v1.525a1 1 0 0 0 2 0V9.236h1.525a1 1 0 0 0 1-1z" class="color000000 svgShape"/></svg>