<svg width="22" height="22" viewBox="0 0 22 22" fill="none" xmlns="http://www.w3.org/2000/svg">
<g clip-path="url(#clip0_460_647)">
<path d="M20.9438 14.8083C21.4031 13.5919 21.647 12.3216 21.647 11.0239C21.647 5.21215 16.9165 0.454102 11.0772 0.454102C5.23792 0.455157 0.507446 5.21215 0.507446 11.0239C0.507446 14.2401 1.94032 17.1059 4.21046 19.0519C4.23792 19.0794 4.26432 19.1058 4.31817 19.1332C6.15651 20.6474 8.50802 21.5935 11.076 21.5935C12.455 21.5935 13.8067 21.3232 15.0769 20.81C15.8065 21.4319 16.7526 21.81 17.8076 21.81C20.1327 21.81 21.9974 19.9178 21.9974 17.6201C21.9974 16.5389 21.5921 15.5378 20.9438 14.8083ZM1.48122 11.0239C1.48122 5.72629 5.80623 1.42777 11.0773 1.42777C16.3484 1.42777 20.6734 5.7252 20.6734 11.0239C20.6734 12.0777 20.5108 13.1325 20.1603 14.1325C20.1328 14.1325 20.1328 14.105 20.1064 14.105C20.0251 14.0512 19.9438 13.9973 19.8636 13.9424C19.8361 13.915 19.7823 13.8886 19.7559 13.8886C19.6746 13.8611 19.6207 13.8073 19.5394 13.7809C19.512 13.7534 19.4581 13.7534 19.4317 13.727C19.3504 13.6996 19.2427 13.6457 19.1614 13.6193C19.1339 13.6193 19.1075 13.5919 19.1075 13.5919C18.9998 13.5644 18.8647 13.538 18.7559 13.5105C18.7285 13.5105 18.6746 13.4831 18.6482 13.4831C18.5669 13.4556 18.4592 13.4556 18.3779 13.4292H18.2702C18.135 13.4292 18.0273 13.4018 17.8922 13.4018C17.1626 13.4018 16.4868 13.5908 15.9187 13.8886C15.4858 13.4831 15.0264 13.1315 14.4858 12.8612C15.0539 12.1579 15.3781 11.2667 15.3781 10.2932C15.3781 7.96807 13.4859 6.10334 11.1882 6.10334C8.88739 6.1044 6.88753 7.96912 6.88753 10.2943C6.88753 11.2678 7.21169 12.159 7.77978 12.8897C5.26565 14.2677 4.48223 16.4303 4.21192 17.7005C2.53514 15.9709 1.48122 13.6192 1.48122 11.0239ZM7.86115 10.2942C7.86115 8.50975 9.32041 7.07807 11.0773 7.07807C12.8343 7.07807 14.2935 8.53732 14.2935 10.2942C14.2935 12.0512 12.8343 13.5104 11.0773 13.5104C9.32041 13.5104 7.86115 12.0786 7.86115 10.2942ZM11.0773 20.5937C8.80714 20.5937 6.72475 19.8102 5.07665 18.4851C5.13051 17.7016 5.56343 15.0786 8.48314 13.5919C9.18638 14.1599 10.105 14.4841 11.0786 14.4841C12.0521 14.4841 12.9708 14.1325 13.674 13.5919C14.1608 13.8347 14.6201 14.1325 15.0256 14.4841C14.1608 15.2412 13.6202 16.3763 13.6202 17.5927C13.6202 17.7279 13.6202 17.863 13.6476 17.9707V18.0784C13.6476 18.1861 13.6751 18.2674 13.7015 18.3762C13.7015 18.4036 13.7015 18.43 13.7289 18.4575C13.7828 18.7278 13.8641 18.9707 13.9718 19.2146C14.0256 19.3223 14.0795 19.4574 14.1344 19.5662C14.1344 19.5662 14.1344 19.5937 14.1618 19.5937C14.2157 19.7014 14.297 19.8101 14.3509 19.9178V19.9453C14.3783 19.9727 14.3783 19.9991 14.4047 19.9991C13.3213 20.4035 12.2125 20.5937 11.0773 20.5937ZM17.8076 20.8366C16.267 20.8366 14.9693 19.7553 14.6714 18.2961V18.2686C14.644 18.1873 14.644 18.106 14.644 17.9983V17.9444C14.644 17.8367 14.6165 17.728 14.6165 17.6203C14.6165 15.8358 16.0494 14.4041 17.8327 14.4041C17.9404 14.4041 18.0492 14.4041 18.1568 14.4316C18.2107 14.4316 18.2382 14.4316 18.292 14.459C18.3459 14.459 18.4272 14.4865 18.481 14.4865C18.5349 14.4865 18.5887 14.5139 18.6436 14.5139C18.6975 14.5139 18.7513 14.5414 18.7788 14.5414C18.8326 14.5688 18.8865 14.5688 18.9414 14.5952C18.9952 14.6227 19.0227 14.6227 19.0765 14.6491C19.1304 14.6765 19.1842 14.7029 19.2392 14.7304C19.2666 14.7578 19.3205 14.7578 19.3469 14.7842C19.4007 14.8117 19.4546 14.8655 19.5359 14.8919C19.5633 14.9194 19.5897 14.9194 19.6172 14.9458C19.671 14.9996 19.7523 15.0271 19.8062 15.0809C19.8336 15.1084 19.8336 15.1084 19.86 15.1348C19.9139 15.1886 19.9952 15.2425 20.049 15.2974C20.6974 15.8919 21.0764 16.7303 21.0764 17.6489C21.0247 19.3774 19.5921 20.8366 17.8076 20.8366ZM19.6459 17.5928C19.6459 17.8631 19.4295 18.0796 19.1591 18.0796H18.2944V18.9444C18.2944 19.2147 18.0779 19.4312 17.8076 19.4312C17.5373 19.4312 17.3208 19.2147 17.3208 18.9444V18.0796H16.456C16.1857 18.0796 15.9692 17.8631 15.9692 17.5928C15.9692 17.3225 16.1857 17.106 16.456 17.106H17.3208V16.2413C17.3208 15.9709 17.5373 15.7545 17.8076 15.7545C18.0779 15.7545 18.2944 15.9709 18.2944 16.2413V17.106H19.1591C19.4295 17.106 19.6459 17.3225 19.6459 17.5928Z" fill="black" style="fill:black;fill-opacity:1;"/>
</g>
<defs>
<clipPath id="clip0_460_647">
<rect width="22" height="22" fill="white" style="fill:white;fill-opacity:1;"/>
</clipPath>
</defs>
</svg>
