<svg xmlns="http://www.w3.org/2000/svg" width="99.104" height="99.077" viewBox="0 0 99.104 99.077">
  <g id="star_1_" data-name="star (1)" transform="translate(-1.044 -1.056)">
    <path id="Path_7351" data-name="Path 7351" d="M58.554,68.388c-5.881,4.268-14.6-6.122-21.869-6.125s-16,10.368-21.875,6.094,1.31-15.778-.93-22.693S-.928,33.652,1.321,26.744s15.413-3.629,21.292-7.9S29.468,1.053,36.732,1.056s8.212,13.535,14.09,17.813S69.861,19.883,72.1,26.794s-10.334,12-12.583,18.908,4.917,18.421-.967,22.686Z" transform="translate(0.019 0)" fill="#a8d0ff"/>
    <path id="Path_7352" data-name="Path 7352" d="M71.112,83.034c-6.5,4.718-16.143-6.771-24.181-6.774S29.24,87.727,22.744,83s1.448-17.448-1.03-25.089S5.343,44.625,7.83,36.987s17.042-4.016,23.544-8.733S38.95,8.579,46.984,8.585s9.08,14.964,15.579,19.694S83.617,29.4,86.095,37.047s-11.426,13.26-13.916,20.9S77.617,78.316,71.112,83.034Z" transform="translate(13.757 15.962)" fill="#00a1ff"/>
    <path id="Path_7353" data-name="Path 7353" d="M10.361,81.448c-1.332.031-1.941,5.4-2.933,6.387s-6.381,1.613-6.384,2.952,5.4,1.969,6.387,2.955,1.613,6.387,2.955,6.384,2.028-5.466,2.952-6.387,6.384-1.61,6.387-2.952-5.429-2-6.387-2.952-1.613-6.384-2.952-6.387h-.025ZM90.785,1.058c-1.332.031-1.941,5.4-2.933,6.387S81.471,9.058,81.468,10.4s5.4,1.969,6.387,2.955,1.613,6.387,2.952,6.387,2.034-5.47,2.955-6.387,6.384-1.613,6.387-2.955-5.429-2-6.387-2.952-1.613-6.384-2.955-6.387h-.022Z" transform="translate(0 0.004)" fill="#06f"/>
  </g>
</svg>
