<svg xmlns="http://www.w3.org/2000/svg" width="18.77" height="25" viewBox="0 0 18.77 25">
  <path id="fire" d="M21.77,14.7c-.313-3.754-1.981-6.048-3.545-8.133S15.513,2.919,15.513.52c0-.209-.1-.417-.313-.417a.465.465,0,0,0-.521,0,13.529,13.529,0,0,0-4.9,7.091,28.51,28.51,0,0,0-.521,5.214c-2.086-.417-2.607-3.65-2.607-3.65,0-.209-.313-.417-.626-.417h-.1c-.1.1-2.711,1.46-2.92,6.778v.521a9.385,9.385,0,0,0,18.77,0ZM9.257,20.645v-.209a4.323,4.323,0,0,1,.313-1.668,1.918,1.918,0,0,0,1.773,1.251.493.493,0,0,0,.521-.521,9.337,9.337,0,0,1,.209-2.4,4.537,4.537,0,0,1,1.043-1.981A7.211,7.211,0,0,0,14.157,17.1a6.351,6.351,0,0,1,1.356,3.233v.313a3.321,3.321,0,0,1-3.128,3.337A3.248,3.248,0,0,1,9.257,20.645Z" transform="translate(-3 -0.025)" fill="#959595"/>
</svg>
