<svg xmlns="http://www.w3.org/2000/svg" xmlns:xlink="http://www.w3.org/1999/xlink" width="25.231" height="25.231" viewBox="0 0 25.231 25.231">
  <defs>
    <linearGradient id="linear-gradient" x1="-0.062" y1="0.287" x2="1.356" y2="0.781" gradientUnits="objectBoundingBox">
      <stop offset="0" stop-color="#c1001e"/>
      <stop offset="1" stop-color="#fff"/>
    </linearGradient>
  </defs>
  <path id="plus_1_" data-name="plus (1)" d="M13.116.5A12.616,12.616,0,1,0,25.731,13.116,12.61,12.61,0,0,0,13.116.5ZM18.68,14.112H14.112V18.68a1,1,0,1,1-1.992,0V14.112H7.552a1,1,0,1,1,0-1.992H12.12V7.552a1,1,0,0,1,1.992,0V12.12H18.68a1,1,0,1,1,0,1.992Z" transform="translate(-0.5 -0.5)" fill="url(#linear-gradient)"/>
</svg>
