<svg xmlns="http://www.w3.org/2000/svg" width="25" height="25" viewBox="0 0 25 25">
  <path id="bullseye" d="M144.667,140.5a4.168,4.168,0,1,1-1.221-2.946A4.014,4.014,0,0,1,144.667,140.5Zm2.083,0a6.252,6.252,0,1,0-1.831,4.419A6.022,6.022,0,0,0,146.75,140.5Zm2.083,0a8.335,8.335,0,1,1-2.441-5.892A8.029,8.029,0,0,1,148.833,140.5Zm2.083,0a10.126,10.126,0,0,0-.83-4.045,10.273,10.273,0,0,0-5.542-5.542,10.269,10.269,0,0,0-8.089,0,10.273,10.273,0,0,0-5.542,5.542,10.269,10.269,0,0,0,0,8.089,10.273,10.273,0,0,0,5.542,5.542,10.269,10.269,0,0,0,8.089,0,10.272,10.272,0,0,0,5.542-5.542A10.125,10.125,0,0,0,150.917,140.5Zm2.083,0a12.228,12.228,0,0,1-1.676,6.274,12.445,12.445,0,0,1-4.549,4.549,12.58,12.58,0,0,1-12.549,0,12.445,12.445,0,0,1-4.549-4.549,12.58,12.58,0,0,1,0-12.549,12.444,12.444,0,0,1,4.549-4.549,12.58,12.58,0,0,1,12.549,0,12.445,12.445,0,0,1,4.549,4.549A12.228,12.228,0,0,1,153,140.5Z" transform="translate(-128 -128)" fill="#959595"/>
</svg>
