<svg id="bell" xmlns="http://www.w3.org/2000/svg" width="25" height="25" viewBox="0 0 25 25">
  <rect id="Rectangle_1533" data-name="Rectangle 1533" width="1" height="25" fill="#fff" opacity="0"/>
  <rect id="Rectangle_1534" data-name="Rectangle 1534" width="1" height="25" transform="translate(25 24) rotate(90)" fill="#fff" opacity="0"/>
  <path id="Path_6139" data-name="Path 6139" d="M21.463,16.255a2.556,2.556,0,0,1-1.342-2.249V8.989a8.045,8.045,0,0,0-5.743-7.733A6.393,6.393,0,0,0,12.5,1.009a6.353,6.353,0,0,0-1.871.247,8.1,8.1,0,0,0-5.8,7.736v5.023A2.556,2.556,0,0,1,3.5,16.26L1,17.622V20.18H24V17.624ZM9.944,21.74a2.417,2.417,0,0,0,2.556,2.25,2.416,2.416,0,0,0,2.556-2.25v-.282H9.944Z" transform="translate(0 0)" fill="#959595"/>
</svg>
