<svg xmlns="http://www.w3.org/2000/svg" xmlns:xlink="http://www.w3.org/1999/xlink" width="76.801" height="92.162" viewBox="0 0 76.801 92.162">
  <defs>
    <linearGradient id="linear-gradient" x1="-0.665" y1="-0.012" x2="-0.164" y2="0.545" gradientUnits="objectBoundingBox">
      <stop offset="0" stop-color="#0cc8ef"/>
      <stop offset="1" stop-color="#047afa"/>
    </linearGradient>
    <linearGradient id="linear-gradient-2" x1="0.725" y1="0.483" x2="0.06" y2="-0.062" gradientUnits="objectBoundingBox">
      <stop offset="0" stop-color="#d90947"/>
      <stop offset="1" stop-color="#ff585b"/>
    </linearGradient>
    <linearGradient id="linear-gradient-3" x1="0.5" y1="0.8" x2="0.5" y2="0.018" gradientUnits="objectBoundingBox">
      <stop offset="0" stop-color="#c94a45"/>
      <stop offset="1" stop-color="#dd9379"/>
    </linearGradient>
    <linearGradient id="linear-gradient-4" x1="0.301" y1="0.58" x2="0.301" y2="-0.026" xlink:href="#linear-gradient-3"/>
    <linearGradient id="linear-gradient-5" x1="0.5" y1="1" x2="0.5" y2="0" xlink:href="#linear-gradient-3"/>
  </defs>
  <g id="Group_6582" data-name="Group 6582" transform="translate(5009.202 18410.529)">
    <g id="Group_6579" data-name="Group 6579" transform="translate(63.012 64.757)">
      <g id="bronze-medal" transform="translate(-5072.214 -18475.285)">
        <path id="Path_7400" data-name="Path 7400" d="M18.446,41.161,16.138,29.077l2.308-13.985L30.007,3.534A8.508,8.508,0,0,1,35.7,1.058H53.684a3,3,0,0,1,3.164,3v2a5.436,5.436,0,0,1-1.91,4.583L18.446,47.138Z" transform="translate(19.954 -1.055)" fill="url(#linear-gradient)"/>
        <path id="Path_7401" data-name="Path 7401" d="M42.1,41.163V15.1L30.545,3.533a8.508,8.508,0,0,0-5.689-2.476H6.868a3,3,0,0,0-3.164,3v2a5.436,5.436,0,0,0,1.91,4.583L42.1,47.137Z" transform="translate(-3.704 -1.057)" fill="url(#linear-gradient-2)"/>
        <path id="Path_7402" data-name="Path 7402" d="M20.512,4.93c2.154,0,3.524,1.765,3.89,3.89l1.533,8.926c.366,2.122-11.213,2.122-10.847,0l1.538-8.929c.363-2.122,1.733-3.89,3.887-3.89Z" transform="translate(17.937 6.306)" fill="url(#linear-gradient-3)"/>
        <path id="Path_7403" data-name="Path 7403" d="M46.712,18.7S45,35.061,42.874,35.061h-28.3c-2.125,0-3.837-16.356-3.837-16.356,0-13.454,35.978-14.571,35.978,0Z" transform="translate(9.675 12.516)" fill="url(#linear-gradient-4)"/>
        <path id="Path_7404" data-name="Path 7404" d="M37.257,11.443A31.008,31.008,0,1,1,6.251,42.452,31.009,31.009,0,0,1,37.257,11.443Z" transform="translate(1.142 18.704)" fill="url(#linear-gradient-5)"/>
        <path id="Path_7405" data-name="Path 7405" d="M32.172,13.579l.035.766,1.515-.017.009-.766Zm3.907.131-.107.76,1.509.226.122-.755Zm-6.235.075-1.538.261.148.755,1.5-.258Zm10.055.673-.221.737,1.457.453.238-.731Zm-13.872.154-1.463.493.255.726,1.446-.488ZM43.55,15.8l-.319.7,1.358.676.357-.682ZM22.4,16.029l-1.379.72.377.676,1.341-.705Zm24.559,1.66-.435.63,1.248.885.453-.618ZM19.031,18l-1.237.923.464.612,1.225-.917Zm30.995,2.1-.522.563,1.083,1.059.554-.537Zm-34,.377-1.088,1.109.56.522,1.065-1.083Zm36.661,2.47-.6.47L53,24.636l.618-.453Zm-39.264.43-.894,1.26.63.441.888-1.248Zm41.444,2.8-.668.38.7,1.338.694-.34Zm-43.546.482-.694,1.393.7.325L12,27Zm45.2,3.057-.726.255L56.29,31.4l.726-.238Zm-46.776.511-.464,1.48.737.215.459-1.457Zm47.847,3.231-.755.145.261,1.5.76-.125Zm-48.834.54-.232,1.524.76.107.226-1.509Zm49.3,3.326-.769.029.02,1.512.766.012ZM8.37,37.857l0,1.547.772-.012-.006-1.524Zm48.811,3.248-.224,1.512.755.125.232-1.53Zm-47.833.537-.766.1.255,1.538.755-.148Zm47.116,3.176-.453,1.457.731.238.459-1.475Zm-46.332.511-.731.238a8.991,8.991,0,0,0,.493,1.463l.726-.255Zm45.041,3.045L54.5,49.732l.679.357.685-1.393ZM11.5,48.85l-.685.345.708,1.373.679-.357Zm41.862,2.821-.885,1.248.618.453.9-1.257Zm-39.97.444-.612.453.917,1.237.612-.464Zm37.639,2.54-1.054,1.088.534.552,1.089-1.12Zm-35.244.386-.552.537,1.094,1.088.54-.551Zm32.5,2.2-1.219.914.453.624,1.237-.929Zm-29.688.331-.456.618,1.26.894.435-.63ZM45.15,59.36l-1.335.708.337.691,1.379-.731Zm-23.387.261-.363.673,1.379.7.348-.685Zm19.979,1.35-1.446.493.238.729L42,61.7Zm-16.536.186-.238.726,1.475.464.221-.737Zm12.908.862-1.5.267.125.758,1.518-.27Zm-9.259.1-.122.76,1.53.232.107-.76Zm5.506.369-1.744.017-.006.769,1.785-.02Z" transform="translate(5.174 22.736)" fill="#93183b"/>
      </g>
    </g>
    <g id="_3" data-name="3" transform="translate(-4980 -18369)">
      <text id="_3-2" data-name="3" transform="translate(-4 35)" fill="#fff" font-size="45" font-family="SegoeUI, Segoe UI"><tspan x="0" y="0">3</tspan></text>
    </g>
  </g>
</svg>
