<svg id="bullseye" xmlns="http://www.w3.org/2000/svg" width="22" height="22" viewBox="0 0 22 22">
  <path id="Path_6444" data-name="Path 6444" d="M11.75,14.5a2.75,2.75,0,1,1,2.75-2.75A2.753,2.753,0,0,1,11.75,14.5Zm0-4.583a1.833,1.833,0,1,0,1.833,1.833A1.835,1.835,0,0,0,11.75,9.917Z" transform="translate(-0.75 -0.75)"/>
  <path id="Path_6445" data-name="Path 6445" d="M11,22A11,11,0,1,1,22,11,11.012,11.012,0,0,1,11,22ZM11,.917A10.083,10.083,0,1,0,21.083,11,10.1,10.1,0,0,0,11,.917Z"/>
  <path id="Path_6446" data-name="Path 6446" d="M11.333,18.667a7.333,7.333,0,1,1,7.333-7.333A7.342,7.342,0,0,1,11.333,18.667Zm0-13.75a6.417,6.417,0,1,0,6.417,6.417A6.424,6.424,0,0,0,11.333,4.917Z" transform="translate(-0.333 -0.333)"/>
</svg>
