<svg xmlns="http://www.w3.org/2000/svg" width="29.349" height="29.331" viewBox="0 0 29.349 29.331">
  <path id="phone" d="M13.216,8.064c-.382-4.394-4.966-6.55-5.16-6.638a.974.974,0,0,0-.582-.078c-5.292.878-6.088,3.958-6.12,4.086a.99.99,0,0,0,.02.54A41.754,41.754,0,0,0,9.451,20.825a30.242,30.242,0,0,0,15.665,9.557c.332.092.606.166.814.234a.99.99,0,0,0,.722-.042c.132-.06,3.248-1.528,4.01-6.316a1,1,0,0,0-.1-.612,9.487,9.487,0,0,0-6.218-4.33.977.977,0,0,0-.884.21,13.363,13.363,0,0,1-4.246,2.65c-5.7-2.786-8.88-8.132-9-9.146-.07-.57,1.236-2.572,2.738-4.2a1,1,0,0,0,.26-.766Z" transform="translate(-1.326 -1.333)" fill="#0076c1"/>
</svg>
