<svg xmlns="http://www.w3.org/2000/svg" width="22.325" height="22.318" viewBox="0 0 22.325 22.318">
  <path id="phone_2_" data-name="phone (2)" d="M19.291,23.818h-.524c-2.621-.1-6.815-2.516-10.38-6.186C4.717,13.962,2.306,9.873,2.2,7.252A4.859,4.859,0,0,1,5.242,2.115,2.792,2.792,0,0,1,6.5,1.8c1.678,0,2.411,1.678,3.145,3.46l.21.524A7.733,7.733,0,0,1,10.8,8.825a2.536,2.536,0,0,1-1.678,2.411,3.891,3.891,0,0,1-.944.21,28.628,28.628,0,0,0,2.936,3.46,29.243,29.243,0,0,0,3.355,2.936c.1-.315.1-.629.21-.839a2.41,2.41,0,0,1,2.307-1.678,8.716,8.716,0,0,1,3.145.944l.524.21a8.972,8.972,0,0,1,2.831,1.468,2.456,2.456,0,0,1,.419,2.936A4.981,4.981,0,0,1,19.291,23.818ZM6.5,2.744a3.061,3.061,0,0,0-.944.21A4.1,4.1,0,0,0,3.04,7.042c.1,2.411,2.516,6.4,5.976,9.855s7.444,5.871,9.855,5.976h.419a3.9,3.9,0,0,0,3.67-2.411,1.557,1.557,0,0,0-.21-1.887,6.973,6.973,0,0,0-2.516-1.258L19.815,17a8.744,8.744,0,0,0-2.726-.839c-.524,0-1.048.1-1.468,1.153-.1.419-.21.839-.315,1.363,0,.21-.1.315-.315.419a.319.319,0,0,1-.419,0,31.9,31.9,0,0,1-4.194-3.46,32.883,32.883,0,0,1-3.565-4.194c0-.1-.1-.315,0-.524,0-.1.21-.21.419-.315a2.49,2.49,0,0,0,1.258-.315C9.54,9.873,9.645,9.244,9.645,8.825A5.833,5.833,0,0,0,9.016,6.2L8.7,5.679C7.968,3.9,7.443,2.744,6.5,2.744Z" transform="translate(-2.019 -1.65)" stroke="#000" stroke-width="0.3"/>
</svg>
