<svg xmlns="http://www.w3.org/2000/svg" width="43.251" height="43.252" viewBox="0 0 43.251 43.252">
  <g id="cancel_1_" data-name="cancel (1)" transform="translate(-2.144 -2.07)">
    <path id="Path_4906" data-name="Path 4906" d="M23.763,45.322A21.615,21.615,0,1,1,39.058,39a21.556,21.556,0,0,1-15.3,6.325Zm0-39.791a18.173,18.173,0,1,0,12.847,5.323A18.045,18.045,0,0,0,23.764,5.531Z" transform="translate(0)" fill="#fff"/>
    <path id="Path_4907" data-name="Path 4907" d="M11.126,27.471A1.729,1.729,0,0,1,9.9,24.518L24.586,9.835a1.73,1.73,0,0,1,2.447,2.447L12.35,26.964a1.718,1.718,0,0,1-1.223.507Z" transform="translate(5.296 5.302)" fill="#fff"/>
    <path id="Path_4908" data-name="Path 4908" d="M25.808,27.471a1.725,1.725,0,0,1-1.223-.507L9.9,12.282a1.73,1.73,0,0,1,2.447-2.447L27.031,24.518a1.729,1.729,0,0,1-1.223,2.954Z" transform="translate(5.297 5.302)" fill="#fff"/>
  </g>
</svg>
