<svg xmlns="http://www.w3.org/2000/svg" width="45.257" height="45.257" viewBox="0 0 45.257 45.257">
  <g id="Group_6365" data-name="Group 6365" transform="translate(-21 -46.281)">
    <g id="Group_6364" data-name="Group 6364">
      <g id="cancel_6_" data-name="cancel (6)" transform="translate(19.75 45.031)">
        <circle id="Ellipse_635" data-name="Ellipse 635" cx="22.628" cy="22.628" r="22.628" transform="translate(1.25 1.25)" fill="#b2b2b2"/>
        <path id="Path_6208" data-name="Path 6208" d="M24.043,25.622a1.566,1.566,0,0,1-1.116-.463L8.192,10.424a1.579,1.579,0,0,1,2.231-2.231L25.158,22.927a1.579,1.579,0,0,1-1.116,2.694Z" transform="translate(7.203 7.203)" fill="#fff"/>
        <path id="Path_6209" data-name="Path 6209" d="M9.328,25.622a1.579,1.579,0,0,1-1.116-2.694L22.947,8.192a1.579,1.579,0,0,1,2.231,2.231L10.444,25.158a1.566,1.566,0,0,1-1.116.463Z" transform="translate(7.183 7.203)" fill="#fff"/>
      </g>
    </g>
  </g>
</svg>
