<svg xmlns="http://www.w3.org/2000/svg" width="20.5" height="21.5" viewBox="0 0 20.5 21.5">
  <path id="pasword-check" d="M11.77,19.5a.75.75,0,0,1-.75.75H7.5a12.344,12.344,0,0,1-1.767-.1C2.406,19.786,1.75,17.8,1.75,14.5v-5c0-3.3.656-5.286,4.008-5.655A12.235,12.235,0,0,1,7.5,3.75h3.46a.75.75,0,0,1,0,1.5H7.5a11.066,11.066,0,0,0-1.554.082c-2.029.225-2.7.857-2.7,4.168v5c0,3.311.667,3.943,2.672,4.165A11.14,11.14,0,0,0,7.5,18.75h3.52A.75.75,0,0,1,11.77,19.5Zm10.48-10v5c0,3.3-.656,5.286-4.008,5.655a12.235,12.235,0,0,1-1.742.095h-.75V22a.75.75,0,0,1-1.5,0V2a.75.75,0,1,1,1.5,0V3.75h.75a12.344,12.344,0,0,1,1.767.1C21.594,4.214,22.25,6.2,22.25,9.5Zm-1.5,0c0-3.311-.667-3.943-2.672-4.165A11.14,11.14,0,0,0,16.5,5.25h-.75v13.5h.75a11.066,11.066,0,0,0,1.554-.082c2.029-.225,2.7-.857,2.7-4.168ZM5.99,11.29A1.05,1.05,0,0,0,5.7,12a.986.986,0,0,0,.07.38.956.956,0,0,0,.549.54.945.945,0,0,0,.761,0,1.155,1.155,0,0,0,.33-.21,1.191,1.191,0,0,0,.21-.33,1,1,0,0,0-1.63-1.09Zm4,0A1.05,1.05,0,0,0,9.7,12a1.189,1.189,0,0,0,.07.38,1.45,1.45,0,0,0,.22.33,1.164,1.164,0,0,0,.329.21.945.945,0,0,0,.761,0,1.155,1.155,0,0,0,.33-.21,1.191,1.191,0,0,0,.21-.33,1,1,0,0,0-1.63-1.09Z" transform="translate(-1.75 -1.25)"/>
</svg>
