<svg xmlns="http://www.w3.org/2000/svg" width="25.706" height="25.664" viewBox="0 0 25.706 25.664">
  <g id="Group_6564" data-name="Group 6564" transform="translate(-67.146 -858.168)">
    <g id="translate_1_" data-name="translate (1)" transform="translate(63.146 854.122)">
      <path id="Path_6235" data-name="Path 6235" d="M20.305,12.156C19.856,1.343,4.449,1.343,4,12.156a8.141,8.141,0,0,0,1.024,3.952A9.969,9.969,0,0,1,4.257,18.1a.462.462,0,0,0,.477.661,12.478,12.478,0,0,1,2.474-.124,8.148,8.148,0,0,0,13.1-6.477ZM9.71,16.035a.458.458,0,1,1-.28-.872,5.8,5.8,0,0,0,2.093-1.193,6.94,6.94,0,0,1-1.51-3.939H9.357a.459.459,0,1,1,0-.918h2.355v-.4a.459.459,0,1,1,.918,0v.4c.578,0,1.743,0,2.318,0a.459.459,0,1,1,0,.918h-.656a6.872,6.872,0,0,1-1.5,3.934,5.72,5.72,0,0,0,2.084,1.2.462.462,0,0,1,.3.578c-.315.955-2.605-.715-3.016-1.106a6.693,6.693,0,0,1-2.447,1.4Z" transform="translate(0 0)" fill="#0076c1"/>
      <path id="Path_6236" data-name="Path 6236" d="M19.1,17.084a5.985,5.985,0,0,0,1.226,3.255,5.937,5.937,0,0,0,1.216-3.255Zm18.013,16.3c-.092-.252-.179-.523-.262-.822a8.15,8.15,0,0,0-7.129-12.1c-.251.011-.486-.063-.459.271a9.065,9.065,0,0,1-6.33,7.165,7.9,7.9,0,0,1-1.1.257c-.319-.024-.267.21-.266.459a8.163,8.163,0,0,0,8.152,8.152,8.058,8.058,0,0,0,4.944-1.675,13.761,13.761,0,0,1,2.479.124.462.462,0,0,0,.473-.661A9.637,9.637,0,0,1,37.113,33.384Zm-4.462-6.61H30.64v5.508a.459.459,0,0,1-.918,0V26.774H27.716a.459.459,0,1,1,0-.918h4.935a.459.459,0,1,1,0,.918Z" transform="translate(-8.169 -7.053)" fill="#ba00c1"/>
    </g>
  </g>
</svg>
