<svg xmlns="http://www.w3.org/2000/svg" width="31.241" height="31.189" viewBox="0 0 31.241 31.189">
  <g id="translate_1_" data-name="translate (1)" transform="translate(-4 -4.046)">
    <path id="Path_6235" data-name="Path 6235" d="M23.815,13.9C23.27.761,4.545.761,4,13.9a9.893,9.893,0,0,0,1.244,4.8,12.116,12.116,0,0,1-.932,2.415.561.561,0,0,0,.58.8A15.164,15.164,0,0,1,7.9,21.774,9.9,9.9,0,0,0,23.815,13.9ZM10.94,18.616a.557.557,0,1,1-.34-1.06,7.051,7.051,0,0,0,2.544-1.45,8.434,8.434,0,0,1-1.835-4.787h-.8a.558.558,0,1,1,0-1.116h2.862V9.718a.558.558,0,1,1,1.116,0V10.2c.7,0,2.118,0,2.817,0a.558.558,0,1,1,0,1.116h-.8A8.351,8.351,0,0,1,14.683,16.1a6.951,6.951,0,0,0,2.533,1.456.562.562,0,0,1,.363.7c-.383,1.161-3.166-.869-3.665-1.344a8.134,8.134,0,0,1-2.973,1.7Z" transform="translate(0 0)" fill="#0076c1"/>
    <path id="Path_6236" data-name="Path 6236" d="M19.1,17.084a7.274,7.274,0,0,0,1.49,3.955,7.215,7.215,0,0,0,1.478-3.955Zm21.891,19.81c-.112-.307-.218-.636-.318-1a9.905,9.905,0,0,0-8.664-14.711c-.305.013-.59-.077-.558.329a11.017,11.017,0,0,1-7.693,8.708,9.6,9.6,0,0,1-1.333.312c-.387-.03-.325.255-.324.558A9.921,9.921,0,0,0,32.009,41a9.793,9.793,0,0,0,6.008-2.036,16.724,16.724,0,0,1,3.012.151.561.561,0,0,0,.575-.8A11.711,11.711,0,0,1,40.991,36.894ZM35.568,28.86H33.125v6.694a.558.558,0,1,1-1.116,0V28.86H29.571a.558.558,0,1,1,0-1.116h6a.558.558,0,1,1,0,1.116Z" transform="translate(-6.676 -5.764)" fill="#b5b5b5"/>
  </g>
</svg>
