<svg xmlns="http://www.w3.org/2000/svg" width="23.551" height="23.41" viewBox="0 0 23.551 23.41">
  <path id="check" d="M14.333,27.091c.043.034.068.081.113.113a1.206,1.206,0,0,0,.205.081,1.514,1.514,0,0,0,.246.1,1.416,1.416,0,0,0,.25.039,1.442,1.442,0,0,0,.359,0c.049-.009.1-.021.145-.034a1.493,1.493,0,0,0,.419-.175c.024-.015.043-.032.066-.047a1.353,1.353,0,0,0,.257-.186,1.422,1.422,0,0,0,.12-.2s.006,0,.006-.006L29.27,6.339A1.5,1.5,0,1,0,26.763,4.7L14.988,23.571,8.476,17.237a1.5,1.5,0,0,0-2.032,2.2l7.834,7.622C14.293,27.071,14.314,27.076,14.333,27.091Z" transform="translate(-5.963 -4.022)" fill="#019933"/>
</svg>
