<svg xmlns="http://www.w3.org/2000/svg" width="24.055" height="22.535" viewBox="0 0 24.055 22.535">
  <path id="clip" d="M7.14,25.294A5.842,5.842,0,0,0,11.3,23.572L23.909,10.96a4.805,4.805,0,1,0-6.8-6.8L5.9,15.379a3.731,3.731,0,1,0,5.275,5.276l9.188-9.188-.716-.716-9.188,9.188a2.718,2.718,0,1,1-3.843-3.844L17.83,4.881a3.792,3.792,0,0,1,5.363,5.363L10.581,22.856A4.867,4.867,0,0,1,3.7,15.973l11.6-11.6-.716-.716-11.6,11.6A5.88,5.88,0,0,0,7.14,25.294Z" transform="translate(-1.26 -2.76)" fill="#fff"/>
</svg>
