<svg xmlns="http://www.w3.org/2000/svg" width="22.005" height="22" viewBox="0 0 22.005 22">
  <path id="cancel_9_" data-name="cancel (9)" d="M52.341,37.9A10.91,10.91,0,0,0,49.2,36.855a11.3,11.3,0,0,0-3.363-.056,11,11,0,0,0-3.169.93,10.871,10.871,0,0,0-2.812,1.894,10.976,10.976,0,0,0-3.481,9.085,11.239,11.239,0,0,0,.823,3.28,11,11,0,0,0,7.5,6.395,11.076,11.076,0,0,0,3.263.3,11.049,11.049,0,0,0,8.557-4.938,10.836,10.836,0,0,0,1.39-3.034,11.007,11.007,0,0,0-1.679-9.473,11.528,11.528,0,0,0-1.119-1.321A10.827,10.827,0,0,0,52.341,37.9Zm-.567,6.376-.014.014c-.31.321-.631.631-.946.946-.65.65-1.3,1.3-1.952,1.952-.164.164-.333.326-.5.493l0,0,0,0,.772.772q.93.93,1.862,1.857l.779.779a.7.7,0,0,1-.985.985l-.014-.014-.946-.946-1.952-1.952-.5-.5c-.257.257-.511.516-.768.772q-.93.93-1.857,1.862c-.259.259-.516.52-.777.779a.7.7,0,0,1-.988-.988L43,51.075c.315-.315.634-.629.951-.944.65-.65,1.3-1.3,1.952-1.954.164-.164.328-.333.495-.5l-.766-.766-1.86-1.86-.779-.779a.693.693,0,1,1,.981-.981l.014.014.946.946,1.952,1.952.493.493.772-.772,1.86-1.86.779-.779a.7.7,0,0,1,.983.985Z" transform="translate(-36.327 -36.7)"/>
</svg>
