<svg xmlns="http://www.w3.org/2000/svg" width="26" height="26" viewBox="0 0 26 26">
  <path id="_763483b47923653ab0d3d839a947f567" data-name="763483b47923653ab0d3d839a947f567" d="M29,16A13,13,0,1,0,42,29,13,13,0,0,0,29,16Zm8.265,11.459-4.009,2.913a.715.715,0,0,0-.259.8l1.532,4.713a.714.714,0,0,1-1.1.8l-4.009-2.913a.715.715,0,0,0-.84,0L24.57,36.686a.714.714,0,0,1-1.1-.8L25,31.175a.715.715,0,0,0-.259-.8l-4.009-2.913a.714.714,0,0,1,.42-1.292h4.956a.714.714,0,0,0,.679-.493l1.531-4.713a.714.714,0,0,1,1.359,0l1.531,4.713a.714.714,0,0,0,.679.493h4.956A.714.714,0,0,1,37.264,27.463Z" transform="translate(-15.999 -16.004)" fill="#27b2ac"/>
</svg>
