<svg id="star" xmlns="http://www.w3.org/2000/svg" width="75.393" height="75.393" viewBox="0 0 75.393 75.393">
  <path id="Path_7342" data-name="Path 7342" d="M75.129,37.96A37.194,37.194,0,0,0,37.96,75.129a.264.264,0,0,1-.527,0A37.194,37.194,0,0,0,.264,37.96a.264.264,0,1,1,0-.527A37.194,37.194,0,0,0,37.433.264a.264.264,0,1,1,.527,0A37.194,37.194,0,0,0,75.129,37.433a.264.264,0,0,1,0,.527Z" fill="#a39100"/>
  <path id="Path_7343" data-name="Path 7343" d="M103.264,10.281A10.013,10.013,0,0,0,113.281.264a.264.264,0,1,1,.527,0,10.013,10.013,0,0,0,10.017,10.017.264.264,0,0,1,0,.527,10.013,10.013,0,0,0-10.017,10.017.264.264,0,1,1-.527,0,10.013,10.013,0,0,0-10.017-10.017.264.264,0,0,1,0-.527Z" transform="translate(-48.696 0)" fill="#a39100"/>
  <path id="Path_7344" data-name="Path 7344" d="M20.5,116.645a6.84,6.84,0,0,0-6.854,6.854.264.264,0,0,1-.527,0,6.84,6.84,0,0,0-6.854-6.854.264.264,0,0,1,0-.527,6.84,6.84,0,0,0,6.854-6.854.264.264,0,0,1,.527,0,6.84,6.84,0,0,0,6.854,6.854.264.264,0,0,1,0,.527Z" transform="translate(-2.837 -51.533)" fill="#a39100"/>
</svg>
