<svg xmlns="http://www.w3.org/2000/svg" width="22" height="22.04" viewBox="0 0 22 22.04">
  <g id="moon" transform="translate(0 0.125)">
    <path id="Path_6398" data-name="Path 6398" d="M11.129,21.915A11.131,11.131,0,0,1,0,10.832,11.217,11.217,0,0,1,9.114-.114a.46.46,0,0,1,.5.229.487.487,0,0,1-.092.55A10.307,10.307,0,0,0,6.457,7.947,10.213,10.213,0,0,0,16.67,18.114a11.462,11.462,0,0,0,1.832-.137.429.429,0,0,1,.458.229.487.487,0,0,1-.092.55,10.757,10.757,0,0,1-7.74,3.16ZM7.877,1.169A10.176,10.176,0,0,0,11.129,21,10.291,10.291,0,0,0,17.22,19.03h-.55A11.063,11.063,0,0,1,7.877,1.169Zm8.2,6.045a.651.651,0,0,1-.275-.092.435.435,0,0,1-.183-.458L15.983,4.6,14.472,3.138a.465.465,0,0,1-.137-.458.444.444,0,0,1,.366-.321l2.107-.275L17.724.207a.447.447,0,0,1,.824,0l.962,1.878,2.107.275a.613.613,0,0,1,.366.321.415.415,0,0,1-.137.458L20.334,4.6,20.7,6.664a.435.435,0,0,1-.183.458.491.491,0,0,1-.5.046L18.136,6.16,16.3,7.168a.413.413,0,0,1-.229.046ZM18.136,5.2a.413.413,0,0,1,.229.046l1.282.687-.229-1.374a.369.369,0,0,1,.137-.412l.962-1.008L19.1,2.955a.467.467,0,0,1-.366-.229L18.09,1.443,17.54,2.68a.475.475,0,0,1-.366.275L15.8,3.138l1.008,1.008a.639.639,0,0,1,.137.412l-.229,1.374,1.237-.641c.046-.092.092-.092.183-.092Z" transform="translate(0 0)" fill="#010101"/>
    <path id="Path_6399" data-name="Path 6399" d="M26.3,24.525a.651.651,0,0,1-.275-.092.435.435,0,0,1-.183-.458l.275-1.511-1.1-1.053a.465.465,0,0,1-.137-.458.444.444,0,0,1,.366-.321l1.511-.229.733-1.374A.481.481,0,0,1,27.9,18.8a.44.44,0,0,1,.412.275L29,20.449l1.557.229a.444.444,0,0,1,.366.321.415.415,0,0,1-.137.458l-1.1,1.053.229,1.511a.435.435,0,0,1-.183.458.542.542,0,0,1-.458.046l-1.328-.733-1.374.733Zm1.6-1.74a.413.413,0,0,1,.229.046l.733.412-.137-.824c-.046-.137.046-.275.137-.412l.6-.6-.87-.137A.393.393,0,0,1,28.269,21L27.9,20.22,27.49,21a.344.344,0,0,1-.321.229l-.87.183.641.6a.639.639,0,0,1,.137.412l-.137.824.779-.412C27.765,22.784,27.811,22.784,27.9,22.784Z" transform="translate(-13.476 -10.258)" fill="#010101"/>
  </g>
</svg>
