<svg xmlns="http://www.w3.org/2000/svg" width="30" height="30" viewBox="0 0 30 30">
  <path id="date" d="M23,3H17V2a1,1,0,1,0-2,0V3H9V2A1,1,0,1,0,7,2V3H3.5A2.5,2.5,0,0,0,1,5.5v23A2.5,2.5,0,0,0,3.5,31h25A2.5,2.5,0,0,0,31,28.5V5.5A2.5,2.5,0,0,0,28.5,3H25V2a1,1,0,1,0-2,0Zm6,8V28.5a.5.5,0,0,1-.5.5H3.5a.5.5,0,0,1-.5-.5V11ZM8,23a1,1,0,1,1-1,1A1,1,0,0,1,8,23Zm4,0a1,1,0,1,1-1,1A1,1,0,0,1,12,23Zm4,0a1,1,0,1,1-1,1A1,1,0,0,1,16,23Zm4,0a1,1,0,1,1-1,1A1,1,0,0,1,20,23ZM8,19a1,1,0,1,1-1,1A1,1,0,0,1,8,19Zm4,0a1,1,0,1,1-1,1A1,1,0,0,1,12,19Zm4,0a1,1,0,1,1-1,1A1,1,0,0,1,16,19Zm4,0a1,1,0,1,1-1,1A1,1,0,0,1,20,19Zm4,0a1,1,0,1,1-1,1A1,1,0,0,1,24,19ZM12,15a1,1,0,1,1-1,1A1,1,0,0,1,12,15Zm4,0a1,1,0,1,1-1,1A1,1,0,0,1,16,15Zm4,0a1,1,0,1,1-1,1A1,1,0,0,1,20,15Zm4,0a1,1,0,1,1-1,1A1,1,0,0,1,24,15ZM25,5V6a1,1,0,0,1-2,0V5H17V6a1,1,0,0,1-2,0V5H9V6A1,1,0,0,1,7,6V5H3.5a.5.5,0,0,0-.5.5V9H29V5.5a.5.5,0,0,0-.5-.5Z" transform="translate(-1 -1)" fill="#fff" fill-rule="evenodd"/>
</svg>
