<svg xmlns="http://www.w3.org/2000/svg" width="21.723" height="27.775" viewBox="0 0 21.723 27.775">
  <g id="delete" transform="translate(-3.487)">
    <path id="Path_6229" data-name="Path 6229" d="M23.358,4.448H21.511V2.876A2.879,2.879,0,0,0,18.636,0H10.06A2.879,2.879,0,0,0,7.185,2.876V4.448H5.338A1.854,1.854,0,0,0,3.487,6.3v2.96a.925.925,0,0,0,.926.925h.561V25a2.78,2.78,0,0,0,2.778,2.778H20.945A2.78,2.78,0,0,0,23.722,25V10.184h.562a.925.925,0,0,0,.926-.925V6.3a1.854,1.854,0,0,0-1.851-1.851ZM9.036,2.876A1.026,1.026,0,0,1,10.06,1.851h8.576A1.026,1.026,0,0,1,19.66,2.876V4.448H9.036ZM5.338,6.3H23.358V8.333H5.338V6.3ZM21.87,25a.927.927,0,0,1-.926.926H7.751A.927.927,0,0,1,6.825,25V10.184H21.871V25Z" transform="translate(0)"/>
    <path id="Path_6230" data-name="Path 6230" d="M10.526,26.054a.926.926,0,0,0,.925-.926V14.587a.926.926,0,0,0-1.851,0V25.128a.926.926,0,0,0,.926.926Zm4.629,0a.926.926,0,0,0,.926-.926V14.587a.926.926,0,1,0-1.852,0V25.128A.926.926,0,0,0,15.155,26.054Zm4.629,0a.926.926,0,0,0,.926-.926V14.587a.926.926,0,0,0-1.851,0V25.128A.925.925,0,0,0,19.784,26.054Z" transform="translate(-0.807 -1.804)"/>
  </g>
</svg>
