<svg xmlns="http://www.w3.org/2000/svg" width="32" height="23.458" viewBox="0 0 32 23.458">
  <g id="Group_6572" data-name="Group 6572" transform="translate(-21 -433.62)">
    <g id="id-card" transform="translate(20.42 428.92)">
      <path id="Path_7373" data-name="Path 7373" d="M29.9,4.7H3.268A2.688,2.688,0,0,0,.58,7.388V25.469a2.688,2.688,0,0,0,2.688,2.688H29.9A2.688,2.688,0,0,0,32.58,25.48V7.388A2.688,2.688,0,0,0,29.9,4.7Zm.6,20.759a.6.6,0,0,1-.6.6H3.268a.6.6,0,0,1-.6-.6V7.388a.6.6,0,0,1,.6-.6H29.9a.6.6,0,0,1,.6.6Z" transform="translate(0 0)"/>
      <path id="Path_7374" data-name="Path 7374" d="M22.845,16.271a3.716,3.716,0,1,0-2.635-1.1A3.705,3.705,0,0,0,22.845,16.271Zm0-5.345a1.624,1.624,0,1,1,0-.031Zm1.194,5.345H21.62a5.19,5.19,0,0,0-5.19,5.19v3.3H29.2v-3.3a5.19,5.19,0,0,0-5.159-5.19Zm3.114,6.415H18.506V21.461a3.114,3.114,0,0,1,3.114-3.114h2.387a3.114,3.114,0,0,1,3.114,3.114ZM4.67,9.888h7.484v2.076H4.67Zm0,4.276h7.484V16.24H4.67Zm0,4.276h7.484v2.076H4.67Zm0,4.276h7.484v2.076H4.67Z" transform="translate(0.155 0.158)"/>
    </g>
  </g>
</svg>
