<svg xmlns="http://www.w3.org/2000/svg" width="22" height="18.94" viewBox="0 0 22 18.94">
  <g id="downloads-folder" transform="translate(-4 -8)">
    <path id="Path_6392" data-name="Path 6392" d="M24.35,11.551H14.744L13.361,9.318A2.7,2.7,0,0,0,11.073,8H6.75A2.864,2.864,0,0,0,4,10.959V23.98A2.864,2.864,0,0,0,6.75,26.94h16.5A2.864,2.864,0,0,0,26,23.98V13.327a1.718,1.718,0,0,0-1.65-1.776ZM24.9,23.98a1.718,1.718,0,0,1-1.65,1.776H6.75A1.718,1.718,0,0,1,5.1,23.98V10.959A1.718,1.718,0,0,1,6.75,9.184h4.323a1.621,1.621,0,0,1,1.373.791l1.547,2.5a.541.541,0,0,0,.458.263h9.9a.572.572,0,0,1,.55.592Z" transform="translate(0 0)"/>
    <path id="Path_6393" data-name="Path 6393" d="M24.452,26.313l-.862,1.149V21.718a.718.718,0,1,0-1.436,0v5.744l-.862-1.149a.718.718,0,1,0-1.149.862L22.3,30.047a.717.717,0,0,0,1.149,0L25.6,27.175a.718.718,0,1,0-1.149-.862Z" transform="translate(-7.872 -6.428)"/>
  </g>
</svg>
