<svg xmlns="http://www.w3.org/2000/svg" width="34.71" height="24.746" viewBox="0 0 34.71 24.746">
  <path id="email" d="M30.192,9.19H4.524A4.533,4.533,0,0,0,0,13.719V29.412a4.528,4.528,0,0,0,4.524,4.524H30.186a4.528,4.528,0,0,0,4.524-4.524V13.719A4.525,4.525,0,0,0,30.192,9.19ZM4.524,10.551H30.186a3.115,3.115,0,0,1,1.633.466L17.358,24.557,2.9,11.013A3.142,3.142,0,0,1,4.524,10.551ZM1.356,29.406V13.719A3.171,3.171,0,0,1,1.9,11.946L14.868,24.09l-.651-.613L2.191,31.533A3.144,3.144,0,0,1,1.356,29.406Zm28.835,3.168H4.524A3.116,3.116,0,0,1,3.4,32.357l11.836-7.93,1.584,1.481h0a.781.781,0,0,0,.542.222.758.758,0,0,0,.537-.222h0l1.584-1.481,11.836,7.93A3.087,3.087,0,0,1,30.192,32.574Zm3.168-3.168a3.144,3.144,0,0,1-.835,2.126L20.5,23.478,32.817,11.946a3.158,3.158,0,0,1,.542,1.774Z" transform="translate(0 -9.19)" fill="#fff"/>
</svg>
