<svg xmlns="http://www.w3.org/2000/svg" width="22" height="15.677" viewBox="0 0 22 15.677">
  <g id="email" transform="translate(-2.08 -10.68)">
    <path id="Path_6420" data-name="Path 6420" d="M20.955,26.357H5.205A3.129,3.129,0,0,1,2.08,23.232V13.805A3.129,3.129,0,0,1,5.205,10.68h15.75a3.129,3.129,0,0,1,3.125,3.125v9.427A3.129,3.129,0,0,1,20.955,26.357ZM5.205,11.783a2.022,2.022,0,0,0-2.022,2.022v9.427a2.022,2.022,0,0,0,2.022,2.022h15.75a2.022,2.022,0,0,0,2.022-2.022V13.805a2.022,2.022,0,0,0-2.022-2.022Z" fill="#222"/>
    <path id="Path_6421" data-name="Path 6421" d="M13.587,24.106a3.129,3.129,0,0,1-1.886-.629L3.116,16.985a.551.551,0,1,1,.665-.879l8.585,6.5a2.04,2.04,0,0,0,2.441,0l8.585-6.5a.551.551,0,1,1,.665.879l-8.585,6.493a3.129,3.129,0,0,1-1.886.629Z" transform="translate(-0.507 -3.353)" fill="#222"/>
    <path id="Path_6422" data-name="Path 6422" d="M3.22,36.865a.551.551,0,0,1-.368-.963l6.765-6.033a.552.552,0,1,1,.735.824L3.588,36.725A.537.537,0,0,1,3.22,36.865Zm20.463,0a.537.537,0,0,1-.368-.14l-6.765-6.033a.552.552,0,1,1,.735-.824L24.047,35.9a.551.551,0,0,1-.368.963Z" transform="translate(-0.372 -12.045)" fill="#222"/>
  </g>
</svg>
