<svg xmlns="http://www.w3.org/2000/svg" xmlns:xlink="http://www.w3.org/1999/xlink" width="24" height="24" viewBox="0 0 24 24">
  <defs>
    <clipPath id="clip-path">
      <rect id="Rectangle_1795" data-name="Rectangle 1795" width="24" height="24" transform="translate(0 0.983)" fill="#fff"/>
    </clipPath>
  </defs>
  <g id="clear-call_2_" data-name="clear-call (2)" transform="translate(0 -0.983)" clip-path="url(#clip-path)">
    <path id="Path_6307" data-name="Path 6307" d="M18.535,17.523a10.844,10.844,0,0,1-3.408-.543,1.525,1.525,0,0,0-1.483.314l-2.158,1.629a12.048,12.048,0,0,1-5.362-5.361l1.585-2.105a1.51,1.51,0,0,0,.371-1.53,10.891,10.891,0,0,1-.545-3.414,1.5,1.5,0,0,0-1.5-1.5h-3.5a1.5,1.5,0,0,0-1.5,1.5,17.521,17.521,0,0,0,17.5,17.5,1.5,1.5,0,0,0,1.5-1.5v-3.49A1.5,1.5,0,0,0,18.535,17.523Zm-1.07-15.57a5.5,5.5,0,1,0,5.5,5.5A5.506,5.506,0,0,0,17.465,1.953Zm2.354,7.853a.5.5,0,0,1-.708,0L17.465,8.16,15.819,9.806a.5.5,0,1,1-.708-.707l1.646-1.646L15.111,5.807a.5.5,0,0,1,.707-.707l1.646,1.646L19.11,5.1a.5.5,0,0,1,.707.707L18.172,7.453,19.819,9.1A.5.5,0,0,1,19.819,9.806Z" fill="#fff"/>
  </g>
</svg>
