<svg xmlns="http://www.w3.org/2000/svg" width="28.296" height="21.222" viewBox="0 0 28.296 21.222">
  <g id="Group_6570" data-name="Group 6570" transform="translate(-152.853 -402.389)">
    <g id="Group_6569" data-name="Group 6569">
      <g id="Group_6568" data-name="Group 6568">
        <g id="Group_6567" data-name="Group 6567">
          <g id="Group_6566" data-name="Group 6566">
            <g id="Group_6565" data-name="Group 6565">
              <g id="Group_6564" data-name="Group 6564">
                <path id="video_5_" data-name="video (5)" d="M7.819,4.5h8.194a5.531,5.531,0,0,1,5.819,5.744v9.734a5.53,5.53,0,0,1-5.819,5.744H7.819A5.531,5.531,0,0,1,2,19.978V10.244A5.532,5.532,0,0,1,7.819,4.5ZM27.407,7.866a1.957,1.957,0,0,1,1.943.091A2.024,2.024,0,0,1,30.3,9.682V20.541a2.024,2.024,0,0,1-.946,1.726,1.959,1.959,0,0,1-1.944.089L25.31,21.3a2.3,2.3,0,0,1-1.256-2.061V10.984a2.29,2.29,0,0,1,1.256-2.06l2.1-1.058Z" transform="translate(150.853 397.889)" fill="#fff" fill-rule="evenodd"/>
              </g>
            </g>
          </g>
        </g>
      </g>
    </g>
    <path id="cancel_9_" data-name="cancel (9)" d="M44.779,37.331a5.758,5.758,0,0,0-1.658-.549,5.966,5.966,0,0,0-1.775-.029,5.806,5.806,0,0,0-1.672.491,5.737,5.737,0,0,0-1.484,1,5.793,5.793,0,0,0-1.837,4.795,5.932,5.932,0,0,0,.435,1.731,5.805,5.805,0,0,0,3.96,3.375,5.845,5.845,0,0,0,1.722.157A5.831,5.831,0,0,0,46.986,45.7a5.719,5.719,0,0,0,.734-1.6,5.809,5.809,0,0,0-.886-5,6.084,6.084,0,0,0-.591-.7,5.714,5.714,0,0,0-1.464-1.066Zm-.3,3.365-.007.007c-.164.17-.333.333-.5.5-.343.343-.688.686-1.03,1.03-.087.087-.176.172-.264.26h0l0,0,.408.408q.491.491.983.98l.411.411a.368.368,0,0,1-.52.52l-.007-.007-.5-.5-1.03-1.03-.266-.266-.405.408-.98.983c-.137.137-.272.275-.41.411a.369.369,0,0,1-.521-.521l.007-.007c.166-.166.334-.332.5-.5.343-.343.686-.688,1.03-1.031.087-.087.173-.176.261-.262l-.4-.4-.981-.981-.411-.411a.366.366,0,0,1,.518-.518l.007.007.5.5,1.03,1.03.26.26.408-.408.981-.981.411-.411a.367.367,0,0,1,.519.52Z" transform="translate(121.061 370.494)" fill="#b90000"/>
  </g>
</svg>
