<svg xmlns="http://www.w3.org/2000/svg" width="22" height="13.749" viewBox="0 0 22 13.749">
  <g id="eye_16_" data-name="eye (16)" transform="translate(-15.975 -106)">
    <g id="Group_6522" data-name="Group 6522" transform="translate(15.975 106)">
      <path id="Path_6434" data-name="Path 6434" d="M26.975,119.749a10.152,10.152,0,0,1-4.308-1.031,16.355,16.355,0,0,1-3.419-2.209,20.9,20.9,0,0,1-3.126-3.194.729.729,0,0,1,0-.88,20.9,20.9,0,0,1,3.126-3.194,16.356,16.356,0,0,1,3.419-2.209A10.152,10.152,0,0,1,26.975,106a10.152,10.152,0,0,1,4.308,1.031A16.356,16.356,0,0,1,34.7,109.24a20.644,20.644,0,0,1,3.126,3.194.729.729,0,0,1,0,.88,20.9,20.9,0,0,1-3.126,3.194,16.355,16.355,0,0,1-3.419,2.209A10.152,10.152,0,0,1,26.975,119.749Zm-9.322-6.874c1.15,1.361,4.95,5.408,9.322,5.408s8.171-4.047,9.322-5.408c-1.15-1.361-4.95-5.408-9.322-5.408S18.8,111.513,17.653,112.874Z" transform="translate(-15.975 -106)"/>
    </g>
    <g id="Group_6523" data-name="Group 6523" transform="translate(23.675 109.575)">
      <path id="Path_6435" data-name="Path 6435" d="M187.3,190.6a3.3,3.3,0,1,1,3.3-3.3A3.3,3.3,0,0,1,187.3,190.6Zm0-5.133a1.833,1.833,0,1,0,1.833,1.833A1.833,1.833,0,0,0,187.3,185.467Z" transform="translate(-184 -184)"/>
    </g>
  </g>
</svg>
