<svg xmlns="http://www.w3.org/2000/svg" width="57.004" height="24.546" viewBox="0 0 57.004 24.546">
  <path id="eye_13_" data-name="eye (13)" d="M56.683,7.806l-4.07-1.587a2.048,2.048,0,1,0-1.465,3.825l.651.244L46.061,14.6A27.307,27.307,0,0,1,29.5,20.34,27.306,27.306,0,0,1,12.935,14.6L7.2,10.166h.651A2.163,2.163,0,0,0,6.383,6.1L2.314,7.684a2.116,2.116,0,0,0-1.3,1.628,2.075,2.075,0,0,0,.814,1.913l8.668,6.511a34.753,34.753,0,0,0,4.8,2.971l-1.709,2.4a2.075,2.075,0,0,0,.488,2.849,2.116,2.116,0,0,0,1.18.488,1.994,1.994,0,0,0,1.668-.855l2.157-3.215a31.336,31.336,0,0,0,8.383,1.709v4.4a2.035,2.035,0,0,0,4.07,0V24.206a31.661,31.661,0,0,0,8.383-1.831l2.157,3.093a1.994,1.994,0,0,0,1.669.855,2.116,2.116,0,0,0,1.18-.366,2.075,2.075,0,0,0,.488-2.849l-1.709-2.4a34.754,34.754,0,0,0,4.8-2.971l8.668-6.511a2.075,2.075,0,0,0,.814-1.913,2.116,2.116,0,0,0-1.3-1.506Z" transform="translate(-0.996 -5.968)" fill="#1a7200"/>
</svg>
