<svg xmlns="http://www.w3.org/2000/svg" xmlns:xlink="http://www.w3.org/1999/xlink" width="62" height="62" viewBox="0 0 62 62">
  <defs>
    <linearGradient id="linear-gradient" x1="0.5" x2="0.5" y2="1" gradientUnits="objectBoundingBox">
      <stop offset="0" stop-color="#127fc3"/>
      <stop offset="1" stop-color="#fff"/>
    </linearGradient>
  </defs>
  <g id="Group_6514" data-name="Group 6514" transform="translate(-183 -348)">
    <g id="Group_6513" data-name="Group 6513">
      <g id="Group_6512" data-name="Group 6512">
        <rect id="Rectangle_1652" data-name="Rectangle 1652" width="62" height="62" rx="16" transform="translate(183 348)" fill="url(#linear-gradient)"/>
      </g>
    </g>
    <g id="rounded-cloud" transform="translate(192.329 359.18)">
      <path id="Path_4298" data-name="Path 4298" d="M23.469,66.006a13.218,13.218,0,0,1-9.694-4.4,6.387,6.387,0,0,1-2.733.621c-3.8,0-6.9-3.406-6.9-7.593a8.191,8.191,0,0,1,.115-1.355A11.937,11.937,0,0,1,0,44c0-5.789,3.971-10.7,9.138-11.443a8.793,8.793,0,0,1,8.187-6.188,8.682,8.682,0,0,1,7.666,4.973,9.624,9.624,0,0,1,3.441-.634c5.821,0,10.556,5.21,10.556,11.614,0,.269-.011.542-.032.832a7.635,7.635,0,0,1,4.387,7.065c0,4.446-3.517,8.009-7.612,7.552A13.752,13.752,0,0,1,23.469,66.006Z" transform="translate(0 -26.364)" fill="#fff"/>
    </g>
    <g id="fuego" transform="translate(204.508 364.656)">
      <path id="Path_4297" data-name="Path 4297" d="M119.756,30.329a.327.327,0,0,0,.428-.466,7.509,7.509,0,0,1-.432-7.441c2.48-5.545,3.99-8.417,3.99-8.417a19.964,19.964,0,0,0,2.979,6.331c2.094,2.868,3.241,6.475,1.393,9.48a.327.327,0,0,0,.427.464,9.273,9.273,0,0,0,5.143-8.189,15.982,15.982,0,0,0-.854-5.947,11.641,11.641,0,0,0-3.027-5.328.328.328,0,0,0-.542.269c.213,3.449-1.084,4.324-1.822,2.351a12.069,12.069,0,0,1-.467-3.809A13.026,13.026,0,0,0,124.4,1.71,8.966,8.966,0,0,0,122.79.069a.327.327,0,0,0-.527.283c.136,1.873.013,7.239-4.7,13.651-4.269,5.947-2.615,10.515-2.028,11.752A9.682,9.682,0,0,0,119.756,30.329Z" transform="translate(-114.73 0.001)" fill="#da270f"/>
    </g>
  </g>
</svg>
