<svg xmlns="http://www.w3.org/2000/svg" width="26.562" height="21.643" viewBox="0 0 26.562 21.643">
  <g id="camera" transform="translate(-0.5 -3.37)">
    <path id="Path_6148" data-name="Path 6148" d="M22.349,6.874H21.175a.44.44,0,0,1-.36-.206l-.9-1.465a3.841,3.841,0,0,0-3.29-1.834H10.936A3.841,3.841,0,0,0,7.646,5.2l-.9,1.465a.44.44,0,0,1-.36.206H5.213A4.715,4.715,0,0,0,.5,11.587V20.3a4.721,4.721,0,0,0,4.713,4.713H22.349A4.721,4.721,0,0,0,27.062,20.3V11.587A4.715,4.715,0,0,0,22.349,6.874ZM13.781,21.166A5.569,5.569,0,1,1,19.35,15.6,5.58,5.58,0,0,1,13.781,21.166Z" transform="translate(0 0)" fill="#fff"/>
    <circle id="Ellipse_602" data-name="Ellipse 602" cx="2.999" cy="2.999" r="2.999" transform="translate(10.782 12.598)" fill="#fff"/>
  </g>
</svg>
