<svg xmlns="http://www.w3.org/2000/svg" width="24" height="22.713" viewBox="0 0 24 22.713">
  <g id="gift" transform="translate(-5.761 -170.618)">
    <path id="Path_6238" data-name="Path 6238" d="M34.913,170.618a2.765,2.765,0,0,0-1.955,4.719c1.08,1.08,3.947,2.2,5.027,1.117s-.037-3.947-1.117-5.027A2.756,2.756,0,0,0,34.913,170.618Zm8.256,0a2.756,2.756,0,0,0-1.955.81c-1.08,1.08-2.2,3.947-1.117,5.027s3.947-.037,5.027-1.117a2.765,2.765,0,0,0-1.955-4.719Z" transform="translate(-21.278)" fill="#ffa14e"/>
    <path id="Path_6239" data-name="Path 6239" d="M32.908,189.491a2.753,2.753,0,0,0,.663,1.065c1.08,1.08,3.947,2.2,5.027,1.117a2.366,2.366,0,0,0,.334-2.182Zm7.467,0a2.366,2.366,0,0,0,.334,2.182c1.08,1.08,3.947-.037,5.027-1.117a2.753,2.753,0,0,0,.663-1.065Z" transform="translate(-21.891 -15.219)" fill="#ff7377"/>
    <path id="Path_6240" data-name="Path 6240" d="M50.977,184.692h3.245v-1.778a1.278,1.278,0,0,0-1.281-1.281h-.683a1.278,1.278,0,0,0-1.281,1.281Zm3.245,0h3.245v-1.778a1.278,1.278,0,0,0-1.281-1.281H55.5a1.278,1.278,0,0,0-1.281,1.281Z" transform="translate(-36.461 -8.883)" fill="#ffd54f"/>
    <path id="Path_6241" data-name="Path 6241" d="M54.221,189.491v1.537h3.245v-1.537Zm-3.245,0v1.537h3.245v-1.537Z" transform="translate(-36.461 -15.219)" fill="#ffbb4f"/>
    <path id="Path_6242" data-name="Path 6242" d="M15.3,212.9v12.732a1.789,1.789,0,0,0,1.793,1.793H33.81a1.789,1.789,0,0,0,1.793-1.793V212.9Z" transform="translate(-7.689 -34.098)" fill="#f45558"/>
    <path id="Path_6243" data-name="Path 6243" d="M15.3,220.221v2.357H35.6v-2.357Zm0-7.318v2.357H35.6V212.9Z" transform="translate(-7.689 -34.098)" fill="#db375b"/>
    <path id="Path_6244" data-name="Path 6244" d="M7.3,196.37H28.224a1.534,1.534,0,0,1,1.537,1.537v1.152a1.534,1.534,0,0,1-1.537,1.537H7.3a1.534,1.534,0,0,1-1.537-1.537v-1.152A1.534,1.534,0,0,1,7.3,196.37Z" transform="translate(0 -20.766)" fill="#f45558"/>
    <path id="Path_6245" data-name="Path 6245" d="M59.355,196.37V214.1H62.6V196.37Z" transform="translate(-43.217 -20.766)" fill="#ffd54f"/>
    <path id="Path_6246" data-name="Path 6246" d="M59.355,250.7v2.357H62.6V250.7Z" transform="translate(-43.217 -64.572)" fill="#ffbb4f"/>
    <path id="Path_6247" data-name="Path 6247" d="M15.3,240.154V243.4H35.6v-3.245Z" transform="translate(-7.689 -56.072)" fill="#ffd54f"/>
    <path id="Path_6248" data-name="Path 6248" d="M10.848,211.845v.2h.41v-.2Zm1.025,0v.2h.41v-.2Zm1.024,0v.2h.41v-.2Zm1.025,0v.2h.41v-.2Zm1.025,0v.2h.41v-.2Zm1.024,0v.2h.41v-.2Zm1.025,0v.2h.41v-.2Zm1.025,0v.2h.41v-.2Zm1.024,0v.2h.41v-.2Zm5.124,0v.2h.41v-.2Zm1.024,0v.2h.41v-.2Zm1.025,0v.2h.41v-.2Zm1.025,0v.2h.41v-.2Zm1.127,0v.2h.41v-.2Zm1.025,0v.2h.41v-.2Zm1.025,0v.2h.41v-.2Zm1.024,0v.2h.41v-.2Zm1.025,0v.2h.41v-.2ZM12.9,225.166v.2h.41v-.2Zm1.025,0v.2h.41v-.2Zm1.025,0v.2h.41v-.2Zm1.024,0v.2h.41v-.2Zm1.025,0v.2h.41v-.2Zm1.025,0v.2h.41v-.2Zm1.024,0v.2h.41v-.2Zm5.124,0v.2h.41v-.2Zm1.024,0v.2h.41v-.2Zm1.025,0v.2h.41v-.2Zm1.025,0v.2h.41v-.2Zm1.127,0v.2h.41v-.2Zm1.025,0v.2h.41v-.2Zm1.025,0v.2h.41v-.2Z" transform="translate(-4.103 -33.244)" fill="#db375b" fill-rule="evenodd"/>
    <path id="Path_6249" data-name="Path 6249" d="M15.3,87.475v.41H35.6v-.41Z" transform="translate(-7.689 98.322)" fill="#ffbb4f"/>
  </g>
</svg>
