<svg xmlns="http://www.w3.org/2000/svg" width="22" height="22.03" viewBox="0 0 22 22.03">
  <g id="gift_2_" data-name="gift (2)" transform="translate(-28.21 -27.591)">
    <path id="Path_6436" data-name="Path 6436" d="M48.846,279.671v2.458l.682-.682H29.733c-.268,0-.537,0-.8,0h-.034l.682.682v-2.2a3.172,3.172,0,0,1,.009-.389c-.009.061-.016.121-.025.182a1.1,1.1,0,0,1,.073-.266l-.068.164a1.311,1.311,0,0,1,.086-.157c.055-.091-.1.109-.043.055.02-.02.039-.045.059-.066s.036-.034.055-.05c.082-.08-.143.091-.043.034.052-.03.1-.061.157-.086l-.164.068a1.073,1.073,0,0,1,.266-.073l-.182.025a5.3,5.3,0,0,1,.6-.009H48.518a1.116,1.116,0,0,1,.15.009l-.182-.025a1.1,1.1,0,0,1,.266.073l-.164-.068a1.309,1.309,0,0,1,.157.086c.091.055-.109-.1-.055-.043.02.02.045.039.066.059s.034.036.05.055c.08.082-.091-.143-.034-.043.03.052.061.1.086.157l-.068-.164a1.073,1.073,0,0,1,.073.266c-.009-.061-.016-.121-.025-.182a1.228,1.228,0,0,1,.007.127.682.682,0,0,0,1.364,0A1.694,1.694,0,0,0,48.529,278h-18.6a1.718,1.718,0,0,0-1.476.8,2.678,2.678,0,0,0-.243,1.489v1.837a.692.692,0,0,0,.682.682H48.689c.268,0,.537,0,.8,0h.034a.692.692,0,0,0,.682-.682v-2.458a.682.682,0,1,0-1.364,0Z" transform="translate(0 -244.715)"/>
    <path id="Path_6437" data-name="Path 6437" d="M91.173,430.043v9.528c0,.427.007.857,0,1.285a.841.841,0,0,1-.007.107c.009-.061.016-.12.025-.182a.82.82,0,0,1-.048.177l.068-.164c-.016.036-.036.07-.057.107-.052.093.127-.136.014-.023s.116-.066.023-.014c-.036.02-.068.039-.107.057l.164-.068a.786.786,0,0,1-.177.048l.182-.025a4.686,4.686,0,0,1-.537.007h-16.1c-.221,0-.439,0-.659,0a1.061,1.061,0,0,1-.118-.007l.182.025a.82.82,0,0,1-.177-.048l.164.068c-.036-.016-.07-.036-.107-.057-.093-.052.136.127.023.014s.066.116.014.023c-.02-.036-.039-.068-.057-.107l.068.164a.786.786,0,0,1-.048-.177c.009.061.016.121.025.182a3.2,3.2,0,0,1-.007-.362v-9.218c0-.441.014-.885,0-1.326v-.018l-.682.682H91.1c.241,0,.484,0,.725,0h.03a.682.682,0,1,0,0-1.364H73.994c-.241,0-.484,0-.725,0h-.03a.692.692,0,0,0-.682.682v10.553c0,.091,0,.182,0,.275a1.4,1.4,0,0,0,1.394,1.38c.266,0,.53,0,.8,0h16.4a1.4,1.4,0,0,0,1.392-1.383c.007-.337,0-.673,0-1.01v-9.817a.69.69,0,0,0-.682-.682A.7.7,0,0,0,91.173,430.043Z" transform="translate(-43.337 -392.629)"/>
    <path id="Path_6438" data-name="Path 6438" d="M483.191,293.631V280.492c0-.6.009-1.205,0-1.808v-.025a.682.682,0,1,0-1.364,0V291.8c0,.6-.009,1.205,0,1.808v.025a.682.682,0,0,0,1.364,0Z" transform="translate(-443.298 -244.692)"/>
    <path id="Path_6439" data-name="Path 6439" d="M237.609,31.12v2.849l.682-.682H235.9a6.771,6.771,0,0,1-.832-.025l.182.025a2.857,2.857,0,0,1-.737-.2l.164.068a2.914,2.914,0,0,1-.462-.25l-.109-.077c-.075-.052.066.052.066.052s-.048-.039-.057-.048c-.068-.057-.134-.118-.2-.18s-.116-.123-.171-.186l-.048-.057c-.05-.059.1.132.052.068-.025-.036-.052-.073-.077-.109a2.979,2.979,0,0,1-.257-.473l.068.164a2.951,2.951,0,0,1-.2-.737c.009.061.016.121.025.182a3.011,3.011,0,0,1,0-.757c-.009.061-.016.121-.025.182a2.858,2.858,0,0,1,.2-.737l-.068.164a2.916,2.916,0,0,1,.25-.462c.025-.036.052-.073.077-.109.052-.075-.052.066-.052.066s.039-.048.048-.057c.057-.068.118-.134.18-.2s.123-.116.186-.171l.057-.048c.059-.05-.132.1-.068.052l.109-.077a2.979,2.979,0,0,1,.473-.257l-.164.068a2.951,2.951,0,0,1,.737-.2l-.182.025a3.014,3.014,0,0,1,.757,0l-.182-.025a2.857,2.857,0,0,1,.737.2l-.164-.068a2.917,2.917,0,0,1,.462.25l.109.077c.075.052-.066-.052-.066-.052s.048.039.057.048c.068.057.134.118.2.18s.116.123.171.186l.048.057c.05.059-.1-.132-.052-.068.025.036.052.073.077.109a2.98,2.98,0,0,1,.257.473l-.068-.164a2.952,2.952,0,0,1,.2.737c-.009-.061-.016-.121-.025-.182a2.557,2.557,0,0,1,.027.375.682.682,0,1,0,1.364,0,3.527,3.527,0,0,0-.593-1.958,3.651,3.651,0,0,0-1.653-1.326,3.535,3.535,0,0,0-3.8.81,3.478,3.478,0,0,0-.941,1.776,3.662,3.662,0,0,0,.262,2.185,3.5,3.5,0,0,0,1.3,1.489,3.566,3.566,0,0,0,1.946.553h2.8a.692.692,0,0,0,.682-.682V31.118a.69.69,0,0,0-.682-.682A.7.7,0,0,0,237.609,31.12Z" transform="translate(-199.081)"/>
    <path id="Path_6440" data-name="Path 6440" d="M482,31.246V34.1a.692.692,0,0,0,.682.682h2.481a5.841,5.841,0,0,0,.746-.025,3.887,3.887,0,0,0,1.137-.318,3.5,3.5,0,0,0,1.478-1.314,3.539,3.539,0,0,0-.109-3.9,3.687,3.687,0,0,0-1.685-1.287,3.523,3.523,0,0,0-4.673,2.713,3.787,3.787,0,0,0-.057.6.682.682,0,1,0,1.364,0,3.046,3.046,0,0,1,.025-.38c-.009.061-.016.121-.025.182a2.857,2.857,0,0,1,.2-.737l-.068.164a2.916,2.916,0,0,1,.25-.462c.025-.036.052-.073.077-.109.052-.075-.052.066-.052.066s.039-.048.048-.057c.057-.068.118-.134.18-.2s.123-.116.186-.171l.057-.048c.059-.05-.132.1-.068.052l.109-.077a2.98,2.98,0,0,1,.473-.257l-.164.068a2.951,2.951,0,0,1,.737-.2l-.182.025a3.014,3.014,0,0,1,.757,0l-.182-.025a2.858,2.858,0,0,1,.737.2l-.164-.068a2.915,2.915,0,0,1,.462.25l.109.077c.075.052-.066-.052-.066-.052s.048.039.057.048c.068.057.134.118.2.18s.116.123.171.186l.048.057c.05.059-.1-.132-.052-.068.025.036.052.073.077.109a2.978,2.978,0,0,1,.257.473l-.068-.164a2.95,2.95,0,0,1,.2.737c-.009-.061-.016-.121-.025-.182a3.014,3.014,0,0,1,0,.757c.009-.061.016-.121.025-.182a2.856,2.856,0,0,1-.2.737l.068-.164a2.916,2.916,0,0,1-.25.462c-.025.036-.052.073-.077.109-.052.075.052-.066.052-.066s-.039.048-.048.057c-.057.068-.118.134-.18.2s-.123.116-.186.171l-.057.048c-.059.05.132-.1.068-.052l-.109.077a2.977,2.977,0,0,1-.473.257l.164-.068a2.952,2.952,0,0,1-.737.2l.182-.025a5.629,5.629,0,0,1-.732.025h-2.492l.682.682V31.241a.69.69,0,0,0-.682-.682A.7.7,0,0,0,482,31.246Z" transform="translate(-443.471 -0.126)"/>
  </g>
</svg>
