<svg xmlns="http://www.w3.org/2000/svg" width="21.789" height="27.184" viewBox="0 0 21.789 27.184">
  <g id="gps_3_" data-name="gps (3)" transform="translate(-5.194 -1.816)">
    <path id="Path_6143" data-name="Path 6143" d="M16,29a1,1,0,0,1-.76-.35L8.17,20.34A11,11,0,0,1,23.78,4.85a11,11,0,0,1,0,15.52l-7,8.28A1,1,0,0,1,16,29ZM16,3.62A9,9,0,0,0,9.64,19L16,26.46,22.31,19l.05-.06A9,9,0,0,0,16,3.62Z" fill="#fff"/>
    <path id="Path_6144" data-name="Path 6144" d="M21,29H11a1,1,0,0,1,0-2H21a1,1,0,0,1,0,2ZM16,19a6,6,0,1,1,6-6A6,6,0,0,1,16,19ZM16,9a4,4,0,1,0,4,4A4,4,0,0,0,16,9Z" fill="#fff"/>
  </g>
</svg>
