<svg xmlns="http://www.w3.org/2000/svg" width="24.255" height="21.73" viewBox="0 0 24.255 21.73">
  <path id="hate_3_" data-name="hate (3)" d="M14.427,21.335l-.12.481h.441l.12-.481Zm4.009,0-.12.481h.441l.12-.481Zm0,0-.12.481h.441l.12-.481Zm-4.009,0-.12.481h.441l.12-.481Zm0,0-.12.481h.441l.12-.481Zm4.009,0-.12.481h.441l.12-.481Zm0,0-.12.481h.441l.12-.481Zm-4.009,0-.12.481h.441l.12-.481Zm0,0-.12.481h.441l.12-.481Zm4.009,0-.12.481h.441l.12-.481Zm0,0-.12.481h.441l.12-.481Zm-4.009,0-.12.481h.441l.12-.481ZM2.8,18.769v5.412H27.055V18.769Zm5.132,2.285-.962.481.6.441a.311.311,0,0,1,.08.4.286.286,0,0,1-.241.12.241.241,0,0,1-.16-.04l-.682-.481-.281,1a.344.344,0,0,1-.281.241h-.08a.287.287,0,0,1-.2-.361l.2-.762-.842.4a.147.147,0,0,1-.12.04.406.406,0,0,1-.281-.16.312.312,0,0,1,.12-.4l.962-.481-.6-.4a.311.311,0,0,1-.08-.4.274.274,0,0,1,.4-.08l.682.481.321-1.123a.292.292,0,1,1,.561.16l-.2.762.842-.4a.312.312,0,0,1,.4.12A.381.381,0,0,1,7.932,21.055Zm3.969,0-.962.481.6.441a.311.311,0,0,1,.08.4.286.286,0,0,1-.241.12c-.08,0-.12,0-.16-.04l-.682-.481-.281,1a.344.344,0,0,1-.281.241H9.9a.287.287,0,0,1-.2-.361l.2-.762-.842.4a.147.147,0,0,1-.12.04.406.406,0,0,1-.281-.16.312.312,0,0,1,.12-.4l.962-.481-.6-.4a.311.311,0,0,1-.08-.4.274.274,0,0,1,.4-.08l.682.481.281-1a.292.292,0,1,1,.561.16l-.2.762.842-.4a.312.312,0,0,1,.4.12C12.1,20.774,12.061,20.974,11.9,21.055Zm4.129.281h-.561l-.12.481h.4a.321.321,0,0,1,0,.641h-.561l-.16.561a.344.344,0,0,1-.281.241h-.08a.287.287,0,0,1-.2-.361l.12-.4h-.441l-.16.561a.344.344,0,0,1-.281.241h-.08a.287.287,0,0,1-.2-.361l.12-.4h-.4a.321.321,0,0,1,0-.641H13.7l.12-.481h-.4a.321.321,0,0,1,0-.641h.561l.16-.561a.292.292,0,1,1,.561.16l-.12.4h.441l.16-.561a.292.292,0,1,1,.561.16l-.12.4h.4a.316.316,0,0,1,.321.321C16.351,21.215,16.191,21.335,16.03,21.335Zm3.729,1.082H19.2l-.16.561a.344.344,0,0,1-.281.241h-.08a.287.287,0,0,1-.2-.361l.12-.4h-.441l-.16.561a.344.344,0,0,1-.281.241h-.08a.287.287,0,0,1-.2-.361l.12-.4h-.4a.321.321,0,0,1,0-.641h.561l.12-.481h-.4a.321.321,0,1,1,0-.641h.561l.16-.561a.292.292,0,1,1,.561.16l-.12.4h.441l.16-.561a.292.292,0,0,1,.561.16l-.12.4h.4a.321.321,0,1,1,0,.641h-.561l-.12.481h.4a.316.316,0,0,1,.321.321C20.079,22.3,19.919,22.418,19.759,22.418Zm.882.8H20.4a.321.321,0,0,1,0-.641h.241a.316.316,0,0,1,.321.321A.345.345,0,0,1,20.641,23.22Zm1.523,0h-.241a.321.321,0,1,1,0-.641h.241a.316.316,0,0,1,.321.321C22.445,23.059,22.325,23.22,22.164,23.22Zm1.523,0h-.241a.321.321,0,1,1,0-.641h.241a.316.316,0,0,1,.321.321C23.968,23.059,23.848,23.22,23.688,23.22Zm1.564-.12a.284.284,0,0,1-.4-.4.315.315,0,0,1,.441,0,.306.306,0,0,1,.08.2A.877.877,0,0,1,25.251,23.1Zm.842-2.967L25.612,21.9a.344.344,0,0,1-.281.241h-.08a.287.287,0,0,1-.2-.361l.481-1.764a.287.287,0,0,1,.361-.2C26.053,19.812,26.133,19.972,26.093,20.133Zm-7.778,1.684h.441l.12-.481h-.441Zm-4.009,0h.441l.12-.481h-.441Zm.12-.481-.12.481h.441l.12-.481Zm4.009,0-.12.481h.441l.12-.481Zm0,0-.12.481h.441l.12-.481Zm-4.009,0-.12.481h.441l.12-.481Zm0,0-.12.481h.441l.12-.481Zm4.009,0-.12.481h.441l.12-.481Zm0,0-.12.481h.441l.12-.481Zm-4.009,0-.12.481h.441l.12-.481Zm0,0-.12.481h.441l.12-.481Zm0,0-.12.481h.441l.12-.481Zm-6.9,3.448a10.982,10.982,0,0,0,14.754,0ZM11.5,14a.682.682,0,1,0,.682.682A.7.7,0,0,0,11.5,14Zm6.816,0A.682.682,0,1,0,19,14.68.7.7,0,0,0,18.315,14Zm0,0A.682.682,0,1,0,19,14.68.7.7,0,0,0,18.315,14ZM11.5,14a.682.682,0,1,0,.682.682A.7.7,0,0,0,11.5,14Zm0,0a.682.682,0,1,0,.682.682A.7.7,0,0,0,11.5,14Zm6.816,0A.682.682,0,1,0,19,14.68.7.7,0,0,0,18.315,14Zm0,0A.682.682,0,1,0,19,14.68.7.7,0,0,0,18.315,14ZM11.5,14a.682.682,0,1,0,.682.682A.7.7,0,0,0,11.5,14Zm0,0a.682.682,0,1,0,.682.682A.7.7,0,0,0,11.5,14Zm6.816,0A.682.682,0,1,0,19,14.68.7.7,0,0,0,18.315,14Zm0,0A.682.682,0,1,0,19,14.68.7.7,0,0,0,18.315,14ZM11.5,14a.682.682,0,1,0,.682.682A.7.7,0,0,0,11.5,14Zm0,0a.682.682,0,1,0,.682.682A.7.7,0,0,0,11.5,14Zm6.816,0A.682.682,0,1,0,19,14.68.7.7,0,0,0,18.315,14Zm0,0A.682.682,0,1,0,19,14.68.7.7,0,0,0,18.315,14ZM11.5,14a.682.682,0,1,0,.682.682A.7.7,0,0,0,11.5,14Zm0,0a.682.682,0,1,0,.682.682A.7.7,0,0,0,11.5,14Zm6.816,0A.682.682,0,1,0,19,14.68.7.7,0,0,0,18.315,14Zm0,0A.682.682,0,1,0,19,14.68.7.7,0,0,0,18.315,14ZM11.5,14a.682.682,0,1,0,.682.682A.7.7,0,0,0,11.5,14Zm0,0a.682.682,0,1,0,.682.682A.7.7,0,0,0,11.5,14Zm6.816,0A.682.682,0,1,0,19,14.68.7.7,0,0,0,18.315,14Zm0,0A.682.682,0,1,0,19,14.68.7.7,0,0,0,18.315,14ZM11.5,14a.682.682,0,1,0,.682.682A.7.7,0,0,0,11.5,14Zm3.408-8.1A10.848,10.848,0,0,0,4.043,16.765c0,.481.04.962.08,1.4H25.692c.04-.481.08-.922.08-1.4A10.848,10.848,0,0,0,14.908,5.9ZM11.5,15.963a1.283,1.283,0,1,1,1.283-1.283A1.267,1.267,0,0,1,11.5,15.963Zm1.724-2.646h-.08a.265.265,0,0,1-.281-.241A2.474,2.474,0,0,0,9.9,11.232a.312.312,0,0,1-.361-.241.284.284,0,0,1,.241-.361,3.071,3.071,0,0,1,3.688,2.285A.333.333,0,0,1,13.224,13.317Zm5.092,2.646A1.283,1.283,0,1,1,19.6,14.68,1.292,1.292,0,0,1,18.315,15.963Zm1.964-4.931a.351.351,0,0,1-.361.241,2.474,2.474,0,0,0-2.967,1.844.344.344,0,0,1-.281.241h-.08A.312.312,0,0,1,16.351,13a3.071,3.071,0,0,1,3.688-2.285A.257.257,0,0,1,20.28,11.032ZM18.315,14A.682.682,0,1,0,19,14.68.7.7,0,0,0,18.315,14ZM11.5,14a.682.682,0,1,0,.682.682A.7.7,0,0,0,11.5,14Zm0,0a.682.682,0,1,0,.682.682A.7.7,0,0,0,11.5,14Zm6.816,0A.682.682,0,1,0,19,14.68.7.7,0,0,0,18.315,14Zm0,0A.682.682,0,1,0,19,14.68.7.7,0,0,0,18.315,14ZM11.5,14a.682.682,0,1,0,.682.682A.7.7,0,0,0,11.5,14Zm0,0a.682.682,0,1,0,.682.682A.7.7,0,0,0,11.5,14Zm6.816,0A.682.682,0,1,0,19,14.68.7.7,0,0,0,18.315,14Zm0,0A.682.682,0,1,0,19,14.68.7.7,0,0,0,18.315,14ZM11.5,14a.682.682,0,1,0,.682.682A.7.7,0,0,0,11.5,14Zm0,0a.682.682,0,1,0,.682.682A.7.7,0,0,0,11.5,14Zm6.816,0A.682.682,0,1,0,19,14.68.7.7,0,0,0,18.315,14Zm0,0A.682.682,0,1,0,19,14.68.7.7,0,0,0,18.315,14ZM11.5,14a.682.682,0,1,0,.682.682A.7.7,0,0,0,11.5,14Zm0,0a.682.682,0,1,0,.682.682A.7.7,0,0,0,11.5,14Zm6.816,0A.682.682,0,1,0,19,14.68.7.7,0,0,0,18.315,14Zm0,0A.682.682,0,1,0,19,14.68.7.7,0,0,0,18.315,14ZM11.5,14a.682.682,0,1,0,.682.682A.7.7,0,0,0,11.5,14Zm0,0a.682.682,0,1,0,.682.682A.7.7,0,0,0,11.5,14Zm6.816,0A.682.682,0,1,0,19,14.68.7.7,0,0,0,18.315,14Zm0,0A.682.682,0,1,0,19,14.68.7.7,0,0,0,18.315,14ZM11.5,14a.682.682,0,1,0,.682.682A.7.7,0,0,0,11.5,14Zm6.816,0A.682.682,0,1,0,19,14.68.7.7,0,0,0,18.315,14Zm0,0A.682.682,0,1,0,19,14.68.7.7,0,0,0,18.315,14Z" transform="translate(-2.8 -5.9)"/>
</svg>
