<svg xmlns="http://www.w3.org/2000/svg" width="22" height="20.308" viewBox="0 0 22 20.308">
  <path id="heart_4_" data-name="heart (4)" d="M63.95,64A6.507,6.507,0,0,0,59,66.324,6.507,6.507,0,0,0,54.05,64,5.982,5.982,0,0,0,48,70.087c0,4.205,3.74,7.581,9.4,12.782L59,84.308l1.6-1.439c5.665-5.2,9.4-8.577,9.4-12.782A5.982,5.982,0,0,0,63.95,64ZM59.679,81.413l-.223.2L59,82.029l-.456-.411-.223-.2a67.343,67.343,0,0,1-6.491-6.452c-1.478-1.836-2.138-3.339-2.138-4.875a4.4,4.4,0,0,1,1.254-3.137,4.331,4.331,0,0,1,3.1-1.258A4.84,4.84,0,0,1,57.7,67.413l1.3,1.54,1.3-1.54a4.84,4.84,0,0,1,3.655-1.721,4.332,4.332,0,0,1,3.1,1.257,4.405,4.405,0,0,1,1.254,3.137c0,1.535-.659,3.039-2.138,4.874A67.338,67.338,0,0,1,59.679,81.413Z" transform="translate(-48 -64)"/>
</svg>
