<svg xmlns="http://www.w3.org/2000/svg" width="24" height="20.4" viewBox="0 0 24 20.4">
  <path id="photo_1_" data-name="photo (1)" d="M14,12.4a2.4,2.4,0,1,0,2.4,2.4A2.407,2.407,0,0,0,14,12.4Zm8.4-4.8H20.84l-.36-1.08A3.593,3.593,0,0,0,20,5.56V5.44l-.12-.12A3.588,3.588,0,0,0,17.12,4H10.88a3.233,3.233,0,0,0-1.8.6c-.12,0-.12.12-.24.12h0a3.923,3.923,0,0,0-1.32,1.8L7.16,7.6H5.6A3.536,3.536,0,0,0,2,11.2v9.6a3.536,3.536,0,0,0,3.6,3.6H22.4A3.536,3.536,0,0,0,26,20.8V11.2A3.536,3.536,0,0,0,22.4,7.6ZM14,19.6a4.8,4.8,0,1,1,4.8-4.8A4.814,4.814,0,0,1,14,19.6Z" transform="translate(-2 -4)" fill="#0076c1"/>
</svg>
