<?xml version="1.0" encoding="UTF-8"?>
<svg xmlns="http://www.w3.org/2000/svg" xmlns:xlink="http://www.w3.org/1999/xlink" width="29px" height="29px" viewBox="0 0 29 28" version="1.1">
<g id="surface1">
<path style="fill:none;stroke-width:1.68;stroke-linecap:butt;stroke-linejoin:miter;stroke:rgb(69.803923%,69.803923%,69.803923%);stroke-opacity:1;stroke-miterlimit:4;" d="M 21.998922 12 C 21.998922 6.478795 17.521552 1.998884 12 1.998884 C 6.478448 1.998884 2.001078 6.478795 2.001078 12 C 2.001078 17.521205 6.478448 22.001116 12 22.001116 C 17.521552 22.001116 21.998922 17.521205 21.998922 12 Z M 21.998922 12 " transform="matrix(1.208333,0,0,1.166667,0,0)"/>
<path style="fill:none;stroke-width:1.68;stroke-linecap:round;stroke-linejoin:miter;stroke:rgb(69.803923%,69.803923%,69.803923%);stroke-opacity:1;stroke-miterlimit:4;" d="M 12 16.998884 L 12 10.998884 " transform="matrix(1.208333,0,0,1.166667,0,0)"/>
<path style=" stroke:none;fill-rule:nonzero;fill:rgb(69.803923%,69.803923%,69.803923%);fill-opacity:1;" d="M 15.707031 9.332031 C 15.707031 9.976562 15.167969 10.5 14.5 10.5 C 13.832031 10.5 13.292969 9.976562 13.292969 9.332031 C 13.292969 8.6875 13.832031 8.167969 14.5 8.167969 C 15.167969 8.167969 15.707031 8.6875 15.707031 9.332031 Z M 15.707031 9.332031 "/>
</g>
</svg>
