<svg xmlns="http://www.w3.org/2000/svg" width="40.19" height="40.19" viewBox="0 0 40.19 40.19">
  <g id="eye_1_" data-name="eye (1)" transform="translate(0.414 0.414)">
    <path id="Path_6083" data-name="Path 6083" d="M29.769,29.769a17.1,17.1,0,0,1-10.088,3.5C7.793,33.267,1,19.681,1,19.681A31.333,31.333,0,0,1,9.593,9.593M16.115,6.5a15.488,15.488,0,0,1,3.566-.408c11.888,0,18.681,13.586,18.681,13.586A31.418,31.418,0,0,1,34.694,25.1M23.281,23.281a5.095,5.095,0,1,1-7.2-7.2M1,1,38.362,38.362" transform="translate(0)" fill="none" stroke="#000" stroke-linecap="round" stroke-linejoin="round" stroke-width="2" fill-rule="evenodd"/>
  </g>
</svg>
