<svg xmlns="http://www.w3.org/2000/svg" width="42.362" height="24.431" viewBox="0 0 42.362 24.431">
  <g id="Group_5545" data-name="Group 5545" transform="translate(-30 -645.444)">
    <g id="eye_2_" data-name="eye (2)" transform="translate(29.275 634.444)">
      <path id="Path_6084" data-name="Path 6084" d="M21.906,35.431c11.374,0,20.376-11.2,20.753-11.674l.428-.542-.428-.542C42.282,22.2,33.28,11,21.906,11S1.53,22.2,1.153,22.674l-.428.542.428.542C1.53,24.234,10.531,35.431,21.906,35.431Zm0-22.686c9.156,0,16.988,8.254,18.925,10.471C38.9,25.434,31.075,33.686,21.906,33.686S4.918,25.432,2.981,23.216C4.915,21,12.736,12.745,21.906,12.745Z"/>
      <path id="Path_6085" data-name="Path 6085" d="M23.853,31.706A7.853,7.853,0,1,0,16,23.853,7.862,7.862,0,0,0,23.853,31.706Zm0-13.961a6.108,6.108,0,1,1-6.108,6.108A6.115,6.115,0,0,1,23.853,17.745Z" transform="translate(-1.947 -0.637)"/>
    </g>
  </g>
</svg>
