<svg xmlns="http://www.w3.org/2000/svg" width="22.3" height="22.3" viewBox="0 0 22.3 22.3">
  <g id="kiss_2_" data-name="kiss (2)" transform="translate(0.15 0.15)">
    <path id="Path_6430" data-name="Path 6430" d="M10.978,17.543s.94.025,1.186.356a1.354,1.354,0,0,0,.629.469l.011,0a1.354,1.354,0,0,0,.457.084,1.37,1.37,0,1,0,0-2.739,1.37,1.37,0,1,0,0-2.739,1.354,1.354,0,0,0-.457.084l-.011,0a1.368,1.368,0,0,0-.63.469c-.246.331-1.185.356-1.185.356M5.5,9.783a2.283,2.283,0,0,1,4.565,0m2.739,0a2.283,2.283,0,1,1,4.565,0" transform="translate(-0.435 -0.609)" fill="none" stroke="#000" stroke-linecap="round" stroke-linejoin="round" stroke-miterlimit="10" stroke-width="1.3"/>
    <path id="Path_6431" data-name="Path 6431" d="M20.183,16.087A10.551,10.551,0,1,0,16.6,19.871" fill="none" stroke="#000" stroke-linecap="round" stroke-linejoin="round" stroke-miterlimit="10" stroke-width="1.3"/>
    <path id="Path_6432" data-name="Path 6432" d="M21.116,17.5a2.018,2.018,0,0,0-1.421.913,2.018,2.018,0,0,0-1.421-.913A1.745,1.745,0,0,0,16.5,19.212a1.676,1.676,0,0,0,.52,1.211L19.7,22.978l2.675-2.557a1.672,1.672,0,0,0,.52-1.21A1.744,1.744,0,0,0,21.116,17.5Z" transform="translate(-1.391 -1.478)" fill="none" stroke="#000" stroke-linecap="round" stroke-linejoin="round" stroke-miterlimit="10" stroke-width="1.3"/>
  </g>
</svg>
