<svg xmlns="http://www.w3.org/2000/svg" width="28.571" height="28.571" viewBox="0 0 28.571 28.571">
  <g id="translator_1_" data-name="translator (1)" transform="translate(-1 -1)">
    <path id="Path_6145" data-name="Path 6145" d="M13.19,6.8a.952.952,0,0,0,0-1.9H10.324V4.5a.952.952,0,1,0-1.9,0v.392H5.552a.952.952,0,0,0,0,1.9h1.02a10.008,10.008,0,0,0,1.589,3.343,16.358,16.358,0,0,1-3.007,2.567.952.952,0,0,0,1.067,1.577,18.226,18.226,0,0,0,3.151-2.664,18.216,18.216,0,0,0,3.15,2.664.952.952,0,1,0,1.068-1.577,16.364,16.364,0,0,1-3.008-2.568A10,10,0,0,0,12.172,6.8h1.019ZM9.371,8.549A8.007,8.007,0,0,1,8.54,6.8H10.2a8.009,8.009,0,0,1-.831,1.752Z" transform="translate(-0.171 -0.121)" fill="#fff"/>
    <path id="Path_6146" data-name="Path 6146" d="M26.611,13.169H17.4V3.96A2.964,2.964,0,0,0,14.441,1H3.96A2.964,2.964,0,0,0,1,3.96V14.441A2.964,2.964,0,0,0,3.96,17.4h9.209v9.209a2.964,2.964,0,0,0,2.959,2.96H26.61a2.964,2.964,0,0,0,2.961-2.96V16.129A2.964,2.964,0,0,0,26.611,13.169ZM3.96,15.5A1.057,1.057,0,0,1,2.9,14.441V3.96A1.057,1.057,0,0,1,3.96,2.9H14.441A1.057,1.057,0,0,1,15.5,3.96V14.441A1.057,1.057,0,0,1,14.441,15.5ZM27.667,26.611a1.057,1.057,0,0,1-1.055,1.055H16.129a1.057,1.057,0,0,1-1.056-1.055V17.329a2.966,2.966,0,0,0,2.257-2.256h9.281a1.057,1.057,0,0,1,1.055,1.056V26.611Z" transform="translate(0)" fill="#fff"/>
    <path id="Path_6147" data-name="Path 6147" d="M23.026,17.427a.95.95,0,0,0-1.749,0l-3.724,8.636a.952.952,0,0,0,1.75.753l1.611-3.738h2.473L25,26.817a.952.952,0,1,0,1.749-.752l-3.724-8.637Zm-1.29,3.747.415-.964.415.964h-.83Z" transform="translate(-0.785 -0.755)" fill="#fff"/>
  </g>
</svg>
