<svg xmlns="http://www.w3.org/2000/svg" width="22.348" height="20.374" viewBox="0 0 22.348 20.374">
  <g id="language" transform="translate(-1.56 -4.25)">
    <path id="Path_6404" data-name="Path 6404" d="M32.781,36.016a.547.547,0,0,1-.51-.756,15.337,15.337,0,0,0,.683-2.456H27.08a2.5,2.5,0,0,1-2.5-2.5V24.75a2.5,2.5,0,0,1,2.5-2.5h8.9a2.5,2.5,0,0,1,2.5,2.5v5.569a2.471,2.471,0,0,1-.422,1.384c-.881,1.7-4.945,4.2-4.989,4.229a.573.573,0,0,1-.286.084ZM27.073,23.351a1.4,1.4,0,0,0-1.4,1.4v5.569a1.4,1.4,0,0,0,1.4,1.384h6.542a.558.558,0,0,1,.418.195.547.547,0,0,1,.125.441c0,.051-.132.848-.367,1.8a12.991,12.991,0,0,0,3.3-2.937.525.525,0,0,1,.055-.1,1.34,1.34,0,0,0,.25-.793V24.75a1.4,1.4,0,0,0-1.4-1.4ZM37.582,31.435Z" transform="translate(-14.57 -11.392)" fill="#222"/>
    <path id="Path_6405" data-name="Path 6405" d="M26.579,20.573a.551.551,0,0,1-.551-.551V18.411a.551.551,0,1,1,1.1,0v1.612A.551.551,0,0,1,26.579,20.573Zm-4.361,2.845H20.541a.551.551,0,0,1,0-1.1h1.678a.551.551,0,0,1,0,1.1Z" transform="translate(-11.665 -8.614)" fill="#222"/>
    <path id="Path_6406" data-name="Path 6406" d="M7.257,18.016a.573.573,0,0,1-.286-.081C6.927,17.909,2.863,15.4,1.982,13.7a2.471,2.471,0,0,1-.422-1.388V6.75a2.5,2.5,0,0,1,2.5-2.5h8.906a2.5,2.5,0,0,1,2.5,2.5V9.8a.551.551,0,0,1-1.1,0V6.75a1.4,1.4,0,0,0-1.4-1.4H4.06a1.4,1.4,0,0,0-1.4,1.4v5.569a1.34,1.34,0,0,0,.25.793.554.554,0,0,1,.055.1,12.88,12.88,0,0,0,3.3,2.937,15.59,15.59,0,0,1-.367-1.8.547.547,0,0,1,.125-.441.565.565,0,0,1,.4-.213H8.876a.551.551,0,1,1,0,1.1H7.085a15.337,15.337,0,0,0,.683,2.445.547.547,0,0,1-.51.756Z" fill="#222"/>
    <path id="Path_6407" data-name="Path 6407" d="M17.936,15.1H13.381a.551.551,0,0,1,0-1.1h4.556a.551.551,0,1,1,0,1.1Z" transform="translate(-7.133 -6.171)" fill="#222"/>
    <path id="Path_6408" data-name="Path 6408" d="M13.411,18.974a.551.551,0,1,1,0-1.1,3.032,3.032,0,0,0,2.261-.819,3.9,3.9,0,0,0,.918-2.522.551.551,0,0,1,1.1-.033,4.93,4.93,0,0,1-1.222,3.3A4.067,4.067,0,0,1,13.411,18.974Z" transform="translate(-7.152 -6.148)" fill="#222"/>
    <path id="Path_6409" data-name="Path 6409" d="M19.8,16.357a4.072,4.072,0,0,1-3.972-2.83.551.551,0,0,1,1.028-.4,2.959,2.959,0,0,0,2.937,2.125.551.551,0,1,1,0,1.1Zm-2.265-3.895a.551.551,0,0,1-.551-.551V10.381a.551.551,0,1,1,1.1,0V11.9a.551.551,0,0,1-.551.565ZM23.774,23a.5.5,0,0,1-.206-.04.551.551,0,0,1-.308-.734l2.2-5.506a.552.552,0,1,1,1.024.411l-2.2,5.506a.554.554,0,0,1-.51.363Z" transform="translate(-9.006 -3.532)" fill="#222"/>
    <path id="Path_6410" data-name="Path 6410" d="M44.788,34.325a.558.558,0,0,1-.514-.345l-2.2-5.506a.552.552,0,0,1,1.024-.411l2.2,5.506a.551.551,0,0,1-.308.734A.5.5,0,0,1,44.788,34.325Z" transform="translate(-25.615 -14.852)" fill="#222"/>
    <path id="Path_6411" data-name="Path 6411" d="M41.527,38.821H38.591a.551.551,0,1,1,0-1.1h2.937a.551.551,0,1,1,0,1.1Z" transform="translate(-23.089 -21.183)" fill="#222"/>
  </g>
</svg>
