<svg xmlns="http://www.w3.org/2000/svg" width="22" height="22" viewBox="0 0 22 22">
  <path id="sun_3_" data-name="sun (3)" d="M14,8.077A5.923,5.923,0,1,0,19.923,14,5.923,5.923,0,0,0,14,8.077Zm0,10.154A4.231,4.231,0,1,1,18.231,14,4.231,4.231,0,0,1,14,18.231ZM14,6.385a.846.846,0,0,0,.846-.846V3.846a.846.846,0,0,0-1.692,0V5.538A.846.846,0,0,0,14,6.385Zm10.154,6.769H22.462a.846.846,0,0,0,0,1.692h1.692a.846.846,0,0,0,0-1.692ZM6.385,14a.846.846,0,0,0-.846-.846H3.846a.846.846,0,0,0,0,1.692H5.538A.846.846,0,0,0,6.385,14Zm13.6-5.136a.846.846,0,0,0,.6-.245l1.193-1.2a.846.846,0,0,0-1.193-1.193l-1.2,1.193a.846.846,0,0,0,.6,1.447ZM7.417,8.618a.85.85,0,1,0,1.2-1.2l-1.2-1.193A.846.846,0,0,0,6.224,7.417Zm6.583,13a.846.846,0,0,0-.846.846v1.692a.846.846,0,0,0,1.692,0V22.462A.846.846,0,0,0,14,21.615ZM7.417,19.382l-1.193,1.2a.844.844,0,1,0,1.193,1.193l1.2-1.193a.85.85,0,0,0-1.2-1.2Zm13.166,0a.85.85,0,1,0-1.2,1.2l1.2,1.193a.844.844,0,0,0,1.193-1.193Z" transform="translate(-3 -3)"/>
</svg>
