<svg xmlns="http://www.w3.org/2000/svg" width="30" height="30.001" viewBox="0 0 30 30.001">
  <path id="kiss_1_" data-name="kiss (1)" d="M28.174,22.162a15.028,15.028,0,1,0-5.224,5.549l2.2,2.147a.5.5,0,0,0,.7,0L29.2,26.59a2.658,2.658,0,0,0,.8-1.9,2.687,2.687,0,0,0-1.826-2.526ZM10,10a3,3,0,0,0-3,3,.5.5,0,0,1-1,0,4,4,0,0,1,8,0,.5.5,0,0,1-1,0A3,3,0,0,0,10,10ZM20,22.5a2.5,2.5,0,0,1-4.153,1.875A3.648,3.648,0,0,0,13.5,23a.5.5,0,0,1,0-1,4.483,4.483,0,0,1,3.071,1.692A1.521,1.521,0,0,0,17.5,24a1.5,1.5,0,0,0,0-3,.5.5,0,0,1,0-1,1.5,1.5,0,1,0-.991-2.625A4.391,4.391,0,0,1,13.5,19a.5.5,0,0,1,0-1,3.537,3.537,0,0,0,2.285-1.31A2.5,2.5,0,1,1,19,20.5a2.5,2.5,0,0,1,1,2ZM17,13a.5.5,0,0,1-1,0,4,4,0,0,1,8,0,.5.5,0,0,1-1,0,3,3,0,0,0-6,0ZM28.5,25.876l-3,2.926-3-2.924a1.66,1.66,0,0,1-.5-1.19A1.707,1.707,0,0,1,23.723,23a1.828,1.828,0,0,1,1.379.8.516.516,0,0,0,.8,0,1.828,1.828,0,0,1,1.38-.8A1.707,1.707,0,0,1,29,24.688a1.66,1.66,0,0,1-.5,1.188Z" fill="#0076c1"/>
</svg>
