<svg xmlns="http://www.w3.org/2000/svg" width="50" height="50" viewBox="0 0 50 50">
  <g id="Group_6306" data-name="Group 6306" transform="translate(11871 11562)">
    <circle id="Ellipse_577" data-name="Ellipse 577" cx="25" cy="25" r="25" transform="translate(-11871 -11562)" fill="#0076c1"/>
    <g id="global_1_" data-name="global (1)" transform="translate(-11863.487 -11554.122)">
      <path id="Path_6075" data-name="Path 6075" d="M33.009,9.435A17.64,17.64,0,0,0,0,14.7H3.262a14.443,14.443,0,0,1,26.9-3.8l-1.832.941L33.7,14.168,34.948,8.44l-1.939,1ZM31.72,19.8a14.44,14.44,0,0,1-26.9,4.977l1.854-.951L1.306,21.5.055,27.227l1.9-.973A17.668,17.668,0,0,0,34.976,19.8H31.72Z" fill="#fff"/>
    </g>
    <path id="gps_6_" data-name="gps (6)" d="M15.562,1A7.145,7.145,0,0,0,8.4,8.162c0,3.969,7.162,13.548,7.162,13.548s7.162-9.578,7.162-13.548A7.145,7.145,0,0,0,15.562,1Zm0,11.132a3.926,3.926,0,1,1,3.926-3.926,3.941,3.941,0,0,1-3.926,3.926Z" transform="translate(-11861.563 -11547.775)" fill="#fff"/>
  </g>
</svg>
