<svg xmlns="http://www.w3.org/2000/svg" width="24.098" height="35.566" viewBox="0 0 24.098 35.566">
  <g id="Group_6537" data-name="Group 6537" transform="translate(13755.049 1523.783)">
    <g id="padlock" transform="translate(-13838.949 -1525.783)">
      <path id="Path_6303" data-name="Path 6303" d="M104.553,15.813V10.6a8.6,8.6,0,1,0-17.209,0v5.209a4.026,4.026,0,0,0-3.445,3.97V33.547a4.023,4.023,0,0,0,4.019,4.019h16.061A4.023,4.023,0,0,0,108,33.547V19.783A4.02,4.02,0,0,0,104.553,15.813ZM88.493,10.6a7.456,7.456,0,0,1,14.912,0v5.16H88.493V10.6ZM106.85,33.547a2.874,2.874,0,0,1-2.87,2.87H87.919a2.874,2.874,0,0,1-2.87-2.87V19.783a2.874,2.874,0,0,1,2.87-2.87h16.061a2.874,2.874,0,0,1,2.87,2.87Z" fill="#fff"/>
      <path id="Path_6304" data-name="Path 6304" d="M220.741,291.57a2.87,2.87,0,1,0-5.741,0,2.838,2.838,0,0,0,1.071,2.226l-.581,4.089h4.761l-.581-4.089A2.839,2.839,0,0,0,220.741,291.57Zm-2.31,1.666.5,3.5h-2.121l.5-3.5a2.105,2.105,0,0,1-1.162-1.666,1.722,1.722,0,1,1,3.445,0A2.074,2.074,0,0,1,218.431,293.237Z" transform="translate(-121.921 -266.628)" fill="#fff"/>
    </g>
  </g>
</svg>
