<svg id="Group_5372" data-name="Group 5372" xmlns="http://www.w3.org/2000/svg" width="1200" height="1800" viewBox="0 0 1200 1800">
  <g id="Group_5106" data-name="Group 5106">
    <path id="Path_592" data-name="Path 592" d="M40,0H1160a40,40,0,0,1,40,40V1760a40,40,0,0,1-40,40H40a40,40,0,0,1-40-40V40A40,40,0,0,1,40,0Z" fill="#8b8b8b"/>
  </g>
  <g id="Icons" transform="translate(405.689 650.332)">
    <path id="Path_4294" data-name="Path 4294" d="M89.217,253.884C100.5,133.814,157.538,64.389,212.07,22.643A17.362,17.362,0,0,1,239.2,40.771c-13.038,59.221-32.845,142.912,38.06,200.578,18.1-2.043,43.738-31.792,55.848-51.022a17.011,17.011,0,0,1,28.507-.652,252.7,252.7,0,0,1,39.852,111.734c10.581,100.427-52.426,193.457-150.207,212.1C131.376,536.674,14,446.94,14,329.1a276.862,276.862,0,0,1,13.79-83.666,13.414,13.414,0,0,1,23.4-4.162,32.13,32.13,0,0,0,38.022,12.611Z" transform="translate(-14 -19.286)" fill="#bfbfbf"/>
    <path id="Path_4295" data-name="Path 4295" d="M198.505,180.4A87.753,87.753,0,1,1,23,180.4c0-52.012,29.836-104.89,48.339-132.67a15.043,15.043,0,0,1,25.072,0C133.318,104.239,198.505,112.287,198.505,180.4Z" transform="translate(89.825 231.187)" fill="#e5e5e5"/>
  </g>
</svg>
