<svg xmlns="http://www.w3.org/2000/svg" width="17.76" height="17.701" viewBox="0 0 17.76 17.701">
  <g id="magic" transform="translate(-16.58 -8.66)">
    <path id="Path_4728" data-name="Path 4728" d="M50.8,20.452l-1.888,5.616,3.539,4.719-5.9-.047-3.445,4.813L41.363,29.89,35.7,28.144,40.513,24.7l-.047-5.9,4.719,3.539Z" transform="translate(-18.589 -9.664)" fill="red"/>
    <path id="Path_4729" data-name="Path 4729" d="M42.514,35.492H42.42a.457.457,0,0,1-.378-.33l-1.7-5.427-5.427-1.7a.457.457,0,0,1-.33-.378.449.449,0,0,1,.189-.472L39.4,23.93l-.094-5.663a.5.5,0,0,1,.236-.425.524.524,0,0,1,.519.047l4.53,3.4,5.38-1.84a.516.516,0,0,1,.472.094.376.376,0,0,1,.094.472l-1.7,5.427,3.4,4.53a.506.506,0,0,1,.047.519.5.5,0,0,1-.425.236L46.2,30.631l-3.256,4.625A.652.652,0,0,1,42.514,35.492Zm-6.371-8.07,4.719,1.463a.466.466,0,0,1,.33.33l1.463,4.719,2.879-4.058a.429.429,0,0,1,.378-.189l4.955.047-2.973-3.964a.359.359,0,0,1-.047-.425l1.6-4.719-4.719,1.6a.443.443,0,0,1-.425-.047l-3.964-2.973.047,4.955a.583.583,0,0,1-.189.378Z" transform="translate(-17.994 -9.131)" fill="#27b2ac"/>
  </g>
</svg>
