<svg xmlns="http://www.w3.org/2000/svg" width="28" height="28.963" viewBox="0 0 28 28.963">
  <path id="marijuana-sativa" d="M10.982,22.26a9.227,9.227,0,0,0-1.083.513L6.627,24.59a.483.483,0,0,0,.186.9l3.365.338a9.485,9.485,0,0,0,3.476-.3,8.418,8.418,0,0,0-.56,1.441l-.277.965a.483.483,0,0,0,.732.534l.544-.363a8.726,8.726,0,0,0,2.423-2.4v5.262h.965V25.7a8.727,8.727,0,0,0,2.423,2.4l.544.363a.483.483,0,0,0,.732-.534l-.277-.965a8.418,8.418,0,0,0-.56-1.441,9.485,9.485,0,0,0,3.476.3l3.365-.338a.483.483,0,0,0,.186-.9L24.1,22.771a9.228,9.228,0,0,0-1.083-.513,17.8,17.8,0,0,0,7.9-6.509.483.483,0,0,0-.51-.739l-3.171.732a17.606,17.606,0,0,0-3.747,1.323,17.224,17.224,0,0,0,3.059-7.05l.671-3.579a.483.483,0,0,0-.816-.43l-3.8,3.8a17.365,17.365,0,0,0-2.886,3.831,22.9,22.9,0,0,0-.865-6.923L17.459,2.339a.483.483,0,0,0-.92,0L15.146,6.732a22.856,22.856,0,0,0-.861,6.91A17.362,17.362,0,0,0,11.4,9.809L7.6,6a.483.483,0,0,0-.816.43l.671,3.58a17.225,17.225,0,0,0,3.059,7.051,17.579,17.579,0,0,0-3.747-1.323L3.591,15.01a.483.483,0,0,0-.51.739,17.8,17.8,0,0,0,7.9,6.511Z" transform="translate(-2.999 -2.003)"/>
</svg>
