<svg xmlns="http://www.w3.org/2000/svg" width="24.791" height="29.349" viewBox="0 0 24.791 29.349">
  <g id="Group_6595" data-name="Group 6595" transform="translate(5103.9 18409.918)">
    <g id="Group_6578" data-name="Group 6578" transform="translate(-5102.9 -18408.918)">
      <g id="gold-medal" transform="translate(0 0)">
        <path id="Path_7394" data-name="Path 7394" d="M18.452,12.959V5.223l3.431-3.43a2.525,2.525,0,0,1,1.688-.735h5.338a.89.89,0,0,1,.939.892v.594a1.613,1.613,0,0,1-.567,1.36L18.452,14.732Z" transform="translate(-7.056 -1.057)" fill="none" stroke="#fff" stroke-width="2"/>
        <path id="Path_7395" data-name="Path 7395" d="M15.1,12.959V5.223l-3.43-3.432a2.525,2.525,0,0,0-1.688-.735H4.643a.89.89,0,0,0-.939.892v.594A1.613,1.613,0,0,0,4.271,3.9L15.1,14.731Z" transform="translate(-3.704 -1.057)" fill="none" stroke="#fff" stroke-width="2"/>
        <path id="Path_7396" data-name="Path 7396" d="M16.69,4.928a1.235,1.235,0,0,1,1.154,1.154L18.3,8.731c.109.63-3.327.63-3.219,0l.457-2.65A1.234,1.234,0,0,1,16.69,4.927Z" transform="translate(-5.281 -1.593)" fill="#fff"/>
        <path id="Path_7397" data-name="Path 7397" d="M21.412,11.311s-.508,4.854-1.139,4.854h-8.4c-.631,0-1.139-4.854-1.139-4.854,0-3.992,10.677-4.324,10.677,0Z" transform="translate(-4.679 -2.046)" fill="#fff" stroke="#fff" stroke-width="2"/>
        <path id="Path_7398" data-name="Path 7398" d="M15.452,11.443a9.2,9.2,0,1,1-9.2,9.2,9.2,9.2,0,0,1,9.2-9.2Z" transform="translate(-4.057 -2.497)" fill="none" stroke="#fff" stroke-width="2"/>
        <path id="Path_7399" data-name="Path 7399" d="M15.433,13.567l.01.227.45-.005,0-.227Zm1.159.039-.032.226.448.067.036-.224Zm-1.85.022-.457.078.044.224.444-.077Zm2.984.2-.065.219.432.134.071-.217Zm-4.116.046-.434.146.076.215.429-.145Zm5.2.351-.095.207.4.2.106-.2Zm-6.275.069-.409.214.112.2.4-.209Zm7.288.493-.129.187.37.263.134-.183Zm-8.289.091-.367.274.138.182.363-.272Zm9.2.622-.155.167.321.314.165-.159Zm-10.089.112-.323.329.166.155.316-.321Zm10.879.733-.179.14.27.363.183-.134ZM9.87,16.473l-.265.374.187.131.264-.37Zm12.3.83-.2.113.208.4.206-.1Zm-12.922.143-.206.413.207.1.2-.4Zm13.413.907-.215.076.146.429.215-.071ZM8.778,18.5l-.138.439.219.064L9,18.574Zm14.2.959-.224.043.078.446.226-.037Zm-14.492.16-.069.452.226.032.067-.448Zm14.631.987-.228.009.006.449.227,0ZM8.37,20.772v.459l.229,0,0-.452Zm14.485.964-.066.449.224.037.069-.454ZM8.66,21.895l-.227.03.076.457.224-.044Zm13.982.942-.134.432.217.071.136-.438Zm-13.749.152-.217.071a2.668,2.668,0,0,0,.146.434l.215-.076Zm13.366.9-.2.4.2.106.2-.413ZM9.3,24.034l-.2.1.21.407.2-.106Zm12.423.837-.263.37.183.134L21.907,25ZM9.859,25l-.182.134.272.367.182-.138Zm11.169.754-.313.323.158.164.323-.332Zm-10.459.115-.164.159.325.323.16-.164Zm9.643.652-.362.271.134.185.367-.276Zm-8.81.1-.135.183.374.265.129-.187Zm7.882.531-.4.21.1.205.409-.217Zm-6.94.078-.108.2.409.208.1-.2Zm5.929.4-.429.146.071.216.434-.147Zm-4.907.055L13.3,27.9l.438.138.065-.219Zm3.831.256-.445.079.037.225.45-.08Zm-2.748.03-.036.226.454.069.032-.226Zm1.634.109-.518.005,0,.228.53-.006Z" transform="translate(-4.351 -2.791)" fill="#fff"/>
      </g>
    </g>
  </g>
</svg>
