<svg xmlns="http://www.w3.org/2000/svg" width="21" height="21" viewBox="0 0 21 21">
  <path id="chat_3_" data-name="chat (3)" d="M3.058,23.25a.808.808,0,0,1-.776-1.03l1.266-4.433a10.525,10.525,0,1,1,4.164,4.164L3.28,23.219a.783.783,0,0,1-.222.031Zm4.759-2.976a.814.814,0,0,1,.412.113,8.91,8.91,0,1,0-3.117-3.117.809.809,0,0,1,.082.634l-.961,3.362L7.6,20.307a.823.823,0,0,1,.222-.031Zm6.01-7.524a1.077,1.077,0,1,1-1.077-1.077A1.077,1.077,0,0,1,13.827,12.75ZM8.442,11.673A1.077,1.077,0,1,0,9.519,12.75,1.077,1.077,0,0,0,8.442,11.673Zm8.615,0a1.077,1.077,0,1,0,1.077,1.077A1.077,1.077,0,0,0,17.058,11.673Z" transform="translate(-2.25 -2.25)"/>
</svg>
