<svg xmlns="http://www.w3.org/2000/svg" width="24" height="18.499" viewBox="0 0 24 18.499">
  <g id="Group_6573" data-name="Group 6573" transform="translate(-358 -602.75)">
    <path id="missed-call_4_" data-name="missed-call (4)" d="M5.5,7.734a.5.5,0,0,0,.5-.5V5.441l5.646,5.646a.5.5,0,0,0,.708,0l6.5-6.5a.5.5,0,1,0-.707-.707L12,10.027,6.707,4.734H8.5a.5.5,0,0,0,0-1h-3a.5.5,0,0,0-.5.5v3A.5.5,0,0,0,5.5,7.734Zm18.066,9.622a16.807,16.807,0,0,0-23.142.009A1.45,1.45,0,0,0,0,18.4a1.415,1.415,0,0,0,.424,1.024L2.8,21.8a1.518,1.518,0,0,0,2.044.023,10.5,10.5,0,0,1,2.428-1.69A1.514,1.514,0,0,0,8,18.734V16.108a15.821,15.821,0,0,1,4-.374,15.468,15.468,0,0,1,4,.371v2.629a1.485,1.485,0,0,0,.712,1.406,10.279,10.279,0,0,1,2.438,1.688,1.493,1.493,0,0,0,1.015.405,1.454,1.454,0,0,0,1.034-.424l2.377-2.377a1.47,1.47,0,0,0-.01-2.076Z" transform="translate(358 599.017)" fill="#fff"/>
  </g>
</svg>
