<svg xmlns="http://www.w3.org/2000/svg" width="27.999" height="28" viewBox="0 0 27.999 28">
  <path id="money" d="M26.895,12.9a14,14,0,1,0,14,14A14.015,14.015,0,0,0,26.895,12.9Zm4.4,18.276a4.154,4.154,0,0,1-1.7,1.424,5.331,5.331,0,0,1-1.669.437v1.882a.518.518,0,0,1-.519.519H25.849a.518.518,0,0,1-.519-.519V32.87a4.888,4.888,0,0,1-.869-.3,3.864,3.864,0,0,1-1.841-1.526,4.25,4.25,0,0,1-.714-2.286.519.519,0,0,1,.484-.539l1.394-.1a.519.519,0,0,1,.551.457,2.385,2.385,0,0,0,.38,1.117,1.872,1.872,0,0,0,.919.714,3.954,3.954,0,0,0,2.818.092,1.84,1.84,0,0,0,.759-.532,1.112,1.112,0,0,0,.209-.664.9.9,0,0,0-.208-.6,1.8,1.8,0,0,0-.8-.5c-.255-.084-.917-.273-1.926-.517a10.537,10.537,0,0,1-2.282-.746,3.529,3.529,0,0,1-1.4-1.23,3.12,3.12,0,0,1-.458-1.667,3.522,3.522,0,0,1,.555-1.893,3.611,3.611,0,0,1,1.633-1.313,4.288,4.288,0,0,1,.792-.263V18.84a.518.518,0,0,1,.519-.519H27.4a.518.518,0,0,1,.519.519v1.638a6.277,6.277,0,0,1,1.291.352,3.778,3.778,0,0,1,1.7,1.4,3.887,3.887,0,0,1,.654,2.033.52.52,0,0,1-.484.544l-1.427.1a.517.517,0,0,1-.55-.448,1.813,1.813,0,0,0-.6-1.249,2.453,2.453,0,0,0-1.644-.459,2.806,2.806,0,0,0-1.649.4.939.939,0,0,0-.4.793.76.76,0,0,0,.237.6,5.5,5.5,0,0,0,2.013.673,18.037,18.037,0,0,1,2.6.76,3.58,3.58,0,0,1,1.667,1.351,3.249,3.249,0,0,1,.55,1.852A3.608,3.608,0,0,1,31.293,31.171Z" transform="translate(-12.895 -12.895)"/>
</svg>
