<svg xmlns="http://www.w3.org/2000/svg" width="21" height="25.2" viewBox="0 0 21 25.2">
  <g id="bell_1_" data-name="bell (1)" transform="translate(-2)">
    <path id="Path_6394" data-name="Path 6394" d="M13.75,4.389a.525.525,0,0,1-.525-.525V2.1a1.05,1.05,0,1,0-2.1,0V3.864a.525.525,0,1,1-1.05,0V2.1a2.1,2.1,0,1,1,4.2,0V3.864A.525.525,0,0,1,13.75,4.389ZM12.175,25.2A3.679,3.679,0,0,1,8.5,21.525a.525.525,0,0,1,1.05,0,2.625,2.625,0,1,0,5.25,0,.525.525,0,0,1,1.05,0A3.679,3.679,0,0,1,12.175,25.2Z" transform="translate(0.325)"/>
    <path id="Path_6395" data-name="Path 6395" d="M21.425,21.9H3.575a1.575,1.575,0,0,1-1.024-2.772,7.3,7.3,0,0,0,2.6-5.588V10.35A7.358,7.358,0,0,1,12.5,3h0a7.358,7.358,0,0,1,7.35,7.35v3.19a7.292,7.292,0,0,0,2.59,5.581A1.575,1.575,0,0,1,21.425,21.9ZM12.5,4.05a6.306,6.306,0,0,0-6.3,6.3v3.19a8.342,8.342,0,0,1-2.962,6.383.525.525,0,0,0,.337.927h17.85a.525.525,0,0,0,.341-.924A8.348,8.348,0,0,1,18.8,13.54V10.35A6.306,6.306,0,0,0,12.5,4.05Z" transform="translate(0 0.15)"/>
  </g>
</svg>
