<svg xmlns="http://www.w3.org/2000/svg" width="22" height="22" viewBox="0 0 22 22">
  <g id="offer" transform="translate(-32.469 -32.52)">
    <path id="Path_6441" data-name="Path 6441" d="M52.164,44.337c.158.275.317.553.477.828.1.181.209.36.312.541a3.334,3.334,0,0,1,.174.321l-.069-.165a1.074,1.074,0,0,1,.062.239c-.009-.062-.016-.122-.025-.184a.941.941,0,0,1,0,.241c.009-.062.016-.122.025-.184a1.018,1.018,0,0,1-.062.232l.069-.165c-.007.018-.08.188-.1.186a.881.881,0,0,1,.062-.078c-.014.014-.028.032-.041.046s-.135.117-.034.039-.009,0-.041.021a.251.251,0,0,1-.034.018c-.122.071-.243.14-.362.209l-1.028.592a2.648,2.648,0,0,0-.427.291,1.638,1.638,0,0,0-.537,1.207c0,.289,0,.58,0,.869v.677a3.078,3.078,0,0,1-.009.385c.009-.062.016-.122.025-.184a1.036,1.036,0,0,1-.062.234l.069-.165a1.485,1.485,0,0,1-.083.158c-.053.089.1-.11.046-.057-.021.021-.039.044-.06.064s-.037.032-.055.05c-.083.078.145-.092.046-.037a1.293,1.293,0,0,1-.158.083l.165-.069a1.036,1.036,0,0,1-.234.062l.184-.025a7.717,7.717,0,0,1-.892.009c-.34,0-.677,0-1.016,0a1.684,1.684,0,0,0-1.473.883q-.279.485-.56.97c-.092.158-.181.317-.273.473-.021.034-.039.071-.062.106-.076.119.108-.119.011-.014-.028.03-.06.057-.089.085s.078-.069.078-.062a.391.391,0,0,1-.064.041.852.852,0,0,1-.122.06l.165-.069a1.017,1.017,0,0,1-.232.062l.184-.025a1.209,1.209,0,0,1-.241,0l.184.025a1.074,1.074,0,0,1-.239-.062l.165.069a7.31,7.31,0,0,1-.716-.4l-.9-.518a1.875,1.875,0,0,0-.686-.243,1.664,1.664,0,0,0-1.044.213l-.814.468a8.934,8.934,0,0,1-.853.482l.165-.069a1.074,1.074,0,0,1-.239.062l.184-.025a.941.941,0,0,1-.241,0l.184.025a1.017,1.017,0,0,1-.232-.062l.165.069c-.018-.007-.188-.08-.186-.1a.882.882,0,0,1,.078.062c-.016-.014-.032-.028-.046-.041s-.117-.135-.039-.034,0-.009-.021-.041a.25.25,0,0,1-.018-.034c-.071-.122-.14-.243-.209-.362l-.592-1.025a2.648,2.648,0,0,0-.291-.427,1.638,1.638,0,0,0-1.207-.537c-.289,0-.58,0-.869,0h-.677a3.078,3.078,0,0,1-.385-.009l.184.025a1.036,1.036,0,0,1-.234-.062l.165.069a1.484,1.484,0,0,1-.158-.083c-.089-.053.11.1.057.046-.021-.021-.044-.039-.064-.06s-.032-.037-.05-.055c-.078-.083.092.145.037.046a1.294,1.294,0,0,1-.083-.158l.069.165a1.036,1.036,0,0,1-.062-.234c.009.062.016.122.025.184a7.716,7.716,0,0,1-.009-.892c0-.34,0-.677,0-1.016a1.684,1.684,0,0,0-.883-1.473q-.485-.279-.97-.56c-.158-.092-.317-.181-.473-.273-.034-.021-.071-.039-.106-.062-.119-.076.119.108.014.011-.03-.028-.057-.06-.085-.089s.069.078.062.078a.39.39,0,0,1-.041-.064.852.852,0,0,1-.06-.122l.069.165a1.017,1.017,0,0,1-.062-.232c.009.062.016.122.025.184a1.207,1.207,0,0,1,0-.241c-.009.062-.016.122-.025.184a1.074,1.074,0,0,1,.062-.239l-.069.165a7.307,7.307,0,0,1,.4-.716c.172-.3.346-.6.518-.9a1.875,1.875,0,0,0,.243-.686,1.664,1.664,0,0,0-.213-1.044c-.156-.273-.312-.544-.468-.814a8.932,8.932,0,0,1-.482-.853l.069.165a1.074,1.074,0,0,1-.062-.239c.009.062.016.122.025.184a.941.941,0,0,1,0-.241c-.009.062-.016.122-.025.184a1.017,1.017,0,0,1,.062-.232L33.823,41c.007-.018.08-.188.1-.186a.881.881,0,0,1-.062.078c.014-.016.028-.032.041-.046s.135-.117.034-.039.009,0,.041-.021a.251.251,0,0,1,.034-.018c.122-.071.243-.14.362-.209l1.025-.592a2.648,2.648,0,0,0,.427-.291,1.638,1.638,0,0,0,.537-1.207c0-.289,0-.58,0-.869V36.92a3.078,3.078,0,0,1,.009-.385c-.009.062-.016.122-.025.184a1.036,1.036,0,0,1,.062-.234l-.069.165a1.485,1.485,0,0,1,.083-.158c.053-.089-.1.11-.046.057.021-.021.039-.044.06-.064s.037-.032.055-.05c.083-.078-.145.092-.046.037a1.293,1.293,0,0,1,.158-.083l-.165.069a1.036,1.036,0,0,1,.234-.062l-.184.025a7.717,7.717,0,0,1,.892-.009c.34,0,.677,0,1.016,0a1.684,1.684,0,0,0,1.473-.883q.279-.485.56-.97c.092-.158.181-.317.273-.473.021-.034.039-.071.062-.106.076-.119-.108.119-.011.014.028-.03.06-.057.089-.085s-.078.069-.078.062a.391.391,0,0,1,.064-.041.852.852,0,0,1,.122-.06l-.165.069a1.018,1.018,0,0,1,.232-.062l-.184.025a1.207,1.207,0,0,1,.241,0l-.184-.025a1.074,1.074,0,0,1,.239.062l-.165-.069a7.309,7.309,0,0,1,.716.4l.9.518a1.875,1.875,0,0,0,.686.243,1.664,1.664,0,0,0,1.044-.213l.814-.468a8.934,8.934,0,0,1,.853-.482l-.165.069a1.074,1.074,0,0,1,.239-.062l-.184.025a.94.94,0,0,1,.241,0l-.184-.025a1.017,1.017,0,0,1,.232.062L46,33.869c.018.007.188.08.186.1a.882.882,0,0,1-.078-.062c.016.014.032.028.046.041s.117.135.039.034,0,.009.021.041a.251.251,0,0,1,.018.034c.071.122.14.243.209.362l.592,1.025a2.648,2.648,0,0,0,.291.427,1.638,1.638,0,0,0,1.207.537c.289,0,.58,0,.869,0h.677a3.079,3.079,0,0,1,.385.009l-.184-.025a1.036,1.036,0,0,1,.234.062l-.165-.069a1.485,1.485,0,0,1,.158.083c.089.053-.11-.1-.057-.046.021.021.044.039.064.06s.032.037.05.055c.078.083-.092-.145-.037-.046a1.293,1.293,0,0,1,.083.158l-.069-.165a1.036,1.036,0,0,1,.062.234c-.009-.062-.016-.122-.025-.184a7.716,7.716,0,0,1,.009.892c0,.34,0,.677,0,1.016a1.684,1.684,0,0,0,.883,1.473q.485.279.97.56c.158.092.317.181.473.273.034.021.071.039.106.062.119.076-.119-.108-.014-.011.03.028.057.06.085.089s-.069-.078-.062-.078a.39.39,0,0,1,.041.064.852.852,0,0,1,.06.122l-.069-.165a1.017,1.017,0,0,1,.062.232c-.009-.062-.016-.122-.025-.184a1.207,1.207,0,0,1,0,.241c.009-.062.016-.122.025-.184a1.074,1.074,0,0,1-.062.239l.069-.165a8.053,8.053,0,0,1-.463.824c-.165.287-.335.574-.5.863a1.673,1.673,0,0,0,0,1.638.694.694,0,0,0,.941.248.7.7,0,0,0,.248-.941c-.018-.034-.034-.067-.05-.1l.069.165a1.067,1.067,0,0,1-.067-.255c.009.062.016.122.025.184a1.227,1.227,0,0,1,0-.225c-.009.062-.016.122-.025.184a1.067,1.067,0,0,1,.067-.255L53.3,43.5c.133-.3.326-.578.486-.86s.317-.544.47-.817a1.653,1.653,0,0,0-.608-2.234c-.31-.181-.622-.358-.931-.537-.181-.1-.36-.209-.541-.312-.03-.018-.062-.034-.092-.053s-.138-.1-.041-.021-.028-.034-.05-.057-.048-.094.046.064c-.011-.018-.025-.037-.037-.053a.856.856,0,0,1-.073-.145l.069.165a1.042,1.042,0,0,1-.06-.22c.009.062.016.122.025.184a7.459,7.459,0,0,1-.009-.934c0-.33,0-.663,0-.993a1.7,1.7,0,0,0-.408-1.085,1.624,1.624,0,0,0-1.156-.551c-.3-.021-.608,0-.911,0H48.8a3.506,3.506,0,0,1-.411-.009l.184.025a1.042,1.042,0,0,1-.22-.06l.165.069a.916.916,0,0,1-.117-.057c-.028-.016-.14-.1-.037-.018s0-.009-.028-.032c0,0-.044-.039-.044-.048,0,.018.106.149.039.046-.021-.032-.039-.064-.057-.1-.083-.142-.163-.284-.245-.427-.2-.344-.4-.686-.594-1.03a1.846,1.846,0,0,0-.569-.622,1.627,1.627,0,0,0-1.326-.195,5.1,5.1,0,0,0-1.028.537l-.645.372c-.124.071-.245.149-.376.209l.165-.069a1.067,1.067,0,0,1-.255.067l.184-.025a1.227,1.227,0,0,1-.225,0l.184.025a1.067,1.067,0,0,1-.255-.067l.165.069a9.641,9.641,0,0,1-.86-.489c-.275-.17-.546-.33-.821-.484a1.652,1.652,0,0,0-2.234.608c-.181.31-.358.622-.537.931-.1.181-.209.36-.312.541-.018.03-.034.062-.053.092s-.1.138-.021.041-.034.028-.057.05-.094.048.064-.046c-.018.011-.037.025-.053.037a.856.856,0,0,1-.145.073l.165-.069a1.042,1.042,0,0,1-.22.06l.184-.025a7.46,7.46,0,0,1-.934.009c-.33,0-.663,0-.993,0a1.7,1.7,0,0,0-1.085.408,1.624,1.624,0,0,0-.551,1.156c-.021.3,0,.608,0,.911v.681a3.507,3.507,0,0,1-.009.411c.009-.062.016-.122.025-.184a1.042,1.042,0,0,1-.06.22l.069-.165a.917.917,0,0,1-.057.117c-.016.028-.1.14-.018.037s-.009,0-.032.028c0,0-.039.044-.048.044.018,0,.149-.106.046-.039-.032.021-.064.039-.1.057l-.427.245c-.344.2-.686.4-1.03.594a1.846,1.846,0,0,0-.622.569,1.627,1.627,0,0,0-.195,1.326,5.1,5.1,0,0,0,.537,1.028l.372.645c.071.124.149.245.209.376l-.069-.165a1.068,1.068,0,0,1,.067.255c-.009-.062-.016-.122-.025-.184a1.227,1.227,0,0,1,0,.225c.009-.062.016-.122.025-.184a1.068,1.068,0,0,1-.067.255l.069-.165a9.642,9.642,0,0,1-.489.86c-.165.275-.326.546-.479.821a1.652,1.652,0,0,0,.608,2.234c.31.181.622.358.931.537.181.1.36.209.541.312.03.018.062.034.092.053s.138.1.041.021.028.034.05.057.048.094-.046-.064c.011.018.025.037.037.053a.856.856,0,0,1,.073.145L34.94,48.4a1.043,1.043,0,0,1,.06.22c-.009-.062-.016-.122-.025-.184a7.459,7.459,0,0,1,.009.934c0,.33,0,.663,0,.993a1.7,1.7,0,0,0,.408,1.085A1.624,1.624,0,0,0,36.549,52c.3.021.608,0,.911,0h.681a3.505,3.505,0,0,1,.411.009l-.184-.025a1.042,1.042,0,0,1,.22.06l-.165-.069a.917.917,0,0,1,.117.057c.028.016.14.1.037.018s0,.009.028.032c0,0,.044.039.044.048,0-.018-.106-.149-.039-.046.021.032.039.064.057.1.083.142.163.284.245.427.2.344.4.686.594,1.03a1.846,1.846,0,0,0,.569.622,1.627,1.627,0,0,0,1.326.195,5.1,5.1,0,0,0,1.028-.537l.645-.372c.124-.071.245-.149.376-.209l-.165.069a1.067,1.067,0,0,1,.255-.067l-.184.025a1.226,1.226,0,0,1,.225,0l-.184-.025a1.067,1.067,0,0,1,.255.067l-.165-.069a9.641,9.641,0,0,1,.86.489c.273.156.544.319.817.47a1.652,1.652,0,0,0,2.234-.608c.181-.31.358-.622.537-.931.1-.181.209-.36.312-.541.018-.03.034-.062.053-.092s.1-.138.021-.041.034-.028.057-.05.094-.048-.064.046c.018-.011.037-.025.053-.037a.856.856,0,0,1,.145-.073l-.165.069a1.042,1.042,0,0,1,.22-.06l-.184.025A7.46,7.46,0,0,1,49.315,52c.33,0,.663,0,.993,0a1.7,1.7,0,0,0,1.085-.408,1.624,1.624,0,0,0,.551-1.156c.021-.3,0-.608,0-.911V48.84a3.505,3.505,0,0,1,.009-.411c-.009.062-.016.122-.025.184a1.042,1.042,0,0,1,.06-.22l-.069.165a.916.916,0,0,1,.057-.117c.016-.025.1-.14.018-.037s.009,0,.032-.028c.009-.007.048-.037.048-.044,0,.011-.14.1-.06.048.037-.023.073-.046.112-.067l.418-.241c.344-.2.688-.4,1.03-.594a1.933,1.933,0,0,0,.6-.537,1.617,1.617,0,0,0,.234-1.319,4.253,4.253,0,0,0-.525-1.032l-.551-.957a.7.7,0,0,0-.941-.248.72.72,0,0,0-.234.95Z" transform="translate(0 0)"/>
    <path id="Path_6442" data-name="Path 6442" d="M305.295,297.778l-.729.729-1.75,1.75-2.117,2.117-1.831,1.831c-.3.3-.6.59-.892.892l-.014.014a.688.688,0,0,0,.973.973l.729-.729,1.75-1.75,2.117-2.117,1.831-1.831c.3-.3.6-.59.892-.892l.014-.014a.688.688,0,1,0-.973-.973Zm-5.412,1.92c-.032.032-.064.06-.1.089-.087.078.154-.106.009-.009a1.422,1.422,0,0,1-.225.122l.165-.069a1.556,1.556,0,0,1-.392.108l.184-.025a1.7,1.7,0,0,1-.374,0l.184.025a1.557,1.557,0,0,1-.392-.108l.165.069a1.422,1.422,0,0,1-.225-.122c-.145-.1.094.087.009.009-.032-.03-.066-.057-.1-.089s-.06-.064-.089-.1c-.078-.087.105.154.009.009a1.417,1.417,0,0,1-.122-.225l.069.165a1.555,1.555,0,0,1-.108-.392c.009.062.016.122.025.184a1.7,1.7,0,0,1,0-.374c-.009.062-.016.122-.025.183a1.556,1.556,0,0,1,.108-.392l-.069.165a1.416,1.416,0,0,1,.122-.225c.1-.145-.087.094-.009.009.03-.032.057-.066.089-.1s.064-.06.1-.089c.087-.078-.154.106-.009.009a1.419,1.419,0,0,1,.225-.122l-.165.069a1.557,1.557,0,0,1,.392-.108l-.184.025a1.7,1.7,0,0,1,.374,0l-.184-.025a1.556,1.556,0,0,1,.392.108l-.165-.069a1.419,1.419,0,0,1,.225.122c.145.1-.094-.087-.009-.009.032.03.067.057.1.089s.06.064.089.1c.078.087-.106-.154-.009-.009a1.421,1.421,0,0,1,.122.225l-.069-.165a1.556,1.556,0,0,1,.108.392c-.009-.062-.016-.122-.025-.183a1.7,1.7,0,0,1,0,.374c.009-.062.016-.122.025-.184a1.555,1.555,0,0,1-.108.392l.069-.165a1.422,1.422,0,0,1-.122.225c-.1.145.087-.094.009-.009-.03.034-.057.067-.089.1a.688.688,0,1,0,.973.973,2.109,2.109,0,0,0,.587-1.106,2.28,2.28,0,0,0-.184-1.372,2.146,2.146,0,0,0-2.081-1.186,2.254,2.254,0,0,0-1.266.532,2.092,2.092,0,0,0-.661,1.071,2.151,2.151,0,0,0,3.6,2.058.687.687,0,1,0-.973-.97Zm5.563,5.556c-.032.032-.064.06-.1.089-.087.078.154-.106.009-.009a1.42,1.42,0,0,1-.225.122l.165-.069a1.555,1.555,0,0,1-.392.108l.184-.025a1.694,1.694,0,0,1-.374,0l.184.025a1.555,1.555,0,0,1-.392-.108l.165.069a1.42,1.42,0,0,1-.225-.122c-.145-.1.094.087.009.009-.032-.03-.067-.057-.1-.089s-.06-.064-.089-.1c-.078-.087.106.154.009.009a1.419,1.419,0,0,1-.122-.225l.069.165a1.555,1.555,0,0,1-.108-.392c.009.062.016.122.025.184a1.7,1.7,0,0,1,0-.374c-.009.062-.016.122-.025.184a1.556,1.556,0,0,1,.108-.392l-.069.165a1.419,1.419,0,0,1,.122-.225c.1-.145-.087.094-.009.009.03-.032.057-.067.089-.1s.064-.06.1-.089c.087-.078-.154.106-.009.009a1.415,1.415,0,0,1,.225-.122l-.165.069a1.555,1.555,0,0,1,.392-.108l-.184.025a1.7,1.7,0,0,1,.374,0l-.184-.025a1.555,1.555,0,0,1,.392.108l-.165-.069a1.415,1.415,0,0,1,.225.122c.145.1-.094-.087-.009-.009.032.03.066.057.1.089s.06.064.089.1c.078.087-.106-.154-.009-.009a1.419,1.419,0,0,1,.122.225l-.069-.165a1.556,1.556,0,0,1,.108.392c-.009-.062-.016-.122-.025-.184a1.7,1.7,0,0,1,0,.374c.009-.062.016-.122.025-.184a1.555,1.555,0,0,1-.108.392l.069-.165a1.419,1.419,0,0,1-.122.225c-.1.145.087-.094.009-.009-.03.034-.06.067-.089.1a.688.688,0,0,0,.973.973,2.109,2.109,0,0,0,.587-1.106,2.28,2.28,0,0,0-.184-1.372,2.146,2.146,0,0,0-2.081-1.186,2.254,2.254,0,0,0-1.266.532,2.091,2.091,0,0,0-.661,1.071,2.151,2.151,0,0,0,3.6,2.058.687.687,0,1,0-.973-.97Z" transform="translate(-258.646 -258.41)"/>
  </g>
</svg>
