<?xml version="1.0" encoding="UTF-8"?>
<svg version="1.1" xmlns="http://www.w3.org/2000/svg" width="200" height="200">
<path d="M0 0 C1.44726645 1.17557744 2.88480175 2.36323347 4.3125 3.5625 C5.06273437 4.17867187 5.81296875 4.79484375 6.5859375 5.4296875 C24.63333878 20.76689883 36.69301514 44.01031758 39.3125 67.5625 C40.77370967 99.44343824 34.16020469 126.42376568 12.40234375 150.34375 C-4.68680607 168.45514461 -28.87374114 180.09230189 -53.921875 180.86328125 C-56.09366634 180.88273997 -58.26565061 180.88624645 -60.4375 180.875 C-61.58202637 180.86936035 -62.72655273 180.8637207 -63.90576172 180.85791016 C-90.71624239 180.47419774 -114.88250885 169.5895349 -133.6875 150.5625 C-154.73201742 127.62276765 -161.95696025 101.12300122 -160.8515625 70.51269531 C-159.71997879 50.16439531 -150.66088389 31.00700463 -137.6875 15.5625 C-137.07132813 14.81226563 -136.45515625 14.06203125 -135.8203125 13.2890625 C-102.52411322 -25.89080252 -40.35432179 -30.61362343 0 0 Z " fill="#FDFEFE" transform="translate(160.6875,19.4375)"/>
<path d="M0 0 C3.32574725 1.79416555 4.92678421 2.38842773 8.82080078 2.38842773 C11.03408283 1.16049784 11.03408283 1.16049784 13.19580078 -0.48657227 C21.90124347 -6.52215651 31.0805362 -6.77282058 41.35205078 -6.70922852 C42.66683411 -6.70710609 42.66683411 -6.70710609 44.00817871 -6.7049408 C46.779089 -6.69938995 49.54991535 -6.68684688 52.32080078 -6.67407227 C54.21142461 -6.6690509 56.10204971 -6.66448911 57.99267578 -6.66040039 C62.60208261 -6.64943667 67.21142751 -6.63220651 71.82080078 -6.61157227 C68.75390335 4.68875461 63.63851736 13.59410272 53.82080078 20.38842773 C39.79770609 28.38842773 39.79770609 28.38842773 31.82080078 28.38842773 C31.82080078 29.04842773 31.82080078 29.70842773 31.82080078 30.38842773 C39.74080078 30.05842773 47.66080078 29.72842773 55.82080078 29.38842773 C54.138513 39.48215441 49.9121211 47.01775725 41.82080078 53.38842773 C36.58586119 56.77833803 31.68393329 58.47132706 25.57080078 59.57592773 C22.11373859 60.35541819 20.35784983 60.75695247 18.04345703 63.47827148 C17.08674017 65.19824169 16.16703421 66.93922292 15.28173828 68.69702148 C9.92800508 78.559915 -0.38965382 84.76458086 -10.77685547 88.26342773 C-24.64500412 91.51060401 -38.24912267 89.36439251 -50.47998047 82.22827148 C-61.41871007 74.77220543 -68.60442144 64.18506071 -71.61669922 51.26342773 C-73.5388542 38.3997752 -72.17991045 26.48421519 -65.17919922 15.38842773 C-57.09055984 4.93802915 -46.91473682 -3.74387827 -33.65966797 -6.29907227 C-21.2037102 -7.86832679 -10.94902055 -5.98714371 0 0 Z " fill="#20ACE4" transform="translate(104.17919921875,66.611572265625)"/>
<path d="M0 0 C1.31478333 0.00212242 1.31478333 0.00212242 2.65612793 0.00428772 C5.42703821 0.00983857 8.19786457 0.02238164 10.96875 0.03515625 C12.85937382 0.04017761 14.74999893 0.0447394 16.640625 0.04882812 C21.25003183 0.05979185 25.85937673 0.077022 30.46875 0.09765625 C27.40185257 11.39798312 22.28646658 20.30333124 12.46875 27.09765625 C-1.55434469 35.09765625 -1.55434469 35.09765625 -9.53125 35.09765625 C-9.53125 35.75765625 -9.53125 36.41765625 -9.53125 37.09765625 C-1.61125 36.76765625 6.30875 36.43765625 14.46875 36.09765625 C12.78646222 46.19138292 8.56007032 53.72698577 0.46875 60.09765625 C-4.7661896 63.48756654 -9.66811749 65.18055557 -15.78125 66.28515625 C-19.23831219 67.06464671 -20.99420095 67.46618099 -23.30859375 70.1875 C-24.26531061 71.90747021 -25.18501657 73.64845144 -26.0703125 75.40625 C-31.26661082 84.97910975 -41.42866643 91.36557123 -51.55859375 94.78125 C-54.15380259 95.19751122 -56.65447986 95.19142732 -59.28125 95.16015625 C-60.26609375 95.15113281 -61.2509375 95.14210938 -62.265625 95.1328125 C-63.01328125 95.12121094 -63.7609375 95.10960937 -64.53125 95.09765625 C-63.94980946 88.35931793 -62.21808913 82.37790711 -60.09375 75.97265625 C-59.74248047 74.90023682 -59.39121094 73.82781738 -59.02929688 72.72290039 C-58.2687557 70.40527395 -57.50513474 68.08865636 -56.73876953 65.77294922 C-55.70419207 62.62403513 -54.68875197 59.47026127 -53.68339539 56.3119812 C-39.56548827 12.01470739 -39.56548827 12.01470739 -25.46875 4.05859375 C-17.38699858 0.05030575 -8.83118185 -0.05467481 0 0 Z " fill="#208CCD" transform="translate(145.53125,59.90234375)"/>
<path d="M0 0 C1.44726645 1.17557744 2.88480175 2.36323347 4.3125 3.5625 C5.06273437 4.17867187 5.81296875 4.79484375 6.5859375 5.4296875 C24.63333878 20.76689883 36.69301514 44.01031758 39.3125 67.5625 C40.77370967 99.44343824 34.16020469 126.42376568 12.40234375 150.34375 C-4.68680607 168.45514461 -28.87374114 180.09230189 -53.921875 180.86328125 C-56.09366634 180.88273997 -58.26565061 180.88624645 -60.4375 180.875 C-61.58202637 180.86936035 -62.72655273 180.8637207 -63.90576172 180.85791016 C-90.71624239 180.47419774 -114.88250885 169.5895349 -133.6875 150.5625 C-154.73201742 127.62276765 -161.95696025 101.12300122 -160.8515625 70.51269531 C-159.71997879 50.16439531 -150.66088389 31.00700463 -137.6875 15.5625 C-137.07132813 14.81226563 -136.45515625 14.06203125 -135.8203125 13.2890625 C-102.52411322 -25.89080252 -40.35432179 -30.61362343 0 0 Z M-132.80078125 16.27734375 C-149.8496449 35.16285313 -158.08553787 60.11577848 -156.8203125 85.3359375 C-155.47364984 107.91234089 -146.98674777 128.82573902 -131.6875 145.5625 C-130.93984375 146.40296875 -130.1921875 147.2434375 -129.421875 148.109375 C-116.70522114 161.66819137 -100.48677862 169.78502142 -82.6875 174.5625 C-81.91148438 174.77132812 -81.13546875 174.98015625 -80.3359375 175.1953125 C-55.87143672 180.49175081 -29.01960393 175.09357579 -8.0625 161.625 C13.7702895 145.87222783 29.11614927 123.73369902 34.5625 97.1875 C38.21179046 71.87469438 33.31720021 46.31103704 18.41796875 25.2734375 C14.947569 20.80505637 11.21686542 16.65278758 7.3125 12.5625 C6.77367187 11.94890625 6.23484375 11.3353125 5.6796875 10.703125 C-8.22130037 -4.52509287 -32.79408806 -14.60007248 -53.00366211 -15.54589844 C-84.01890272 -16.30992859 -111.13993095 -6.6278912 -132.80078125 16.27734375 Z " fill="#23AEE4" transform="translate(160.6875,19.4375)"/>
<path d="M0 0 C3.70756388 2.47170925 5.22452944 4.54858832 6.625 8.75 C6.99378104 14.37391086 6.7928247 17.88512635 3.625 22.75 C-0.34194307 26.34504215 -3.98467522 27.04710036 -9.3125 26.96875 C-13.47794066 26.52696084 -16.41248345 24.81208723 -19.1875 21.75 C-21.8366464 17.28827975 -21.99605516 12.79607316 -21.375 7.75 C-16.81410402 -1.37179196 -9.24570008 -3.42433336 0 0 Z " fill="#FBFDFE" transform="translate(87.375,95.25)"/>
</svg>
