<svg xmlns="http://www.w3.org/2000/svg" width="144" height="144" viewBox="0 0 144 144">
  <g id="Group_6450" data-name="Group 6450" transform="translate(-142 -59)">
    <g id="Group_6449" data-name="Group 6449">
      <g id="Group_6448" data-name="Group 6448">
        <g id="_8435a7154a0b02cec5ff068d0b1a70b2" data-name="8435a7154a0b02cec5ff068d0b1a70b2" transform="translate(142 59)" fill="#fff" stroke="#707070" stroke-width="1">
          <circle cx="72" cy="72" r="72" stroke="none"/>
          <circle cx="72" cy="72" r="71.5" fill="none"/>
        </g>
      </g>
    </g>
    <g id="camera_1_" data-name="camera (1)" transform="translate(184.656 107.09)">
      <path id="Path_6174" data-name="Path 6174" d="M48.776,11.113H46.182a.973.973,0,0,1-.8-.454L43.4,7.421a8.487,8.487,0,0,0-7.27-4.051H23.559a8.487,8.487,0,0,0-7.27,4.051L14.3,10.659a.973.973,0,0,1-.8.454H10.912A10.419,10.419,0,0,0,.5,21.525V40.779A10.431,10.431,0,0,0,10.912,51.191H48.776A10.431,10.431,0,0,0,59.188,40.779V21.525A10.419,10.419,0,0,0,48.776,11.113ZM29.844,42.691A12.306,12.306,0,1,1,42.15,30.385,12.33,12.33,0,0,1,29.844,42.691Z" transform="translate(-0.5 -3.37)"/>
      <circle id="Ellipse_622" data-name="Ellipse 622" cx="6.626" cy="6.626" r="6.626" transform="translate(22.718 20.389)"/>
    </g>
  </g>
</svg>
