<svg xmlns="http://www.w3.org/2000/svg" width="20" height="20" viewBox="0 0 20 20">
  <path id="call-made_2_" data-name="call-made (2)" d="M19.5,16.493a10.863,10.863,0,0,1-3.408-.542,1.508,1.508,0,0,0-1.483.314l-2.157,1.629A12.048,12.048,0,0,1,7.09,12.533l1.585-2.106A1.513,1.513,0,0,0,9.046,8.9,10.858,10.858,0,0,1,8.5,5.483,1.5,1.5,0,0,0,7,3.983H3.5A1.5,1.5,0,0,0,2,5.483a17.521,17.521,0,0,0,17.5,17.5,1.5,1.5,0,0,0,1.5-1.5v-3.49A1.5,1.5,0,0,0,19.5,16.493Zm2.462-13.2a.5.5,0,0,0-.462-.309h-6a.5.5,0,0,0,0,1h4.793l-9.146,9.146a.5.5,0,0,0,0,.707.5.5,0,0,0,.353.147.5.5,0,0,0,.354-.146L21,4.69V9.483a.5.5,0,0,0,1,0v-6A.5.5,0,0,0,21.962,3.292Z" transform="translate(-2 -2.983)" fill="#fff"/>
</svg>
