<svg xmlns="http://www.w3.org/2000/svg" width="32" height="38.496" viewBox="0 0 32 38.496">
  <g id="Group_6575" data-name="Group 6575" transform="translate(-21 -512)">
    <g id="passport" transform="translate(16.9 512)">
      <path id="Path_7375" data-name="Path 7375" d="M22.165,25.829a9.858,9.858,0,0,0,9.865-9.865A9.962,9.962,0,0,0,22.165,6.1a9.865,9.865,0,0,0,0,19.729Zm-5.935-4.09a13.963,13.963,0,0,1,1.123-.962,15.387,15.387,0,0,0,1.123,2.566A8.838,8.838,0,0,1,16.23,21.739Zm2.085-5.774a21.339,21.339,0,0,1,.16-2.406,8.441,8.441,0,0,0,2.887.642v3.449a12.457,12.457,0,0,0-2.887.642,18.673,18.673,0,0,1-.16-2.326Zm7.619,0a21.339,21.339,0,0,1-.16,2.406,11,11,0,0,0-2.807-.642V14.28a11,11,0,0,0,2.807-.642,10.97,10.97,0,0,1,.16,2.326Zm-2.967,8.02V19.333a8.733,8.733,0,0,1,2.486.642C24.892,22.06,23.929,23.5,22.967,23.985Zm0-11.308V7.945a6.522,6.522,0,0,1,2.486,4.01,6.823,6.823,0,0,1-2.486.722Zm-1.6-4.732V12.6a8.094,8.094,0,0,1-2.486-.642A6.106,6.106,0,0,1,21.363,7.945Zm0,11.389v4.732c-.962-.481-1.925-1.925-2.486-4.01A6.4,6.4,0,0,1,21.363,19.333Zm4.411,4.01A8.305,8.305,0,0,0,26.9,20.777a6.467,6.467,0,0,1,1.123.962A8.838,8.838,0,0,1,25.774,23.343Zm3.288-2.887A9.45,9.45,0,0,0,27.3,19.093a19.055,19.055,0,0,0,.241-3.128,19.055,19.055,0,0,0-.241-3.128,9.451,9.451,0,0,0,1.764-1.363,7.821,7.821,0,0,1,1.363,4.491A9.242,9.242,0,0,1,29.062,20.456ZM28.019,10.19a13.963,13.963,0,0,1-1.123.962,15.387,15.387,0,0,0-1.123-2.566A8.838,8.838,0,0,1,28.019,10.19Zm-9.464-1.6a8.305,8.305,0,0,0-1.123,2.566,6.467,6.467,0,0,1-1.123-.962A6.706,6.706,0,0,1,18.556,8.586Zm-3.288,2.887a14.753,14.753,0,0,0,1.764,1.363,19.055,19.055,0,0,0-.241,3.128,19.055,19.055,0,0,0,.241,3.128,14.753,14.753,0,0,0-1.764,1.363,8.079,8.079,0,0,1,0-8.982Z" transform="translate(-1.624 -1.208)"/>
      <g id="Group_6573" data-name="Group 6573">
        <path id="Path_7376" data-name="Path 7376" d="M32.812,0H7.308A3.217,3.217,0,0,0,4.1,3.208v32.08A3.217,3.217,0,0,0,7.308,38.5H32.892A3.217,3.217,0,0,0,36.1,35.288V3.208A3.287,3.287,0,0,0,32.812,0Zm1.6,35.288a1.609,1.609,0,0,1-1.6,1.6H7.308a1.609,1.609,0,0,1-1.6-1.6V3.208a1.609,1.609,0,0,1,1.6-1.6H32.892a1.609,1.609,0,0,1,1.6,1.6v32.08Z"/>
      </g>
      <path id="Path_7377" data-name="Path 7377" d="M32.017,34.1H10.2a.8.8,0,1,0,0,1.6H31.936a.758.758,0,0,0,.8-.8A.741.741,0,0,0,32.017,34.1Zm-7.539,4.652H10.2a.8.8,0,1,0,0,1.6H24.478a.758.758,0,0,0,.8-.8A.8.8,0,0,0,24.478,38.752Z" transform="translate(-1.049 -6.752)"/>
    </g>
  </g>
</svg>
