<svg xmlns="http://www.w3.org/2000/svg" width="56" height="56" viewBox="0 0 56 56">
  <path id="otp" d="M84.2,41.08H60.12V34.909A3.905,3.905,0,0,0,56.211,31h-21.3A3.905,3.905,0,0,0,31,34.909V83.091A3.912,3.912,0,0,0,34.909,87h21.3a3.912,3.912,0,0,0,3.909-3.909V63.48H84.2a2.8,2.8,0,0,0,2.8-2.8V43.883A2.8,2.8,0,0,0,84.2,41.08ZM42.76,33.374h5.6a1.4,1.4,0,1,1,0,2.8h-5.6a1.4,1.4,0,0,1,0-2.8Zm5.6,51.242h-5.6a1.4,1.4,0,1,1,0-2.8h5.6a1.4,1.4,0,1,1,0,2.8Zm9.3-5.176H33.464V38.56H57.656v2.52H42.737a2.777,2.777,0,0,0-2.777,2.777V60.7a2.78,2.78,0,0,0,2.779,2.779H47.8v4.5a1.384,1.384,0,0,0,2.363.979L55.64,63.48h2.016ZM54.621,53.3a1.4,1.4,0,1,1-1.4,2.43L51.44,54.7V56.76a1.4,1.4,0,1,1-2.8,0V54.7l-1.781,1.03a1.394,1.394,0,0,1-1.915-.515,1.408,1.408,0,0,1,.515-1.915L47.24,52.28l-1.781-1.03a1.4,1.4,0,1,1,1.4-2.43l1.781,1.03V47.8a1.4,1.4,0,0,1,2.8,0v2.05l1.781-1.03a1.4,1.4,0,1,1,1.4,2.43L52.84,52.28Zm13.44,0a1.4,1.4,0,1,1-1.4,2.43L64.88,54.7V56.76a1.4,1.4,0,1,1-2.8,0V54.7L60.3,55.73a1.394,1.394,0,0,1-1.915-.515A1.408,1.408,0,0,1,58.9,53.3L60.68,52.28,58.9,51.25a1.4,1.4,0,1,1,1.4-2.43l1.781,1.03V47.8a1.4,1.4,0,0,1,2.8,0v2.05l1.781-1.03a1.4,1.4,0,1,1,1.4,2.43L66.28,52.28Zm13.44,0a1.4,1.4,0,1,1-1.4,2.43L78.32,54.7V56.76a1.4,1.4,0,1,1-2.8,0V54.7l-1.781,1.03a1.394,1.394,0,0,1-1.915-.515,1.408,1.408,0,0,1,.515-1.915L74.12,52.28l-1.781-1.03a1.4,1.4,0,1,1,1.4-2.43l1.781,1.03V47.8a1.4,1.4,0,0,1,2.8,0v2.05l1.781-1.03a1.4,1.4,0,0,1,1.4,2.43L79.72,52.28Z" transform="translate(-31 -31)"/>
</svg>
