<svg xmlns="http://www.w3.org/2000/svg" width="96" height="66.103" viewBox="0 0 96 66.103">
  <g id="Group_6568" data-name="Group 6568" transform="translate(-166 -431.19)">
    <g id="Group_6567" data-name="Group 6567">
      <g id="telephone" transform="translate(6.26 271.45)">
        <path id="Path_6168" data-name="Path 6168" d="M213.74,186.74a27,27,0,1,1-27-27A27,27,0,0,1,213.74,186.74Z" fill="#093"/>
        <path id="Path_6169" data-name="Path 6169" d="M443.589,342.239a6.074,6.074,0,0,0,3.091-.191c.221-.075,1.733-.855,2.038-.994.563-.288,1.57-.624,1.243-1.637-.128-.356-3.234-5.048-3.57-5.593-.259-.384-1.02-1.595-1.239-1.847a1.385,1.385,0,0,0-1.224-.347c-1.024.209-2.542,1.541-3.518,1.636-2.884.277-8.712-10.542-9.029-11.82-.67-2.688,2.236-2.222,3.562-3.616a1.022,1.022,0,0,0,.215-1.1c-.166-.385-3.743-5.835-4.255-6.623-.356-.569-.769-1.5-1.836-1.3a4.185,4.185,0,0,0-1.032.453c-12.879,6.476,5.6,31.438,15.553,32.981h0Z" transform="translate(-249.946 -141.033)" fill="#fefefe" fill-rule="evenodd"/>
      </g>
      <g id="whatsapp_3_" data-name="whatsapp (3)" transform="translate(208 443.293)">
        <path id="Path_6369" data-name="Path 6369" d="M27,54A27,27,0,1,0,0,27,27,27,0,0,0,27,54Z" fill="#25d366"/>
        <path id="Path_6370" data-name="Path 6370" d="M26.8,41.342h-.007a16.245,16.245,0,0,1-7.773-1.981L10.4,41.624,12.708,33.2A16.265,16.265,0,1,1,26.8,41.341Zm-7.38-4.925.493.293a13.5,13.5,0,0,0,6.88,1.884H26.8A13.52,13.52,0,1,0,15.35,32.26l.321.511L14.3,37.76l5.117-1.343Zm15.017-7.839a1.3,1.3,0,0,1,.557.366,3.4,3.4,0,0,1-.237,1.933,4.183,4.183,0,0,1-2.743,1.932,5.587,5.587,0,0,1-2.56-.16,23.324,23.324,0,0,1-2.317-.857,17.91,17.91,0,0,1-6.871-6.036c-.034-.049-.057-.083-.072-.1l0,0a7.9,7.9,0,0,1-1.656-4.2,4.5,4.5,0,0,1,1.343-3.305l.08-.085a1.493,1.493,0,0,1,1.083-.508c.271,0,.543,0,.78.014a.8.8,0,0,0,.091,0c.236,0,.532,0,.823.7.113.269.276.668.449,1.09.35.851.736,1.792.8,1.927a.752.752,0,0,1,.034.712l-.057.116a2.363,2.363,0,0,1-.35.562c-.068.08-.138.164-.209.251-.14.17-.279.34-.4.462-.2.2-.415.422-.179.829a12.274,12.274,0,0,0,2.261,2.815,10.472,10.472,0,0,0,3,1.9c.112.049.2.088.269.121.406.2.643.171.88-.1s1.017-1.186,1.288-1.593.541-.338.914-.2,2.371,1.119,2.776,1.322l.222.109Z" transform="translate(1.073 0.906)" fill="#fdfdfd" fill-rule="evenodd"/>
      </g>
    </g>
  </g>
</svg>
