<svg xmlns="http://www.w3.org/2000/svg" width="30.254" height="30.254" viewBox="0 0 30.254 30.254">
  <path id="phone_1_" data-name="phone (1)" d="M17.127,32.254A15.127,15.127,0,1,0,2,17.127,15.127,15.127,0,0,0,17.127,32.254Zm4.889-13.068,2.336,2.342a1.228,1.228,0,0,1-.03,1.724l-.669.653-.015-.014a3.942,3.942,0,0,1-1.927.787c-.151.017-3.683.348-8.067-4.045C10.471,17.455,9.3,15.112,9.612,12.55a3.831,3.831,0,0,1,.242-.973,3.764,3.764,0,0,1,.542-.959l-.018-.018.658-.664A1.213,1.213,0,0,1,12.752,9.9l2.337,2.342a1.223,1.223,0,0,1-.03,1.721l-.39.389-.79.791q.064.113.127.227l0,0a11.775,11.775,0,0,0,2.05,2.838,11.707,11.707,0,0,0,2.832,2.053l.231.13,1.177-1.18a1.215,1.215,0,0,1,1.718-.032Z" transform="translate(-2 -2)" fill="#27b2ac" fill-rule="evenodd"/>
</svg>
