<svg width="102" height="99" viewBox="0 0 102 99" fill="none" xmlns="http://www.w3.org/2000/svg">
<path d="M89.9234 53.211V76.2C89.9234 83.628 89.9234 87.341 88.4774 90.18C87.2055 92.6776 85.1751 94.7081 82.6774 95.98C79.8394 97.426 76.1254 97.426 68.6974 97.426H22.7214C15.2934 97.426 11.5804 97.426 8.74144 95.98C6.24383 94.7081 4.21336 92.6776 2.94144 90.18C1.50044 87.343 1.50044 83.629 1.50044 76.2V30.221C1.50044 22.794 1.50044 19.08 2.94644 16.242C4.21836 13.7444 6.24883 11.7139 8.74644 10.442C11.5804 9 15.2944 9 22.7214 9H45.7114M2.14544 88.253C3.18407 84.5322 5.41191 81.2536 8.48877 78.9178C11.5656 76.582 15.3224 75.3173 19.1854 75.317H50.1334C52.7617 75.1962 55.3954 75.31 58.0034 75.657C61.4356 76.3388 64.5883 78.0235 67.0626 80.4978C69.5369 82.9721 71.2216 86.1249 71.9034 89.557C72.2505 92.165 72.3642 94.7988 72.2434 97.427M54.5544 42.159C54.5544 45.6568 53.5172 49.076 51.574 51.9843C49.6307 54.8925 46.8687 57.1593 43.6372 58.4978C40.4057 59.8363 36.8498 60.1866 33.4193 59.5042C29.9887 58.8218 26.8376 57.1375 24.3643 54.6642C21.891 52.1909 20.2066 49.0397 19.5243 45.6092C18.8419 42.1786 19.1921 38.6228 20.5306 35.3912C21.8692 32.1597 24.1359 29.3977 27.0442 27.4545C29.9525 25.5112 33.3717 24.474 36.8694 24.474C41.5598 24.474 46.058 26.3372 49.3746 29.6538C52.6912 32.9704 54.5544 37.4686 54.5544 42.159Z" stroke="black" stroke-width="3" stroke-linecap="round" stroke-linejoin="round"/>
<path fill-rule="evenodd" clip-rule="evenodd" d="M81 42C92.598 42 102 32.598 102 21C102 9.40204 92.598 0 81 0C69.402 0 60 9.40204 60 21C60 32.598 69.402 42 81 42ZM81 25.6C82.9882 25.6 84.6 23.9882 84.6 22C84.6 20.0118 82.9882 18.4 81 18.4C79.0118 18.4 77.4 20.0118 77.4 22C77.4 23.9882 79.0118 25.6 81 25.6ZM90.6 12.4H86.796L85.308 10.78C84.864 10.288 84.216 10 83.544 10H78.456C77.784 10 77.136 10.288 76.68 10.78L75.204 12.4H71.4C70.08 12.4 69 13.48 69 14.8V29.2C69 30.52 70.08 31.6 71.4 31.6H90.6C91.92 31.6 93 30.52 93 29.2V14.8C93 13.48 91.92 12.4 90.6 12.4ZM81 28C77.688 28 75 25.312 75 22C75 18.688 77.688 16 81 16C84.312 16 87 18.688 87 22C87 25.312 84.312 28 81 28ZM85.8 14.8C85.8 14.1373 86.3372 13.6 87 13.6H89.4C90.0627 13.6 90.6 14.1373 90.6 14.8C90.6 15.4628 90.0627 16 89.4 16H87C86.3372 16 85.8 15.4628 85.8 14.8Z" fill="black"/>
</svg>
