<svg width="118" height="104" viewBox="0 0 118 104" fill="none" xmlns="http://www.w3.org/2000/svg">
<g clip-path="url(#clip0_7_123)">
<path d="M101.163 82.9169L105.915 85.8469V78.1169L101.163 80.6279V82.9169Z" fill="black"/>
<path d="M35.6506 21.246C35.6457 25.4541 36.889 29.5691 39.2233 33.0703C41.5576 36.5716 44.8779 39.3019 48.7642 40.9157C52.6506 42.5294 56.9282 42.9542 61.056 42.1363C65.1839 41.3184 68.9763 39.2945 71.9536 36.3207C74.9309 33.3469 76.9593 29.5568 77.7821 25.43C78.6048 21.3031 78.1851 17.025 76.5758 13.1367C74.9666 9.2485 72.2403 5.92495 68.7418 3.58656C65.2432 1.24816 61.1297 2.90641e-06 56.9216 0C51.2862 0.00554496 45.8829 2.24494 41.8957 6.22742C37.9085 10.2099 35.6628 15.6106 35.6506 21.246ZM75.2386 21.246C75.2388 24.8688 74.1647 28.4103 72.1521 31.4226C70.1396 34.435 67.2789 36.7829 63.9319 38.1694C60.585 39.5559 56.902 39.9188 53.3488 39.2122C49.7956 38.5055 46.5317 36.7611 43.9699 34.1994C41.4081 31.6378 39.6635 28.374 38.9567 24.8208C38.2498 21.2677 38.6125 17.5847 39.9988 14.2376C41.3852 10.8906 43.7329 8.02978 46.7451 6.01704C49.7574 4.0043 53.2988 2.93 56.9216 2.93C61.7771 2.93741 66.4317 4.86947 69.8652 8.30275C73.2986 11.736 75.231 16.3905 75.2386 21.246ZM96.3156 60.908C95.6809 60.9049 95.0465 60.9383 94.4156 61.008C93.1863 57.1027 90.7414 53.6924 87.4376 51.2743C84.1338 48.8562 80.1438 47.557 76.0496 47.566H75.3156L74.8726 48.157C72.8035 50.9731 70.1008 53.2628 66.983 54.841C63.8651 56.4191 60.4196 57.2415 56.9251 57.2415C53.4306 57.2415 49.9851 56.4191 46.8673 54.841C43.7494 53.2628 41.0467 50.9731 38.9776 48.157L38.5346 47.566H37.7956C32.6853 47.5731 27.7863 49.606 24.1723 53.2191C20.5582 56.8322 18.5241 61.7307 18.5156 66.841L35.6506 67.693L37.7956 81.5L34.5 94L18.5 98.639L18.5156 103.278H95.3276V103.253C95.6476 103.278 95.9926 103.278 96.3126 103.278C100.715 103.279 105.008 101.908 108.595 99.3555C112.181 96.803 114.883 93.196 116.324 89.0364C117.765 84.8768 117.874 80.3714 116.635 76.1471C115.397 71.9228 112.872 68.1896 109.413 65.467C105.695 62.4975 101.074 60.8888 96.3156 60.908ZM21.4696 100.3L35.6506 95L39.9988 82.5L34.5 67.693L21.4696 66.817C21.4772 62.6122 23.1024 58.5716 26.0084 55.5326C28.9144 52.4937 32.8784 50.6895 37.0786 50.494C39.4343 53.5076 42.4455 55.9451 45.8836 57.6214C49.3218 59.2978 53.0966 60.169 56.9216 60.169C60.7467 60.169 64.5215 59.2978 67.9596 57.6214C71.3978 55.9451 74.4089 53.5076 76.7646 50.494C80.032 50.6316 83.1822 51.7505 85.8044 53.7048C88.4265 55.6592 90.399 58.3582 91.4646 61.45C87.3535 62.4166 83.6255 64.5907 80.7599 67.693C77.8943 70.7952 76.0222 74.6837 75.3842 78.8585C74.7462 83.0333 75.3716 87.3034 77.1799 91.1199C78.9882 94.9364 81.8968 98.1247 85.5316 100.275H21.4696V100.3ZM108.87 88.507C108.871 88.7696 108.801 89.0276 108.666 89.2532C108.532 89.4788 108.338 89.6633 108.107 89.787C107.889 89.913 107.644 89.9818 107.393 89.987C107.115 89.9861 106.842 89.9093 106.605 89.765L101.164 86.392V88.485C101.163 88.8764 101.007 89.2515 100.73 89.5282C100.453 89.805 100.078 89.9609 99.6866 89.962H85.2336C84.8422 89.9609 84.4672 89.805 84.1904 89.5282C83.9136 89.2515 83.7577 88.8764 83.7566 88.485V75.655C83.7579 75.2637 83.914 74.8888 84.1907 74.6121C84.4674 74.3354 84.8423 74.1793 85.2336 74.178H99.6856C100.077 74.1793 100.452 74.3354 100.729 74.6121C101.005 74.8888 101.161 75.2637 101.163 75.655V77.28L106.702 74.35C106.926 74.2336 107.177 74.1767 107.43 74.1847C107.684 74.1926 107.93 74.2652 108.147 74.3955C108.365 74.5258 108.545 74.7095 108.671 74.9291C108.797 75.1487 108.865 75.3968 108.868 75.65L108.87 88.507Z" fill="black"/>
<path d="M98.2079 77.157H86.7109V87.029H98.2079V77.157Z" fill="black"/>
<path fill-rule="evenodd" clip-rule="evenodd" d="M22 103C33.598 103 43 93.598 43 82C43 70.402 33.598 61 22 61C10.402 61 1 70.402 1 82C1 93.598 10.402 103 22 103ZM22 86.6C23.9882 86.6 25.6 84.9882 25.6 83C25.6 81.0118 23.9882 79.4 22 79.4C20.0118 79.4 18.4 81.0118 18.4 83C18.4 84.9882 20.0118 86.6 22 86.6ZM31.6 73.4H27.796L26.308 71.78C25.864 71.288 25.216 71 24.544 71H19.456C18.784 71 18.136 71.288 17.68 71.78L16.204 73.4H12.4C11.08 73.4 10 74.48 10 75.8V90.2C10 91.52 11.08 92.6 12.4 92.6H31.6C32.92 92.6 34 91.52 34 90.2V75.8C34 74.48 32.92 73.4 31.6 73.4ZM22 89C18.688 89 16 86.312 16 83C16 79.688 18.688 77 22 77C25.312 77 28 79.688 28 83C28 86.312 25.312 89 22 89ZM26.8 75.8C26.8 75.1373 27.3373 74.6 28 74.6H30.4C31.0627 74.6 31.6 75.1373 31.6 75.8C31.6 76.4627 31.0627 77 30.4 77H28C27.3373 77 26.8 76.4627 26.8 75.8Z" fill="black"/>
</g>
<defs>
<clipPath id="clip0_7_123">
<rect width="116.985" height="103.278" fill="white" transform="translate(0.5)"/>
</clipPath>
</defs>
</svg>
