<svg xmlns="http://www.w3.org/2000/svg" width="20" height="23.684" viewBox="0 0 20 23.684">
  <g id="law_1_" data-name="law (1)" transform="translate(-12 -5)">
    <path id="Path_6412" data-name="Path 6412" d="M29.368,5H14.632A2.639,2.639,0,0,0,12,7.632V9.211a.528.528,0,0,0,.526.526h3.684V23.947H12.526a.528.528,0,0,0-.526.526v1.579a2.639,2.639,0,0,0,2.632,2.632H29.368A2.639,2.639,0,0,0,32,26.053V7.632A2.639,2.639,0,0,0,29.368,5ZM13.053,8.684V7.632a1.579,1.579,0,0,1,3.158,0V8.684Zm0,17.368V25h3.158v1.053a1.579,1.579,0,0,1-3.158,0Zm17.895,0a1.584,1.584,0,0,1-1.579,1.579H16.737a2.535,2.535,0,0,0,.526-1.579V7.632a2.706,2.706,0,0,0-.526-1.579H29.368a1.584,1.584,0,0,1,1.579,1.579Z" transform="translate(0 0)"/>
    <path id="Path_6413" data-name="Path 6413" d="M48.368,22.868a.5.5,0,0,0-.474-.289H45.263V21.526a.526.526,0,0,0-1.053,0v1.053H41.579a.5.5,0,0,0-.474.289l-1.053,2.105a.768.768,0,0,0-.053.237,1.579,1.579,0,0,0,3.158,0,.768.768,0,0,0-.053-.237l-.684-1.342h1.789v3.684h-.789a.528.528,0,0,0-.526.526v2.105H41.842a.526.526,0,0,0,0,1.053h5.789a.526.526,0,1,0,0-1.053H46.579V27.842a.528.528,0,0,0-.526-.526h-.789V23.632h1.789l-.684,1.342a.768.768,0,0,0-.053.237,1.579,1.579,0,0,0,3.158,0,.768.768,0,0,0-.053-.237l-1.053-2.105Zm-6.789,2.868a.538.538,0,0,1-.526-.421l.526-1.026.526,1.026A.538.538,0,0,1,41.579,25.737Zm3.947,4.211H43.947V28.368h1.579Zm2.368-4.211a.538.538,0,0,1-.526-.421l.526-1.026.526,1.026A.538.538,0,0,1,47.895,25.737Zm1.053,6.842H40.526a.526.526,0,1,0,0,1.053h8.421a.526.526,0,0,0,0-1.053Zm0,2.632H40.526a.526.526,0,1,0,0,1.053h8.421a.526.526,0,0,0,0-1.053Z" transform="translate(-20.632 -11.789)"/>
  </g>
</svg>
