<svg xmlns="http://www.w3.org/2000/svg" width="31.773" height="34.216" viewBox="0 0 31.773 34.216">
  <g id="Group_6564" data-name="Group 6564" transform="translate(-2.997 -1.998)">
    <path id="Path_6250" data-name="Path 6250" d="M29.273,2H8.5A5.5,5.5,0,0,0,3,7.5v18.1a5.5,5.5,0,0,0,5.5,5.5h5.54l3.911,4.683a1.221,1.221,0,0,0,1.875,0l3.911-4.683h5.54a5.5,5.5,0,0,0,5.5-5.5V7.5A5.5,5.5,0,0,0,29.273,2ZM18.884,9.026A4.135,4.135,0,1,1,14.75,13.16,4.134,4.134,0,0,1,18.884,9.026Zm5.785,13.557a1.026,1.026,0,0,1-.83,1.01,26.4,26.4,0,0,1-4.956.47,26.3,26.3,0,0,1-4.956-.47,1.026,1.026,0,0,1-.83-1.01v-.661a4.614,4.614,0,0,1,1.946-3.759,6.2,6.2,0,0,0,7.678,0,4.614,4.614,0,0,1,1.946,3.759Z" fill="#6589a0"/>
  </g>
</svg>
