<svg id="profile-logout" xmlns="http://www.w3.org/2000/svg" width="23.625" height="26.438" viewBox="0 0 23.625 26.438">
  <path id="Path_7369" data-name="Path 7369" d="M20.414,11.3a3.088,3.088,0,0,0-2.32-1.047h-2.25a3.094,3.094,0,0,0-3.094,3.094v7.875a3.094,3.094,0,0,0,3.094,3.094h2.25a3.088,3.088,0,0,0,2.32-1.047.844.844,0,0,0-1.265-1.117,1.4,1.4,0,0,1-1.055.476h-2.25a1.406,1.406,0,0,1-1.406-1.406V13.344a1.406,1.406,0,0,1,1.406-1.406h2.25a1.4,1.4,0,0,1,1.055.476A.844.844,0,1,0,20.414,11.3Z" transform="translate(-0.375 1)" fill-rule="evenodd"/>
  <path id="Path_7370" data-name="Path 7370" d="M22.94,16a.844.844,0,0,1,0,1.193l-2.25,2.25A.844.844,0,0,1,19.5,18.247L21.747,16A.844.844,0,0,1,22.94,16Z" transform="translate(0.437 1.688)" fill-rule="evenodd"/>
  <path id="Path_7371" data-name="Path 7371" d="M22.94,17.44a.844.844,0,0,0,0-1.193L20.69,14A.844.844,0,0,0,19.5,15.19l2.25,2.25A.844.844,0,0,0,22.94,17.44Z" transform="translate(0.437 1.438)" fill-rule="evenodd"/>
  <path id="Path_7372" data-name="Path 7372" d="M17.5,18.531a.844.844,0,0,1,.844-.844h5.625a.844.844,0,0,1,0,1.688H18.344A.844.844,0,0,1,17.5,18.531ZM7.094.25a3.094,3.094,0,1,0,3.094,3.094A3.094,3.094,0,0,0,7.094.25ZM4.844,7A3.094,3.094,0,0,0,1.75,10.094v6.154a1.969,1.969,0,0,0,1.969,1.969H4v6.5a1.969,1.969,0,0,0,1.969,1.969h2.25a1.969,1.969,0,0,0,1.969-1.969v-6.5h.281a1.969,1.969,0,0,0,1.969-1.969V10.094A3.094,3.094,0,0,0,9.344,7Z" transform="translate(-1.75 -0.25)" fill-rule="evenodd"/>
</svg>
