<svg xmlns="http://www.w3.org/2000/svg" width="56" height="56" viewBox="0 0 56 56">
  <g id="Group_6517" data-name="Group 6517" transform="translate(-242 -476)">
    <g id="Group_6515" data-name="Group 6515">
      <circle id="Ellipse_636" data-name="Ellipse 636" cx="28" cy="28" r="28" transform="translate(242 476)" fill="#da270f"/>
    </g>
    <path id="dislike_1_" data-name="dislike (1)" d="M9.966,19.993v3.931a.831.831,0,0,0,.831.831h2.492a3.326,3.326,0,0,0,3.322-3.322V16.45h6.644a3.326,3.326,0,0,0,3.322-3.322V9.805a.81.81,0,0,0-.073-.338L23.839,3.473A3.319,3.319,0,0,0,20.805,1.5H7.475a.831.831,0,0,0-.831.831V13.958a.82.82,0,0,0,.11.412Zm-9.136-5.2H4.983V1.5H.831A.831.831,0,0,0,0,2.331V13.958A.831.831,0,0,0,.831,14.788Z" transform="translate(256.712 490.873)" fill="#fff"/>
  </g>
</svg>
