<svg xmlns="http://www.w3.org/2000/svg" width="56" height="56" viewBox="0 0 56 56">
  <g id="Group_6516" data-name="Group 6516" transform="translate(-130 -476)">
    <circle id="Ellipse_637" data-name="Ellipse 637" cx="28" cy="28" r="28" transform="translate(130 476)" fill="#009584"/>
    <path id="dislike_1_" data-name="dislike (1)" d="M9.966,4.762V.83A.831.831,0,0,1,10.8,0h2.492a3.326,3.326,0,0,1,3.322,3.322V8.3h6.644a3.326,3.326,0,0,1,3.322,3.322v3.322a.81.81,0,0,1-.073.338l-2.664,5.994a3.319,3.319,0,0,1-3.034,1.973H7.475a.831.831,0,0,1-.831-.83V10.8a.82.82,0,0,1,.11-.412ZM.831,9.966H4.983V23.254H.831A.831.831,0,0,1,0,22.423V10.8A.831.831,0,0,1,.831,9.966Z" transform="translate(144.712 492.373)" fill="#fff"/>
  </g>
</svg>
