<svg xmlns="http://www.w3.org/2000/svg" width="11.62" height="17.655" viewBox="0 0 11.62 17.655">
  <g id="Group_6564" data-name="Group 6564" transform="translate(-8.221 -5.404)">
    <path id="Path_6256" data-name="Path 6256" d="M21.82,15.613l-5.8,7.459L14.8,24.636a.988.988,0,0,1-.792.391H14a1,1,0,0,1-.792-.4L10.2,20.616l1.6-1.2L14.02,22.37l2-2.557,4.221-5.424Z" transform="translate(-1.979 -1.969)" fill="#00a75b"/>
    <path id="Path_6257" data-name="Path 6257" d="M21.82,8.613l-5.8,7.459L14.8,17.636a.988.988,0,0,1-.792.391H14a1,1,0,0,1-.792-.4L10.2,13.616l1.6-1.2L14.02,15.37l2-2.557L20.236,7.39,21.82,8.613Z" transform="translate(-1.979 -1.986)" fill="#00a75b"/>
  </g>
</svg>
