<svg xmlns="http://www.w3.org/2000/svg" width="17.472" height="24.57" viewBox="0 0 17.472 24.57">
  <path id="flag_1_" data-name="flag (1)" d="M35.472,7.888v9.08a8.517,8.517,0,0,0-6.672-.647,17.039,17.039,0,0,0-1.859.773,11.894,11.894,0,0,1-2.2.855,6.834,6.834,0,0,1-4.554-.658V8.107a7.683,7.683,0,0,0,4.808.53A13.066,13.066,0,0,0,27.4,7.711a15.194,15.194,0,0,1,1.734-.723,7.3,7.3,0,0,1,6.336.9ZM18.546,5A.546.546,0,0,0,18,5.546V29.024a.546.546,0,0,0,1.092,0V5.546A.548.548,0,0,0,18.546,5Z" transform="translate(-18 -5)" fill="#0076c1"/>
</svg>
