<svg xmlns="http://www.w3.org/2000/svg" width="48" height="48" viewBox="0 0 48 48">
  <g id="retry" transform="translate(-1.5 -1.5)">
    <circle id="Ellipse_629" data-name="Ellipse 629" cx="24" cy="24" r="24" transform="translate(1.5 1.5)" fill="#31cfff"/>
    <path id="Path_6200" data-name="Path 6200" d="M41.806,23.041a.42.42,0,0,1,.34.667L37.37,30.29l-.644.888a.42.42,0,0,1-.68,0l-1.606-2.2-3.824-5.267a.42.42,0,0,1,.34-.667h3.072a.42.42,0,0,0,.378-.606,9.034,9.034,0,0,0-2.855-3.287,8.98,8.98,0,1,0,.482,14.333.417.417,0,0,1,.557.031l1.675,1.668a.422.422,0,0,1-.027.622,12.1,12.1,0,1,1,3.745-13.055.422.422,0,0,0,.4.294h3.423Z" fill="#1d364c"/>
    <path id="Path_6201" data-name="Path 6201" d="M40.806,22.041a.42.42,0,0,1,.34.667L36.37,29.29l-.644.888a.42.42,0,0,1-.68,0l-1.606-2.2-3.824-5.267a.42.42,0,0,1,.34-.667h3.072a.42.42,0,0,0,.378-.606,9.034,9.034,0,0,0-2.855-3.287,8.98,8.98,0,1,0,.482,14.333.417.417,0,0,1,.557.031l1.675,1.668a.422.422,0,0,1-.027.622,12.1,12.1,0,1,1,3.745-13.055.422.422,0,0,0,.4.294h3.423Z" fill="#fff"/>
  </g>
</svg>
