<svg xmlns="http://www.w3.org/2000/svg" width="30.559" height="29.996" viewBox="0 0 30.559 29.996">
  <g id="Group_6568" data-name="Group 6568" transform="translate(-22 -125.108)">
    <g id="gift_1_" data-name="gift (1)" transform="translate(20.25 122.981)">
      <path id="Path_6337" data-name="Path 6337" d="M8.191,10.509A4.641,4.641,0,0,1,6.721,8.253a3.783,3.783,0,0,1,.643-3.24,3.775,3.775,0,0,1,3.364-1.58,7.128,7.128,0,0,1,3.444,1.235,11.237,11.237,0,0,1,2.754,2.555,12.939,12.939,0,0,1,3.556-3.633A7.916,7.916,0,0,1,24.4,2.133,4.234,4.234,0,0,1,28.224,4a4.6,4.6,0,0,1,.731,3.825,5.515,5.515,0,0,1-1.694,2.685h.364a6.911,6.911,0,0,1,2.025.176,3.8,3.8,0,0,1,2.482,2.482,6.91,6.91,0,0,1,.176,2.025v.323a6.91,6.91,0,0,1-.176,2.025,3.8,3.8,0,0,1-2.482,2.482,6.916,6.916,0,0,1-2.025.176H18.147V10.939H15.911V20.2H6.433a6.916,6.916,0,0,1-2.025-.176A3.8,3.8,0,0,1,1.926,17.54a6.911,6.911,0,0,1-.176-2.025v-.323a6.911,6.911,0,0,1,.176-2.025,3.8,3.8,0,0,1,2.482-2.482,6.911,6.911,0,0,1,2.025-.176ZM22.147,6.064a9.685,9.685,0,0,0-3.085,3.415,7.267,7.267,0,0,0,5.923-.952A2.779,2.779,0,0,0,26.068,7.08a1.631,1.631,0,0,0-.3-1.391,1.265,1.265,0,0,0-1.227-.578A5.013,5.013,0,0,0,22.147,6.064Zm-9.438.7a8.316,8.316,0,0,1,2.713,2.892,6.594,6.594,0,0,1-5.209-.806A2.362,2.362,0,0,1,9.26,7.623a1.342,1.342,0,0,1,.264-1.178A1.127,1.127,0,0,1,10.6,5.955,4.508,4.508,0,0,1,12.709,6.762Z" transform="translate(0)" fill="#0076c1" fill-rule="evenodd"/>
      <path id="Path_6338" data-name="Path 6338" d="M5.613,15.524H14.93V25.586h-1.2a40.834,40.834,0,0,1-4.974-.174,5.541,5.541,0,0,1-3.369-1.464A5.541,5.541,0,0,1,3.924,20.58a40.871,40.871,0,0,1-.174-4.974v-.154a12.141,12.141,0,0,0,1.651.073ZM18.366,25.586h-1.2V15.524h9.529a12.137,12.137,0,0,0,1.651-.073v.154a40.9,40.9,0,0,1-.174,4.974,5.541,5.541,0,0,1-1.464,3.369,5.542,5.542,0,0,1-3.369,1.464A40.837,40.837,0,0,1,18.366,25.586Z" transform="translate(0.981 6.538)" fill="#0076c1"/>
    </g>
  </g>
</svg>
