<svg xmlns="http://www.w3.org/2000/svg" width="41.768" height="44" viewBox="0 0 41.768 44">
  <g id="sex" transform="translate(-2.354 -0.307)">
    <path id="Path_6390" data-name="Path 6390" d="M49.467,33.961a.7.7,0,0,0-.912.4l-2.81,7.22-5.325-15.2a13.533,13.533,0,1,0-1.325.461L44.424,42.05,37.7,38.179A.7.7,0,1,0,37,39.4l8.358,4.813a.692.692,0,0,0,1-.351l3.5-8.982a.7.7,0,0,0-.4-.915ZM35.38,21.678a7.547,7.547,0,1,1,7.544-7.545,7.547,7.547,0,0,1-7.544,7.545Z" transform="translate(-5.794 0)"/>
    <path id="Path_6391" data-name="Path 6391" d="M24.1,11.582A7.509,7.509,0,0,1,24.035,17a6.2,6.2,0,0,0,4.66,3.425,13.44,13.44,0,0,0,.912-2.14,13.171,13.171,0,0,0-.8-10.035A6.149,6.149,0,0,0,24.1,11.582ZM16.962,21.771a7.5,7.5,0,0,1-7.129-9.778,7.348,7.348,0,0,1,7.276-5.317,14.708,14.708,0,0,1,4.723-4.758,13.207,13.207,0,1,0-9.551,24.627L8.613,36.482l-5.3-1.711A.7.7,0,1,0,2.88,36.1L8.127,37.8l-1.9,5.158a.7.7,0,1,0,1.317.486l1.925-5.213L14.632,39.9a.7.7,0,1,0,.43-1.333L9.95,36.913l3.664-9.919a12.6,12.6,0,0,0,7.972-.387,14.719,14.719,0,0,1-4.625-4.835Z" transform="translate(0 -0.213)"/>
  </g>
</svg>
