<svg xmlns="http://www.w3.org/2000/svg" width="30.178" height="25.364" viewBox="0 0 30.178 25.364">
  <path id="share" d="M5.638,34.282a1.049,1.049,0,0,1-.341-.055,1.1,1.1,0,0,1-.758-1.1c0-.165,1.132-16.121,17.132-17.374V10.018a1.1,1.1,0,0,1,1.885-.769L34.4,20.326a1.1,1.1,0,0,1,0,1.538L23.555,32.941a1.1,1.1,0,0,1-1.885-.769V26.545c-10.681.407-15.06,7.143-15.1,7.225a1.1,1.1,0,0,1-.929.511ZM23.869,12.71v4.071a1.1,1.1,0,0,1-1.06,1.1C12.456,18.26,8.753,25.155,7.424,29.589c2.747-2.374,7.643-5.275,15.28-5.275h.049a1.1,1.1,0,0,1,1.1,1.1v4.071L32.094,21.1Z" transform="translate(-4.538 -8.918)" fill="#fff"/>
</svg>
