<svg xmlns="http://www.w3.org/2000/svg" width="40" height="40" viewBox="0 0 40 40">
  <g id="skype" transform="translate(-7.9 -7.9)">
    <path id="Path_6179" data-name="Path 6179" d="M7.9,27.9a20,20,0,1,1,20,20A20,20,0,0,1,7.9,27.9Z" transform="translate(0 0)" fill="#1b92d0"/>
    <path id="Path_6180" data-name="Path 6180" d="M108.879,79.6A20,20,0,0,1,80.6,107.879Z" transform="translate(-66.839 -65.92)" fill="#1a8aba"/>
    <path id="Path_6181" data-name="Path 6181" d="M161.532,151.72l-11.987-11.987-2.378,2.37-5.869-4.6-9.2,9.2,4.071,6.409-1.588,1.588,11.874,11.874A20.027,20.027,0,0,0,161.532,151.72Z" transform="translate(-114.188 -119.153)" fill="#1b88ad"/>
    <path id="Path_6182" data-name="Path 6182" d="M194.59,169.15,177.548,152.1l-2.773.717L171.2,154.5l-1.5,4.869-.1,4.152L184.787,178.7A20.093,20.093,0,0,0,194.59,169.15Z" transform="translate(-148.665 -132.576)" fill="#1d839f"/>
    <path id="Path_6183" data-name="Path 6183" d="M138.39,132.119a10.134,10.134,0,0,0,.129-1.644,10.552,10.552,0,0,0-10.552-10.552,11.041,11.041,0,0,0-1.644.129,6.372,6.372,0,0,0-9.722,5.425,6.3,6.3,0,0,0,.951,3.345,11.041,11.041,0,0,0-.129,1.644,10.543,10.543,0,0,0,10.544,10.544,10.062,10.062,0,0,0,1.644-.129,6.372,6.372,0,0,0,9.722-5.425A6.2,6.2,0,0,0,138.39,132.119Zm-5.409,3.144a4.374,4.374,0,0,1-1.959,1.507,7.769,7.769,0,0,1-3.047.54,7.236,7.236,0,0,1-3.482-.742,4.513,4.513,0,0,1-1.588-1.427,3.069,3.069,0,0,1-.613-1.741,1.143,1.143,0,0,1,.379-.863,1.327,1.327,0,0,1,.959-.363,1.192,1.192,0,0,1,.8.282,2.092,2.092,0,0,1,.548.814,4.976,4.976,0,0,0,.58,1.04,2.218,2.218,0,0,0,.871.677,3.449,3.449,0,0,0,1.475.266,3.574,3.574,0,0,0,2.048-.54,1.576,1.576,0,0,0,.774-1.338,1.336,1.336,0,0,0-.411-1.024,2.822,2.822,0,0,0-1.1-.613,17.073,17.073,0,0,0-1.822-.451,14.369,14.369,0,0,1-2.563-.782,4.174,4.174,0,0,1-1.653-1.225,3.035,3.035,0,0,1-.613-1.935,3.193,3.193,0,0,1,.645-1.959,4.028,4.028,0,0,1,1.87-1.314,8.1,8.1,0,0,1,2.862-.459,7.642,7.642,0,0,1,2.273.306,4.943,4.943,0,0,1,1.6.806,3.52,3.52,0,0,1,.935,1.056,2.358,2.358,0,0,1,.3,1.088,1.28,1.28,0,0,1-.379.895,1.231,1.231,0,0,1-.935.4,1.149,1.149,0,0,1-.782-.242,3.22,3.22,0,0,1-.564-.758,3.422,3.422,0,0,0-.919-1.145,2.792,2.792,0,0,0-1.709-.4,3.18,3.18,0,0,0-1.765.443,1.26,1.26,0,0,0-.661,1.048,1.013,1.013,0,0,0,.218.653,1.934,1.934,0,0,0,.621.484,4.621,4.621,0,0,0,.814.322c.274.081.734.193,1.37.339a22.228,22.228,0,0,1,2.177.572,6.909,6.909,0,0,1,1.661.766,3.215,3.215,0,0,1,1.08,1.153,3.467,3.467,0,0,1,.387,1.7,3.779,3.779,0,0,1-.677,2.168Z" transform="translate(-99.937 -102.236)" fill="#fff"/>
  </g>
</svg>
