<svg xmlns="http://www.w3.org/2000/svg" width="21.389" height="21.5" viewBox="0 0 21.389 21.5">
  <g id="skype_2_" data-name="skype (2)" transform="translate(-0.701 -0.6)">
    <path id="Path_6423" data-name="Path 6423" d="M7.017,1.708a5.356,5.356,0,0,1,2.6.665.936.936,0,0,0,.554.166h.111a7.8,7.8,0,0,1,1.108-.055,8.916,8.916,0,0,1,8.922,8.922,11.917,11.917,0,0,1-.111,1.274.907.907,0,0,0,.111.665,5.207,5.207,0,0,1-.942,6.206,5.3,5.3,0,0,1-3.657,1.5,5.148,5.148,0,0,1-2.549-.665.911.911,0,0,0-.554-.111h-.166a10.151,10.151,0,0,1-1.164.111,8.916,8.916,0,0,1-8.922-8.922,12.855,12.855,0,0,1,.111-1.33.907.907,0,0,0-.111-.665A5.22,5.22,0,0,1,3.3,3.26,5.113,5.113,0,0,1,7.017,1.708ZM7.017.6A6.309,6.309,0,0,0,1.476,9.909a13.587,13.587,0,0,0-.111,1.5,10.027,10.027,0,0,0,10.03,10.03,10.761,10.761,0,0,0,1.33-.111,6.552,6.552,0,0,0,3.048.776,6.25,6.25,0,0,0,4.433-1.829,6.313,6.313,0,0,0,1.108-7.536,11.666,11.666,0,0,0,.111-1.385A10.027,10.027,0,0,0,11.395,1.32c-.388,0-.831.055-1.219.055A7,7,0,0,0,7.017.6Z" transform="translate(0 0)"/>
    <path id="Path_6424" data-name="Path 6424" d="M16.568,13.988a3.29,3.29,0,0,1-.443-.222c-.554-.277-1-.61-1-1.219,0-1.053,1.108-1.219,1.718-1.219a3.367,3.367,0,0,1,1.773.388,1.564,1.564,0,0,0,.831.222A.971.971,0,0,0,20.392,11a.853.853,0,0,0-.554-.831A5.786,5.786,0,0,0,17.122,9.5a6.632,6.632,0,0,0-2.6.554A2.882,2.882,0,0,0,12.8,12.6c0,2.438,2.438,3.159,4.322,3.99a3.291,3.291,0,0,1,.443.222,1.245,1.245,0,0,1,.831,1.219c0,1.053-.942,1.219-1.552,1.219a5.593,5.593,0,0,1-2.161-.554,1.564,1.564,0,0,0-.831-.222.971.971,0,0,0-.942.942,1.216,1.216,0,0,0,.61,1,6.162,6.162,0,0,0,3.1.72,5.783,5.783,0,0,0,2.6-.554,2.852,2.852,0,0,0,1.607-2.6C20.724,15.485,18.452,14.82,16.568,13.988Z" transform="translate(-5.395 -3.968)"/>
  </g>
</svg>
