<svg xmlns="http://www.w3.org/2000/svg" width="22" height="22" viewBox="0 0 22 22">
  <g id="config_2_" data-name="config (2)" transform="translate(-7.24 -7.24)">
    <path id="Path_6400" data-name="Path 6400" d="M18.745,30.066A2.947,2.947,0,0,1,15.8,27.122V17.594a2.944,2.944,0,1,1,5.888,0v9.528A2.947,2.947,0,0,1,18.745,30.066Zm0-14.083a1.613,1.613,0,0,0-1.611,1.612v9.527a1.611,1.611,0,1,0,3.223,0V17.594a1.613,1.613,0,0,0-1.611-1.611Z" transform="translate(-4.758 -4.118)" fill="#222"/>
    <path id="Path_6401" data-name="Path 6401" d="M18.745,20.538a2.944,2.944,0,1,1,2.944-2.944,2.944,2.944,0,0,1-2.944,2.944Zm0-4.556a1.611,1.611,0,1,0,1.611,1.611A1.611,1.611,0,0,0,18.745,15.983ZM27.25,30.066a2.947,2.947,0,0,1-2.944-2.944V17.594a2.944,2.944,0,1,1,5.888,0v9.528A2.947,2.947,0,0,1,27.25,30.066Zm0-14.083a1.613,1.613,0,0,0-1.611,1.612v9.527a1.611,1.611,0,1,0,3.223,0V17.594a1.613,1.613,0,0,0-1.611-1.611Z" transform="translate(-4.758 -4.118)" fill="#222"/>
    <path id="Path_6402" data-name="Path 6402" d="M37.889,41.984a2.944,2.944,0,1,1,2.944-2.944,2.944,2.944,0,0,1-2.944,2.944Zm0-4.556A1.611,1.611,0,1,0,39.5,39.04,1.611,1.611,0,0,0,37.889,37.429Z" transform="translate(-15.397 -16.036)" fill="#222"/>
    <path id="Path_6403" data-name="Path 6403" d="M24.131,29.24H12.349A5.115,5.115,0,0,1,7.24,24.131V12.349A5.115,5.115,0,0,1,12.349,7.24H24.131a5.115,5.115,0,0,1,5.109,5.109V24.131a5.115,5.115,0,0,1-5.109,5.109ZM12.349,8.573a3.781,3.781,0,0,0-3.776,3.776V24.131a3.781,3.781,0,0,0,3.776,3.776H24.131a3.781,3.781,0,0,0,3.776-3.776V12.349a3.781,3.781,0,0,0-3.776-3.776Z" transform="translate(0 0)" fill="#222"/>
  </g>
</svg>
