<svg xmlns="http://www.w3.org/2000/svg" width="40" height="40" viewBox="0 0 40 40">
  <g id="telephone" transform="translate(-159.74 -159.74)">
    <path id="Path_6168" data-name="Path 6168" d="M199.74,179.74a20,20,0,1,1-20-20A20,20,0,0,1,199.74,179.74Z" fill="#093"/>
    <path id="Path_6169" data-name="Path 6169" d="M438.29,333.355a4.462,4.462,0,0,0,2.271-.14c.163-.055,1.273-.628,1.5-.73.414-.211,1.153-.458.913-1.2-.094-.262-2.375-3.708-2.622-4.108-.19-.282-.749-1.171-.91-1.357a1.017,1.017,0,0,0-.9-.255c-.752.154-1.867,1.132-2.584,1.2-2.118.2-6.4-7.743-6.632-8.682-.492-1.974,1.642-1.632,2.616-2.656a.751.751,0,0,0,.158-.809c-.122-.283-2.75-4.286-3.125-4.865-.261-.418-.565-1.1-1.349-.955a3.074,3.074,0,0,0-.758.333c-9.46,4.757,4.11,23.091,11.424,24.225h0Z" transform="translate(-253.478 -143.158)" fill="#fefefe" fill-rule="evenodd"/>
  </g>
</svg>
