<svg id="telegram_2_" data-name="telegram (2)" xmlns="http://www.w3.org/2000/svg" width="21.857" height="21.857" viewBox="0 0 21.857 21.857">
  <path id="Path_6425" data-name="Path 6425" d="M10.929,21.857A10.929,10.929,0,1,1,21.857,10.929,10.941,10.941,0,0,1,10.929,21.857Zm0-20.947A10.018,10.018,0,1,0,20.947,10.929,10.03,10.03,0,0,0,10.929.911Z"/>
  <path id="Path_6426" data-name="Path 6426" d="M9.009,16.929a.446.446,0,0,1-.174-.035.455.455,0,0,1-.281-.421V13.741a.459.459,0,0,1,.133-.322l2.149-2.149L7.412,13.225a.456.456,0,0,1-.471-.012L4.209,11.471a.455.455,0,0,1,.078-.808L16.127,6.03a.46.46,0,0,1,.455.073.455.455,0,0,1,.159.434L14.92,16.554a.456.456,0,0,1-.652.326l-3.35-1.675L9.329,16.795A.449.449,0,0,1,9.009,16.929ZM10.83,14.2a.453.453,0,0,1,.2.048l3.1,1.55L15.7,7.177,5.455,11.186,7.2,12.3l6.136-3.506a.455.455,0,0,1,.548.717L9.464,13.93v1.444l1.044-1.044a.452.452,0,0,1,.322-.134Z" transform="translate(-0.357 -0.536)"/>
</svg>
