<svg xmlns="http://www.w3.org/2000/svg" width="22" height="22.375" viewBox="0 0 22 22.375">
  <path id="law_1_" data-name="law (1)" d="M12.952,18.558H6.092a1.834,1.834,0,0,0-1.834,1.83v.8a1.728,1.728,0,0,0-1.646,1.721v1.209a.47.47,0,0,0,.47.47H15.961a.47.47,0,0,0,.47-.47V22.909a1.728,1.728,0,0,0-1.646-1.722v-.8a1.834,1.834,0,0,0-1.834-1.83ZM5.2,20.387a.892.892,0,0,1,.893-.889h6.86a.893.893,0,0,1,.894.889v.792H5.2v-.791Zm10.292,2.521v.739H3.553v-.738a.79.79,0,0,1,.789-.79H14.7A.79.79,0,0,1,15.491,22.908Zm8.891-5.8a1.761,1.761,0,0,0-.694-2.419L14.049,9.493A15.28,15.28,0,0,1,15.2,8.046a1.631,1.631,0,0,0,1.982-.727l.071-.122h0a1.641,1.641,0,0,0-.614-2.237l-4.463-2.53a1.637,1.637,0,0,0-2.234.616l-.073.127a1.636,1.636,0,0,0,.372,2.057,16.873,16.873,0,0,1-3.294,5.813,1.648,1.648,0,0,0-2,.735l-.061.112A1.641,1.641,0,0,0,5.5,14.125l4.463,2.53a1.637,1.637,0,0,0,2.234-.616l.071-.122,0,0a1.64,1.64,0,0,0-.368-2.052,14.925,14.925,0,0,1,.609-1.617l9.439,5.511a1.763,1.763,0,0,0,2.432-.648ZM11.841,11.422l-2.8-1.586A16.407,16.407,0,0,0,10.276,7.65L13.1,9.228a15.062,15.062,0,0,0-1.254,2.194Zm1.8-2.968L10.66,6.787c.141-.339.275-.681.4-1.03q1.633.927,3.266,1.851-.356.412-.684.846ZM10.683,3.637l.072-.125a.7.7,0,0,1,.953-.265L16.17,5.776a.7.7,0,0,1,.262.952l-.072.126a.7.7,0,0,1-.948.263L10.946,4.581A.7.7,0,0,1,10.683,3.637ZM8.493,10.61l2.965,1.677q-.214.525-.391,1.063L7.8,11.5c.242-.288.47-.585.693-.886Zm2.958,4.84-.071.122a.7.7,0,0,1-.953.265l-4.463-2.53a.7.7,0,0,1-.256-.963l.06-.112a.7.7,0,0,1,.95-.269L11.187,14.5a.7.7,0,0,1,.264.948Zm1.454-4.065a11,11,0,0,1,.629-1.1l9.706,5.231a.822.822,0,1,1-.814,1.428l-9.522-5.559Z" transform="translate(-2.612 -2.213)"/>
</svg>
