<svg xmlns="http://www.w3.org/2000/svg" viewBox="0 0 48 48" id="translator"><path d="M31.68 13h2.64L33 9.69 31.68 13z"></path><path d="M45 1H21a2 2 0 0 0-2 2v18a2 2 0 0 0 2 2h15l6 4v-4h3a2 2 0 0 0 2-2V3a2 2 0 0 0-2-2Zm-8.93 16.37C35 14.62 35.17 15 35 15h-4.11l-1 2.39a1 1 0 0 1-1.86-.74l4-10a1 1 0 0 1 1.86 0l4 10a1 1 0 0 1-1.82.72Z"></path><path d="M17 21H3a2 2 0 0 0-2 2v18a2 2 0 0 0 2 2h3v4l6-4h15a2 2 0 0 0 2-2V25h-8a4 4 0 0 1-4-4Zm2 9c-.33 0 .14 1.93-2.52 4.82a14.16 14.16 0 0 0 2 1.29 1 1 0 0 1-.9 1.79A16.2 16.2 0 0 1 15 36.2a15.21 15.21 0 0 1-2.55 1.69 1 1 0 0 1-.9-1.78 15.36 15.36 0 0 0 2-1.3 11.28 11.28 0 0 1-1-1.24 1 1 0 0 1 1.64-1.14 9.42 9.42 0 0 0 .84 1A7.22 7.22 0 0 0 16.89 30H11a1 1 0 0 1 0-2h3v-1a1 1 0 0 1 2 0v1h3a1 1 0 0 1 0 2Z"></path></svg>