<svg xmlns="http://www.w3.org/2000/svg" width="33" height="35.75" viewBox="0 0 33 35.75">
  <g id="trash_3_" data-name="trash (3)" transform="translate(-4 -3)">
    <path id="Path_6321" data-name="Path 6321" d="M11.375,12A1.375,1.375,0,0,0,10,13.375v13.75a1.375,1.375,0,0,0,2.75,0V13.375A1.375,1.375,0,0,0,11.375,12Zm6.875,0a1.375,1.375,0,0,0-1.375,1.375v13.75a1.375,1.375,0,0,0,2.75,0V13.375A1.375,1.375,0,0,0,18.25,12Zm5.5,15.125a1.375,1.375,0,0,0,2.75,0V13.375a1.375,1.375,0,0,0-2.75,0Z" transform="translate(2.25 3.375)" fill="#fff"/>
    <path id="Path_6322" data-name="Path 6322" d="M35.625,8.5h-8.25V4.375A1.375,1.375,0,0,0,26,3H15a1.375,1.375,0,0,0-1.375,1.375V8.5H5.375a1.375,1.375,0,0,0,0,2.75H6.75V34.625A4,4,0,0,0,10.6,38.75H30.4a4,4,0,0,0,3.85-4.125V11.25h1.375a1.375,1.375,0,0,0,0-2.75ZM16.375,5.75h8.25V8.5h-8.25ZM31.5,34.625A1.279,1.279,0,0,1,30.4,36H10.6a1.279,1.279,0,0,1-1.1-1.375V11.25h22Z" fill="#fff"/>
  </g>
</svg>
