<svg xmlns="http://www.w3.org/2000/svg" width="29" height="29" viewBox="0 0 29 29">
  <g id="Group_5090" data-name="Group 5090" transform="translate(9161 19186.303)">
    <rect id="Rectangle_1363" data-name="Rectangle 1363" width="29" height="29" transform="translate(-9161 -19186.303)" fill="none"/>
    <g id="calendario" transform="translate(-9160.117 -19186.018)">
      <g id="Group_5061" data-name="Group 5061">
        <g id="Group_5060" data-name="Group 5060">
          <path id="Path_4340" data-name="Path 4340" d="M24.571,2.174h-1.3V0H21.092V2.174H6.741V0H4.566V2.174h-1.3A3.265,3.265,0,0,0,0,5.436V24.571a3.265,3.265,0,0,0,3.262,3.262H24.571a3.265,3.265,0,0,0,3.262-3.262V5.436A3.265,3.265,0,0,0,24.571,2.174Zm1.087,22.4a1.088,1.088,0,0,1-1.087,1.087H3.262a1.088,1.088,0,0,1-1.087-1.087V10.22H25.658Zm0-16.525H2.174V5.436A1.088,1.088,0,0,1,3.262,4.349h1.3V6.523H6.741V4.349H21.092V6.523h2.174V4.349h1.3a1.088,1.088,0,0,1,1.087,1.087Z" fill="#8e8e8e"/>
        </g>
      </g>
      <g id="Group_5063" data-name="Group 5063" transform="translate(4.341 12.44)">
        <g id="Group_5062" data-name="Group 5062" transform="translate(0 0)">
          <rect id="Rectangle_1364" data-name="Rectangle 1364" width="1.973" height="2.368" transform="translate(0)" fill="#8e8e8e"/>
        </g>
      </g>
      <g id="Group_5065" data-name="Group 5065" transform="translate(8.288 12.44)">
        <g id="Group_5064" data-name="Group 5064" transform="translate(0 0)">
          <rect id="Rectangle_1365" data-name="Rectangle 1365" width="2.368" height="2.368" fill="#8e8e8e"/>
        </g>
      </g>
      <g id="Group_5067" data-name="Group 5067" transform="translate(12.629 12.44)">
        <g id="Group_5066" data-name="Group 5066" transform="translate(0 0)">
          <rect id="Rectangle_1366" data-name="Rectangle 1366" width="2.368" height="2.368" fill="#8e8e8e"/>
        </g>
      </g>
      <g id="Group_5069" data-name="Group 5069" transform="translate(17.365 12.44)">
        <g id="Group_5068" data-name="Group 5068" transform="translate(0 0)">
          <rect id="Rectangle_1367" data-name="Rectangle 1367" width="1.973" height="2.368" fill="#8e8e8e"/>
        </g>
      </g>
      <g id="Group_5071" data-name="Group 5071" transform="translate(21.706 12.44)">
        <g id="Group_5070" data-name="Group 5070" transform="translate(0 0)">
          <rect id="Rectangle_1368" data-name="Rectangle 1368" width="1.973" height="2.368" transform="translate(0)" fill="#8e8e8e"/>
        </g>
      </g>
      <g id="Group_5073" data-name="Group 5073" transform="translate(4.341 16.781)">
        <g id="Group_5072" data-name="Group 5072" transform="translate(0 0)">
          <rect id="Rectangle_1369" data-name="Rectangle 1369" width="1.973" height="2.368" transform="translate(0)" fill="#8e8e8e"/>
        </g>
      </g>
      <g id="Group_5075" data-name="Group 5075" transform="translate(8.288 16.781)">
        <g id="Group_5074" data-name="Group 5074" transform="translate(0 0)">
          <rect id="Rectangle_1370" data-name="Rectangle 1370" width="2.368" height="2.368" fill="#8e8e8e"/>
        </g>
      </g>
      <g id="Group_5077" data-name="Group 5077" transform="translate(12.629 16.781)">
        <g id="Group_5076" data-name="Group 5076" transform="translate(0 0)">
          <rect id="Rectangle_1371" data-name="Rectangle 1371" width="2.368" height="2.368" fill="#8e8e8e"/>
        </g>
      </g>
      <g id="Group_5079" data-name="Group 5079" transform="translate(17.365 16.781)">
        <g id="Group_5078" data-name="Group 5078" transform="translate(0 0)">
          <rect id="Rectangle_1372" data-name="Rectangle 1372" width="1.973" height="2.368" fill="#8e8e8e"/>
        </g>
      </g>
      <g id="Group_5081" data-name="Group 5081" transform="translate(4.341 21.123)">
        <g id="Group_5080" data-name="Group 5080" transform="translate(0 0)">
          <rect id="Rectangle_1373" data-name="Rectangle 1373" width="1.973" height="2.368" transform="translate(0 0)" fill="#8e8e8e"/>
        </g>
      </g>
      <g id="Group_5083" data-name="Group 5083" transform="translate(8.288 21.123)">
        <g id="Group_5082" data-name="Group 5082" transform="translate(0 0)">
          <rect id="Rectangle_1374" data-name="Rectangle 1374" width="2.368" height="2.368" transform="translate(0 0)" fill="#8e8e8e"/>
        </g>
      </g>
      <g id="Group_5085" data-name="Group 5085" transform="translate(12.629 21.123)">
        <g id="Group_5084" data-name="Group 5084" transform="translate(0 0)">
          <rect id="Rectangle_1375" data-name="Rectangle 1375" width="2.368" height="2.368" transform="translate(0 0)" fill="#8e8e8e"/>
        </g>
      </g>
      <g id="Group_5087" data-name="Group 5087" transform="translate(17.365 21.123)">
        <g id="Group_5086" data-name="Group 5086" transform="translate(0 0)">
          <rect id="Rectangle_1376" data-name="Rectangle 1376" width="1.973" height="2.368" transform="translate(0 0)" fill="#8e8e8e"/>
        </g>
      </g>
      <g id="Group_5089" data-name="Group 5089" transform="translate(21.706 16.781)">
        <g id="Group_5088" data-name="Group 5088" transform="translate(0 0)">
          <rect id="Rectangle_1377" data-name="Rectangle 1377" width="1.973" height="2.368" transform="translate(0)" fill="#8e8e8e"/>
        </g>
      </g>
    </g>
  </g>
</svg>
