<svg id="user-error" xmlns="http://www.w3.org/2000/svg" width="28" height="28" viewBox="0 0 28 28">
  <path id="Path_7368" data-name="Path 7368" d="M26.558,25.144a13.964,13.964,0,0,0-19.7-19.7L3.707,2.293A1,1,0,1,0,2.293,3.707l26,26a1,1,0,1,0,1.414-1.414ZM12,10a4,4,0,1,1,6.963,2.663,6.976,6.976,0,0,1,3.671,8.557l-1.68-1.68A4.132,4.132,0,0,0,21,19a5,5,0,0,0-5-5,4.12,4.12,0,0,0-.54.046l-3.4-3.4A3.786,3.786,0,0,1,12,10Zm8.949,13.95a1,1,0,1,1-1.414-1.414c.1-.1.175-.216.265-.322L12.786,15.2c-.106.09-.222.165-.321.264a5,5,0,0,0,0,7.071,1,1,0,1,1-1.414,1.414,7,7,0,0,1,0-9.9c.1-.1.215-.174.319-.266L4.98,7.394A13.978,13.978,0,0,0,24.605,27.02l-3.377-3.377C21.136,23.745,21.048,23.851,20.949,23.95Z" transform="translate(-2 -2)"/>
</svg>
