<svg xmlns="http://www.w3.org/2000/svg" width="22" height="17" viewBox="0 0 22 17">
  <path id="version" d="M11.429,6.125A2.25,2.25,0,0,1,13.786,4h7.857A2.25,2.25,0,0,1,24,6.125v12.75A2.25,2.25,0,0,1,21.643,21H13.786a2.25,2.25,0,0,1-2.357-2.125Zm2.357-.708A.75.75,0,0,0,13,6.125v12.75a.75.75,0,0,0,.786.708h7.857a.75.75,0,0,0,.786-.708V6.125a.75.75,0,0,0-.786-.708ZM5.143,7.542A2.25,2.25,0,0,1,7.5,5.417H9.071a.75.75,0,0,1,.786.708.75.75,0,0,1-.786.708H7.5a.75.75,0,0,0-.786.708v9.917a.75.75,0,0,0,.786.708H9.071a.712.712,0,1,1,0,1.417H7.5a2.25,2.25,0,0,1-2.357-2.125ZM3.571,8.25a.75.75,0,0,0-.786-.708A.75.75,0,0,0,2,8.25v8.5a.75.75,0,0,0,.786.708.75.75,0,0,0,.786-.708Z" transform="translate(-2 -4)" fill-rule="evenodd"/>
</svg>
