<svg xmlns="http://www.w3.org/2000/svg" width="22.3" height="15.77" viewBox="0 0 22.3 15.77">
  <g id="video-camera_3_" data-name="video-camera (3)" transform="translate(-78.885 -207.361)">
    <path id="Path_6396" data-name="Path 6396" d="M93.523,209.183v12.162c0,.028,0,.058-.005.086-.005.066.023-.086,0,.018-.013.056-.025.109-.043.165l-.023.064c.028-.069,0,0-.01.015-.025.043-.048.086-.074.13l-.038.053c.043-.058,0,0-.013.013-.043.043-.084.086-.13.127-.01.01-.056.043,0,0l-.053.038a1.3,1.3,0,0,1-.13.074c-.018.01-.086.036-.015.01l-.064.023c-.053.018-.109.031-.165.043-.1.025.046,0-.018,0-.028,0-.058.005-.086.005H80.708a1.292,1.292,0,0,1-.14-.008c.076.008-.041-.01-.066-.015a1.171,1.171,0,0,1-.16-.051c.071.028-.066-.036-.089-.048s-.038-.023-.056-.036c0,0-.086-.061-.041-.028s-.038-.036-.038-.033l-.048-.046c-.015-.015-.03-.03-.046-.048,0,0-.066-.081-.033-.038s-.03-.043-.028-.041c-.018-.028-.036-.056-.051-.084s-.061-.13-.033-.058a1.3,1.3,0,0,1-.051-.16c-.008-.025-.025-.145-.015-.066a1.288,1.288,0,0,1-.008-.14V210.656c0-.49-.005-.981,0-1.469,0-.03,0-.061,0-.091s.013-.1,0-.018c.005-.023.008-.046.013-.066.013-.056.03-.109.048-.163.023-.069.008-.018,0,0a.67.67,0,0,1,.038-.074c.023-.043.051-.084.079-.127.038-.058.01-.015,0,0,.018-.02.036-.043.053-.061a1.533,1.533,0,0,1,.132-.125c-.056.048.036-.023.058-.036a1.176,1.176,0,0,1,.147-.079c-.069.03.041-.013.066-.02l.081-.023c.01,0,.114-.02.066-.015s.056,0,.053,0a.644.644,0,0,1,.071,0h.015c.17,0,.34,0,.508,0h9.688c.559,0,1.12,0,1.679,0h.023a1.291,1.291,0,0,1,.14.008c-.076-.008,0,0,.018.005s.056.013.084.02a1.065,1.065,0,0,1,.127.043c-.069-.028,0,0,.015.01s.048.025.074.041a.871.871,0,0,1,.318.313c.025.043.048.086.071.132-.033-.069.018.058.025.081a.985.985,0,0,1,.033.15c-.013-.071,0-.015,0,0a.241.241,0,0,0-.01.1.381.381,0,0,0,.762,0,1.7,1.7,0,0,0-1.674-1.669c-.16,0-.323,0-.483,0h-9.8c-.536,0-1.072-.005-1.611,0a1.693,1.693,0,0,0-1.677,1.6c-.008.142,0,.287,0,.432v11.68a1.738,1.738,0,0,0,.691,1.438,1.83,1.83,0,0,0,1.143.32H92.456a1.85,1.85,0,0,0,1.179-.351,1.727,1.727,0,0,0,.653-1.41V209.188a.382.382,0,0,0-.765-.005Z" transform="translate(0)" stroke="#000" stroke-width="0.3"/>
    <path id="Path_6397" data-name="Path 6397" d="M655.951,275.072v10.6a1.818,1.818,0,0,0,0,.287c.005.023.038-.1.071-.127s.2-.048.19-.005l-.008-.005c-.023-.028-.086-.046-.117-.064-.193-.1-.384-.2-.577-.307l-2.035-1.082q-1.132-.6-2.266-1.207l-1.364-.727-.069-.036c.063.109.127.219.188.33v-4.423c-.064.109-.127.219-.188.33l2.236-1.189,3.476-1.85.554-.295c.046-.025.094-.048.14-.074a.1.1,0,0,0,.028-.015c-.1.084-.249-.02-.259-.142a.381.381,0,0,0,.762,0,.6.6,0,0,0-.884-.516.5.5,0,0,0-.051.028c-.122.066-.244.13-.368.2-.493.262-.986.526-1.481.788q-1.837.979-3.676,1.956l-.864.46a.381.381,0,0,0-.188.33v4.423a.384.384,0,0,0,.188.33l.993.528,2.193,1.166q1.105.587,2.208,1.176c.348.186.691.381,1.044.554a.6.6,0,0,0,.884-.516V275.082a.386.386,0,0,0-.381-.381A.372.372,0,0,0,655.951,275.072Z" transform="translate(-555.679 -65.272)" stroke="#000" stroke-width="0.3"/>
  </g>
</svg>
