<svg xmlns="http://www.w3.org/2000/svg" width="27.393" height="18.262" viewBox="0 0 27.393 18.262">
  <g id="Group_6357" data-name="Group 6357" transform="translate(-171.304 -766.869)">
    <path id="video-camera_1_" data-name="video-camera (1)" d="M16.838,4a3.424,3.424,0,0,1,3.424,3.424V18.838a3.424,3.424,0,0,1-3.424,3.424H5.424A3.424,3.424,0,0,1,2,18.838V7.424A3.424,3.424,0,0,1,5.424,4Zm10.84.406A1.142,1.142,0,0,1,29.37,5.2l.016.2.007,15.469a1.142,1.142,0,0,1-1.529,1.075l-.178-.083L22.546,18.92V7.341Z" transform="translate(169.304 762.869)" fill="#0076c1"/>
  </g>
</svg>
