<svg xmlns="http://www.w3.org/2000/svg" width="37.811" height="21.606" viewBox="0 0 37.811 21.606">
  <g id="Group_6511" data-name="Group 6511" transform="translate(-24 -129.606)">
    <g id="eye_13_" data-name="eye (13)" transform="translate(-8 1.606)">
      <path id="Path_6335" data-name="Path 6335" d="M50.906,128c-6.912,0-12.3,4.119-18.906,10.8,5.689,5.714,10.466,10.8,18.906,10.8s14.635-6.448,18.906-10.685C65.439,133.959,59.244,128,50.906,128Zm0,18.509a7.707,7.707,0,1,1,7.562-7.706A7.646,7.646,0,0,1,50.906,146.509Z" fill="#0076c1"/>
      <path id="Path_6336" data-name="Path 6336" d="M208.114,204.5a2.71,2.71,0,0,1,.641-1.747,4.025,4.025,0,0,0-.641-.051,4.5,4.5,0,1,0,4.414,4.5c0-.194-.017-.388-.034-.582a2.7,2.7,0,0,1-4.38-2.118Z" transform="translate(-157.208 -68.395)" fill="#0076c1"/>
    </g>
  </g>
</svg>
