<svg xmlns="http://www.w3.org/2000/svg" width="20.858" height="20.857" viewBox="0 0 20.858 20.857">
  <g id="whatsapp_4_" data-name="whatsapp (4)" transform="translate(0 -0.002)">
    <path id="Path_6418" data-name="Path 6418" d="M.434,20.859a.433.433,0,0,1-.4-.591l1.619-4.211a10.465,10.465,0,1,1,3.276,3.225L.58,20.834A.423.423,0,0,1,.434,20.859ZM4.98,18.368a.43.43,0,0,1,.237.07,9.526,9.526,0,1,0-2.723-2.674.437.437,0,0,1,.045.4L1.18,19.7l3.654-1.3a.441.441,0,0,1,.146-.025Z"/>
    <path id="Path_6419" data-name="Path 6419" d="M13.822,16.431c-1.365,0-3.986-1.633-5.087-2.734S6,9.974,6,8.609A2.618,2.618,0,0,1,8.173,6h.869a.435.435,0,0,1,.389.242s.524,1.065.866,1.732c.386.753-.34,1.64-.753,2.058a5.225,5.225,0,0,0,1.107,1.744A5.21,5.21,0,0,0,12.4,12.886c.417-.414,1.3-1.14,2.058-.753.667.343,1.73.866,1.731.866a.435.435,0,0,1,.243.39v.869A2.618,2.618,0,0,1,13.822,16.431ZM8.173,6.871a1.806,1.806,0,0,0-1.3,1.738c0,1.007,1.42,3.412,2.48,4.472,1.158,1.158,3.541,2.48,4.472,2.48a1.806,1.806,0,0,0,1.738-1.3v-.6q-.754-.371-1.5-.753c-.2-.109-.821.326-1.213.77a.435.435,0,0,1-.447.129,6.083,6.083,0,0,1-2.359-1.414,6.1,6.1,0,0,1-1.414-2.359.435.435,0,0,1,.129-.447c.443-.392.876-1.007.77-1.214-.242-.472-.575-1.145-.751-1.5h-.6Z" transform="translate(-0.786 -0.786)"/>
  </g>
</svg>
