<svg id="whatsapp_2_" data-name="whatsapp (2)" xmlns="http://www.w3.org/2000/svg" width="40" height="40" viewBox="0 0 40 40">
  <rect id="Rectangle_1542" data-name="Rectangle 1542" width="40" height="40" rx="20" fill="#0dc143"/>
  <path id="Path_6166" data-name="Path 6166" d="M30.957,12.559a11.448,11.448,0,0,0-8.2-3.434,11.616,11.616,0,0,0-11.638,11.7,12.28,12.28,0,0,0,1.526,5.787l-1.653,6.041,6.169-1.59a11.355,11.355,0,0,0,5.533,1.4,11.7,11.7,0,0,0,11.638-11.7A11.541,11.541,0,0,0,30.957,12.559Zm-8.2,17.933a9.448,9.448,0,0,1-4.9-1.335l-.382-.191-3.688.954.954-3.625-.254-.382A9.653,9.653,0,1,1,27.777,29.03,9.271,9.271,0,0,1,22.753,30.492Zm5.6-7.059-.7-.318S26.633,22.67,26,22.352c-.064,0-.127-.064-.191-.064a.919.919,0,0,0-.445.127s-.064.064-.954,1.081a.35.35,0,0,1-.318.191h-.064a.482.482,0,0,1-.254-.127l-.318-.127a6.182,6.182,0,0,1-1.844-1.208c-.127-.127-.318-.254-.445-.382a7.1,7.1,0,0,1-1.208-1.526l-.064-.127c-.064-.064-.064-.127-.127-.254a.477.477,0,0,1,.064-.318s.254-.318.445-.509c.127-.127.191-.318.318-.445a.783.783,0,0,0,.127-.636A24.77,24.77,0,0,0,19.7,15.612a.736.736,0,0,0-.445-.318h-.7c-.127,0-.254.064-.382.064l-.064.064c-.127.064-.254.191-.382.254-.127.127-.191.254-.318.382a3.243,3.243,0,0,0-.7,1.971,3.773,3.773,0,0,0,.318,1.463l.064.191a10.6,10.6,0,0,0,2.353,3.243l.254.254a3.846,3.846,0,0,1,.509.509A11.363,11.363,0,0,0,24.788,26.1c.191.064.445.064.636.127h.636a2.358,2.358,0,0,0,.954-.254c.191-.127.318-.127.445-.254l.127-.127c.127-.127.254-.191.382-.318a1.686,1.686,0,0,0,.318-.382,3.644,3.644,0,0,0,.254-.89v-.445A.788.788,0,0,0,28.35,23.434Z" transform="translate(-1.754 -1.457)" fill="#fff"/>
</svg>
