<svg xmlns="http://www.w3.org/2000/svg" width="28.332" height="28.332" viewBox="0 0 28.332 28.332">
  <path id="wink" d="M14.666.5A14.166,14.166,0,1,0,28.832,14.666,14.165,14.165,0,0,0,14.666.5ZM11.417,11.145a2.254,2.254,0,0,1-4.509,0,3.855,3.855,0,0,0,4.509,0ZM21.622,21.622a9.852,9.852,0,0,1-13.913,0,.9.9,0,1,1,1.278-1.278,8.044,8.044,0,0,0,11.357,0,.9.9,0,0,1,1.278,1.278ZM20.169,13.4a2.254,2.254,0,1,1,2.254-2.254A2.254,2.254,0,0,1,20.169,13.4Z" transform="translate(-0.5 -0.5)" fill="#0076c1"/>
</svg>
