<svg xmlns="http://www.w3.org/2000/svg" width="22" height="22" viewBox="0 0 22 22">
  <g id="wink" transform="translate(-0.5 -0.5)">
    <path id="Path_6427" data-name="Path 6427" d="M11.5.5a11,11,0,1,0,11,11A11.011,11.011,0,0,0,11.5.5Zm0,20.6a9.6,9.6,0,1,1,9.6-9.6A9.609,9.609,0,0,1,11.5,21.1Z"/>
    <path id="Path_6428" data-name="Path 6428" d="M13.6,20.168a1.64,1.64,0,0,0,1.638-1.638,2.8,2.8,0,0,1-3.277,0A1.634,1.634,0,0,0,13.6,20.168Z" transform="translate(-6.096 -9.59)"/>
    <circle id="Ellipse_659" data-name="Ellipse 659" cx="1.638" cy="1.638" r="1.638" transform="translate(13.859 7.301)"/>
    <path id="Path_6429" data-name="Path 6429" d="M22.078,32.514a5.786,5.786,0,0,1-8.191,0,.7.7,0,1,0-.992.992,7.2,7.2,0,0,0,10.176,0,.7.7,0,0,0,0-.992A.706.706,0,0,0,22.078,32.514Z" transform="translate(-6.483 -16.919)"/>
  </g>
</svg>
