<svg xmlns="http://www.w3.org/2000/svg" width="29.965" height="30" viewBox="0 0 29.965 30">
  <g id="restart" transform="translate(0.005 -0.1)">
    <path id="Path_6389" data-name="Path 6389" d="M28.847,1.693a1.114,1.114,0,0,0-1.113,1.113V7.24A15,15,0,0,0,0,13.956,1.114,1.114,0,0,0,1.025,15.15c.029,0,.057,0,.085,0a1.114,1.114,0,0,0,1.109-1.03A12.775,12.775,0,0,1,26.132,8.912h-4.5a1.113,1.113,0,1,0,0,2.227h7.22a1.114,1.114,0,0,0,1.113-1.113V2.806a1.114,1.114,0,0,0-1.113-1.113Zm.084,13.357a1.114,1.114,0,0,0-1.194,1.027A12.775,12.775,0,0,1,3.824,21.288h4.5a1.113,1.113,0,1,0,0-2.227H1.109A1.113,1.113,0,0,0,0,20.174v7.22a1.113,1.113,0,0,0,2.227,0V22.96a15,15,0,0,0,27.735-6.716A1.114,1.114,0,0,0,28.93,15.05Z" transform="translate(0 0)"/>
  </g>
</svg>
