<svg xmlns="http://www.w3.org/2000/svg" width="25.963" height="11.801" viewBox="0 0 25.963 11.801">
  <g id="xxx_3_" data-name="xxx (3)" transform="translate(-3.75 -8.25)">
    <path id="Path_7392" data-name="Path 7392" d="M4.276,8.448a1.18,1.18,0,0,1,1.637.327l2.165,3.248,2.165-3.248a1.18,1.18,0,0,1,2.162.639,1.18,1.18,0,0,1,2.162-.639l2.165,3.248L18.9,8.776a1.18,1.18,0,0,1,2.162.639,1.18,1.18,0,0,1,2.162-.639l2.165,3.248,2.165-3.248a1.18,1.18,0,1,1,1.964,1.309L26.8,14.151l2.711,4.066a1.18,1.18,0,0,1-1.964,1.309l-2.165-3.248-2.165,3.248a1.18,1.18,0,0,1-2.162-.639,1.18,1.18,0,0,1-2.162.639l-2.165-3.248-2.165,3.248a1.18,1.18,0,0,1-2.162-.639,1.18,1.18,0,0,1-2.162.639L8.077,16.278,5.912,19.526a1.18,1.18,0,0,1-1.964-1.309l2.711-4.066L3.948,10.085A1.18,1.18,0,0,1,4.276,8.448Zm5.22,5.7,2.711,4.066a1.174,1.174,0,0,1,.2.636,1.174,1.174,0,0,1,.2-.636l2.711-4.066L12.6,10.085a1.175,1.175,0,0,1-.2-.636,1.175,1.175,0,0,1-.2.636Zm8.654,0,2.711,4.066a1.174,1.174,0,0,1,.2.636,1.174,1.174,0,0,1,.2-.636l2.711-4.066-2.711-4.066a1.175,1.175,0,0,1-.2-.637,1.175,1.175,0,0,1-.2.637Z" transform="translate(0 0)" fill="red" fill-rule="evenodd"/>
  </g>
</svg>
