<svg xmlns="http://www.w3.org/2000/svg" width="40" height="44" viewBox="0 0 40 44">
  <g id="Group_6569" data-name="Group 6569" transform="translate(-194 -999)">
    <path id="zip-download" d="M9,42H27v2H9a3,3,0,0,1-3-3V30H8V41A1,1,0,0,0,9,42ZM26,21h2V19H26ZM7,28a3,3,0,0,1-3-3V17a3,3,0,0,1,2-2.82V5A3,3,0,0,1,9,2H26a1,1,0,0,1,.66.24l9,8A1,1,0,0,1,36,11h0v3.18A3,3,0,0,1,38,17v8a3,3,0,0,1-3,3Zm11-5H14.87l3-4.45A1.007,1.007,0,0,0,17,17H12v2h3.13l-3,4.45A1.007,1.007,0,0,0,13,25h5Zm4-3H20v5h2Zm0-3H20v2h2Zm8,1a1,1,0,0,0-1-1H25a1,1,0,0,0-1,1v7h2V23h3a1,1,0,0,0,1-1ZM8,5v9H34V12H26a1,1,0,0,1-1-1V4H9A1,1,0,0,0,8,5ZM44,38a8,8,0,1,1-8-8A8,8,0,0,1,44,38Zm-4.29.71-1.42-1.42L37,38.59V34H35v4.59l-1.29-1.3-1.42,1.42,3,3a1,1,0,0,0,1.42,0Z" transform="translate(190 997)" fill="#0076c1"/>
  </g>
</svg>
