<svg xmlns="http://www.w3.org/2000/svg" width="35.905" height="37.401" viewBox="0 0 35.905 37.401">
  <g id="zip_1_" data-name="zip (1)" transform="translate(-21.762 -12)">
    <path id="Path_6449" data-name="Path 6449" d="M253.107,298.141a1.335,1.335,0,0,0,.314-.974v-.12a1.31,1.31,0,0,0-.314-.967,1.162,1.162,0,0,0-.868-.311h-1.23v2.688h1.23A1.164,1.164,0,0,0,253.107,298.141Z" transform="translate(-211.678 -262.02)" fill="#00932d"/>
    <path id="Path_6450" data-name="Path 6450" d="M57.474,23.657,46.7,12.221A.713.713,0,0,0,46.185,12H31.56a4.257,4.257,0,0,0-4.252,4.252V28.88H23.15a1.389,1.389,0,0,0-1.388,1.389V42.685a1.389,1.389,0,0,0,1.388,1.387h4.158v1.078A4.257,4.257,0,0,0,31.56,49.4H53.415a4.257,4.257,0,0,0,4.252-4.252V24.143A.709.709,0,0,0,57.474,23.657ZM56.25,45.149a2.839,2.839,0,0,1-2.836,2.836H31.56a2.839,2.839,0,0,1-2.836-2.836V44.072H50.547a1.389,1.389,0,0,0,1.387-1.387V30.269a1.389,1.389,0,0,0-1.387-1.389H28.724V16.252a2.839,2.839,0,0,1,2.836-2.836H45.481v8.359a3.074,3.074,0,0,0,3.071,3.071h7.7v20.3Zm-25.345-11.4a.292.292,0,0,1-.254-.141.567.567,0,0,1-.092-.325.63.63,0,0,1,.083-.318.281.281,0,0,1,.263-.15h3.7a.347.347,0,0,1,.254.085.29.29,0,0,1,.085.212.844.844,0,0,1-.12.388L31.75,39.134h3.006a.286.286,0,0,1,.258.15.624.624,0,0,1,.088.318.61.61,0,0,1-.088.316.281.281,0,0,1-.258.15H30.737a.308.308,0,0,1-.247-.09.316.316,0,0,1-.081-.217.751.751,0,0,1,.108-.369L33.6,33.749h-2.69Zm5.011,5.971V33.153a.267.267,0,0,1,.164-.258.781.781,0,0,1,.362-.081.794.794,0,0,1,.362.081.267.267,0,0,1,.164.258V39.72a.277.277,0,0,1-.164.263.769.769,0,0,1-.362.085.756.756,0,0,1-.362-.085A.277.277,0,0,1,35.917,39.72Zm2.363,0V33.153a.306.306,0,0,1,.113-.24.441.441,0,0,1,.293-.1h1.936a2.738,2.738,0,0,1,1.1.215,1.666,1.666,0,0,1,.785.692A2.485,2.485,0,0,1,42.8,35v.078a2.392,2.392,0,0,1-.3,1.274,1.734,1.734,0,0,1-.805.7,2.863,2.863,0,0,1-1.131.217h-1.23v2.45a.277.277,0,0,1-.164.263.769.769,0,0,1-.362.085.756.756,0,0,1-.362-.085A.277.277,0,0,1,38.28,39.72Z" fill="#00932d"/>
  </g>
</svg>
